<svg width="30" height="34" xmlns="http://www.w3.org/2000/svg"><path d="M26.786 4.25H23.57V.797A.8.8 0 0022.768 0h-.536a.8.8 0 00-.803.797V4.25H8.57V.797A.8.8 0 007.768 0h-.536a.8.8 0 00-.803.797V4.25H3.214C1.44 4.25 0 5.677 0 7.438v23.375C0 32.572 1.44 34 3.214 34h23.572C28.56 34 30 32.573 30 30.812V7.438c0-1.76-1.44-3.187-3.214-3.187zM3.214 6.375h23.572c.59 0 1.071.477 1.071 1.063v3.187H2.143V7.437c0-.585.48-1.062 1.071-1.062zm23.572 25.5H3.214c-.59 0-1.071-.477-1.071-1.063V12.75h25.714v18.063c0 .585-.48 1.062-1.071 1.062z" fill="#1D6C93" fill-rule="nonzero"/></svg>