<svg xmlns="http://www.w3.org/2000/svg"><defs><font id="GTPressuraMono" horiz-adv-x="550"><font-face font-family="GT Pressura Mono Regular" font-weight="400" panose-1="2 0 5 6 2 0 0 2 0 4" ascent="750" descent="-250" x-height="500" cap-height="700" bbox="-197.381 -249 631 1065" underline-thickness="50" underline-position="-200" unicode-range="U+0020-FB02"/><glyph glyph-name="IJ" unicode="IJ" d="M296 0H71q-8 0-14 6t-6 14v48q0 8 6 14t14 6h70q10 0 10 10v505q0 10-10 10H81q-8 0-14 6t-6 14v47q0 8 6 14t14 6h215q8 0 14-6t6-14v-47q0-8-6-14t-14-6h-40q-10 0-10-10V98q0-10 10-10h40q50 0 82.5 32t32.5 90v470q0 8 6 14t14 6h55q8 0 14-6t6-14V200q0-91-60-145.5T296 0z"/><glyph glyph-name="ij" unicode="ij" d="M247-210H120q-8 0-14 6t-6 14v50q0 8 6 14t14 6h127q38 0 64 25t26 65v435q0 10-10 10H202V20q0-8-6-14t-14-6h-52q-8 0-14 6t-6 14v385q0 10-10 10H60q-8 0-14 6t-6 14v45q0 8 6 14t14 6h350q8 0 14-6t6-14V-30q0-74-52.5-127T247-210zm187 901v-69q0-16-16-16h-68q-16 0-16 16v69q0 6 4.5 11t11.5 5h68q7 0 11.5-5t4.5-11zm-229 0v-69q0-16-16-16h-68q-16 0-16 16v69q0 6 4.5 11t11.5 5h68q7 0 11.5-5t4.5-11z"/><glyph glyph-name="napostrophe" unicode="&quot;n" d="M183 477q9 0 38 16.5t69 16.5q80 0 135-54t55-136V20q0-8-6-14t-14-6h-50q-8 0-14 6t-6 14v300q0 43-31.5 71.5T280 420t-78.5-26-31.5-69V20q0-8-6-14t-14-6h-50q-8 0-14 6t-6 14v460q0 8 6 14t14 6h44q7 0 14-7 14-16 25-16zM28 599h-7q-8 0-14 6t-6 14v61q0 8 6 14t14 6h70q8 0 14-6t6-14v-61q0-34-20-62l-32-46q-10-15-26-15h-9q-14 0-19 11t1 22l31 57q3 5-.5 9t-8.5 4z"/><glyph glyph-name="f_f" unicode="ff" d="M515 620q-39 0-67-30.5T420 520v-15q0-10 10-10h72q8 0 14-6t6-14v-50q0-8-6-14t-14-6h-72q-10 0-10-10V20q0-8-6-14t-14-6h-50q-8 0-14 6t-6 14v375q0 10-8 10H208q-7 0-7-10V20q0-8-6-14t-14-6h-50q-8 0-14 6t-6 14v375q0 10-10 10H46q-8 0-14 6t-6 14v50q0 8 6 14t14 6h55q10 0 10 10v15q0 79 53 133t132 54q8 0 14-6t6-14v-47q0-8-6-14t-14-6q-39 0-67-30.5T201 520v-25q0-10 10-10h109q10 0 10 10v25q0 79 53 133t132 54q8 0 14-6t6-14v-47q0-8-6-14t-14-6z"/><glyph glyph-name="fi" unicode="fi" d="M373 400H212q-10 0-10-10V20q0-8-6-14t-14-6h-50q-8 0-14 6t-6 14v370q0 10-10 10H47q-8 0-14 6t-6 14v50q0 8 6 14t14 6h55q10 0 10 10v20q0 79 53 133t132 54h165q7 0 11.5-5t4.5-11v-55q0-16-16-16H297q-39 0-67-30.5T202 520v-20q0-10 10-10h243q8 0 14-6t6-14V20q0-8-6-14t-14-6h-52q-8 0-14 6t-6 14v370q0 10-10 10z"/><glyph glyph-name="fl" unicode="fl" d="M392 20v370q0 10-10 10H200q-10 0-10-10V20q0-8-6-14t-14-6h-50q-8 0-14 6t-6 14v370q0 10-10 10H45q-8 0-14 6t-6 14v50q0 8 6 14t14 6h45q10 0 10 10v20q0 79 53 133t132 54h10q8 0 14-6t6-14v-47q0-8-6-14t-14-6h-10q-39 0-67-30.5T190 520v-20q0-10 10-10h182q10 0 10 10v187q0 8 6 14t14 6h50q8 0 14-6t6-14V20q0-8-6-14t-14-6h-50q-8 0-14 6t-6 14z"/><glyph glyph-name=".notdef" d="M184 120q-12 0-18.5-9T156 91.5 143.5 72 116 63q-21 0-36.5 13.5T64 108q0 22 21 44t21 53q0 17-8 27.5T78 243q-8 0-15.5-3.5T48 236q-14 0-22 15.5T18 288q0 14 9.5 26.5T51 327q7 0 14.5-5.5T78 316q13 0 20 13.5t7 26.5q0 8-5 24.5T95 405q0 37 40 37 9 0 9 8 0 3-4 11t-4 13 5.5 9.5T152 488q11 0 22-17.5t20-17.5q11 0 15 8.5t4.5 19 7.5 19 22 8.5q21 0 37-24t35-24q20 0 27.5 11t7.5 37q0 27 14.5 40t38.5 13q22 0 34.5-13t12.5-35q0-18-12-31t-24-21-12-17q0-12 12-22t27-16 27-21 12-37q0-20-16-38t-16-34q0-26 44-26 40 0 40-45 0-22-15-37t-37-15q-15 0-35 25t-37 25q-25 0-25-21 0-10 10-21t10-28q0-14-9-23.5t-26-9.5q-10 0-35 15t-45 15q-26 0-26-31 0-27-24-27-8 0-13 7.5T218 96t-10.5 16.5T184 120zm114 220q0-16 12-28t28-12q17 0 30 12t13 28q0 17-13.5 32T338 387t-28-15-12-32zm-17-114q-26 0-48 20-5 5-7 0-1-3 2-7 18-29 53-29 30 0 44 34 2 4-1 6t-5-2q-12-22-38-22zm-67 109q0 21 14 21t14-21-14-21-14 21zm96 5q0 21 14 21t14-21-14-21-14 21zm-132 0q0-21 10-35.5t26-14.5q17 0 28.5 14.5T254 340t-11.5 35.5T214 390q-16 0-26-14.5T178 340zM85 520q0 14 8.5 24t20.5 10q10 0 17-10t7-24-7-24-17-10q-12 0-20.5 10T85 520z"/><glyph glyph-name=".null" horiz-adv-x="0"/><glyph glyph-name="nonmarkingreturn" horiz-adv-x="333"/><glyph glyph-name="space"/><glyph glyph-name="exclam" unicode="!" d="M322 680V210q0-8-6-14t-14-6h-56q-8 0-14 6t-6 14v470q0 8 6 14t14 6h56q8 0 14-6t6-14zm14-577V20q0-8-6-14t-14-6h-83q-8 0-14 6t-6 14v83q0 8 6 14t14 6h83q8 0 14-6t6-14z"/><glyph glyph-name="quotedbl" unicode="&quot;" d="M239 675l-33-215q-4-20-20-20h-25q-16 0-20 20l-32 215q-1 11 5 18t15 7h90q9 0 15-7t5-18zm200 0l-33-215q-4-20-20-20h-25q-16 0-20 20l-32 215q-1 11 5 18t15 7h90q9 0 15-7t5-18z"/><glyph glyph-name="numbersign" unicode="#" d="M317 250l32 180q2 10-8 10h-96q-10 0-12-10l-32-180q-2-10 8-10h96q10 0 12 10zm-198 0l32 180q2 10-8 10H93q-8 0-13 6t-4 14l6 37q4 20 24 20h50q10 0 12 10l27 153q4 20 23 20h42q8 0 13-6t4-14l-27-153q-2-10 8-10h96q10 0 12 10l27 153q4 20 23 20h42q8 0 13-6t4-14l-27-153q-2-10 8-10h50q8 0 13-6t3-14l-6-37q-4-20-23-20h-50q-10 0-12-10l-32-180q-2-10 8-10h50q8 0 13-6t3-14l-6-37q-4-20-23-20h-50q-10 0-12-10L358 20q-4-20-23-20h-42q-8 0-13 6t-4 14l24 133q2 10-8 10h-91q-15 0-17-10L160 20q-4-20-23-20H95q-8 0-13 6t-4 14l24 133q2 10-8 10H44q-8 0-13 6t-4 14l6 37q4 20 24 20h50q10 0 12 10z"/><glyph glyph-name="dollar" unicode="$" d="M222 704q10 3 10 10v36q0 8 6 14t14 6h45q8 0 14-6t6-14v-36q0-7 10-10 67-16 110-67.5T480 520v-13q0-8-6-14t-14-6h-55q-8 0-14 6t-6 14v13q0 46-33 69.5T275 613q-49 0-80-25.5T165 520q0-14 3-26.5t9.5-22 12-16.5 17.5-13.5 18.5-10 22-8 22-6 24-5.5 21.5-5q86-19 135.5-72.5T500 200q0-80-49.5-134.5T327-4q-10-3-10-10v-36q0-8-6-14t-14-6h-45q-8 0-14 6t-6 14v36q0 7-10 10-76 19-124 75T50 200v16q0 8 6 14t14 6h56q8 0 14-6t6-14v-16q0-49 36.5-81T275 87t92.5 32.5T404 200q0 27-9 47t-19.5 31.5-38 22-43.5 15-58 13.5q-76 17-121.5 64.5T69 520q0 71 43.5 119.5T222 704z"/><glyph glyph-name="percent" unicode="%" d="M470 672L144 15q-8-15-21-15H96Q86 0 80.5 9T80 28l324 657q8 15 22 15h28q10 0 15.5-9t.5-19zM34 595q5 47 36.5 79.5T146 707q45 0 76.5-33t36.5-79q8-69 0-138-5-47-36.5-79.5T146 345q-44 0-75.5 33T34 457q-8 68 0 138zm112 38q-15 0-24.5-10.5T110 597q-8-71 0-142 2-16 12-26t24-10q15 0 25 10.5t12 25.5q8 71 0 142-1 16-12 26t-25 10zm144-389q5 47 36.5 79.5T402 356q45 0 76.5-33t36.5-79q8-69 0-138-5-47-36.5-79.5T402-6q-44 0-75.5 33T290 106q-8 68 0 138zm112 38q-15 0-24.5-10.5T366 246q-8-71 0-142 2-16 12-26t24-10q15 0 25 10.5t12 25.5q8 71 0 142-1 16-12 26t-25 10z"/><glyph glyph-name="ampersand" unicode="&amp;" d="M110 369q10 9 0 24-46 65-46 124 0 82 50.5 132.5T252 700q79 0 128-51t49-132v-15q0-8-6-14t-14-6h-51q-8 0-14 6t-6 14v15q0 45-22.5 71.5T251 615q-49 0-73-26.5T154 517q0-11 5.5-26t13-28 19-29.5 19-26 19-23.5 13.5-16l133-163q6-6 9 1 4 24 4 94 0 8 6 14t14 6h45q8 0 14-6t6-14q0-112-17-158-4-11 2-17l77-88q9-10 3.5-23.5T518 0h-49q-12 0-22 10l-37 40q-7 7-14 0Q333-8 246-8 153-8 90.5 54T28 203q0 86 82 166zM246 82q51 0 87 31 6 6 2 10L180 311q-3 4-7 0-52-52-52-108 0-50 35.5-85.5T246 82z"/><glyph glyph-name="quotesingle" unicode="'" d="M341 675l-31-215q-4-20-20-20h-25q-16 0-20 20l-34 215q-2 11 4.5 18t15.5 7h90q9 0 15-7t5-18z"/><glyph glyph-name="parenleft" unicode="(" d="M407-2h48q8 0 14-6t6-14v-48q0-8-6-14t-14-6h-48q-90 0-151.5 57T182 120q-8 61-8 195.5t8 194.5q10 87 70.5 148.5T407 720h42q8 0 14-6t6-14v-48q0-8-6-14t-14-6h-42q-49 0-87.5-34T272 510q-10-61-10-195t10-195q7-48 43.5-85T407-2z"/><glyph glyph-name="parenright" unicode=")" d="M94-2h48q55 0 91.5 37t43.5 85q10 61 10 195t-10 195q-9 54-47.5 88T142 632h-42q-8 0-14 6t-6 14v48q0 8 6 14t14 6h42q94 0 154.5-61.5T367 510q7-60 7-194.5T367 120q-12-96-73.5-153T142-90H94q-8 0-14 6t-6 14v48q0 8 6 14t14 6z"/><glyph glyph-name="asterisk" unicode="*" d="M354 492l-40 24 2-46q0-8-6-14t-14-6h-42q-8 0-14 6t-6 14l1 47-39-25q-7-4-15-2t-12 10l-21 36q-11 16 7 27l41 22-41 22q-7 4-9.5 12t2.5 15l21 37q10 17 27 7l39-25-1 47q0 8 6 14t14 6h42q8 0 14-6t6-14l-2-47 40 25q7 4 15 2t12-10l21-36q11-16-7-27l-42-22 42-22q7-4 9.5-12t-2.5-15l-21-37q-10-17-27-7z"/><glyph glyph-name="plus" unicode="+" d="M75 296h144q10 0 10 10v144q0 8 6 14t14 6h52q8 0 14-6t6-14V306q0-10 10-10h144q8 0 14-6t6-14v-52q0-8-6-14t-14-6H331q-10 0-10-10V50q0-8-6-14t-14-6h-52q-8 0-14 6t-6 14v144q0 10-10 10H75q-8 0-14 6t-6 14v52q0 8 6 14t14 6z"/><glyph glyph-name="comma" unicode="," d="M246 0h-17q-8 0-14 6t-6 14v90q0 8 6 14t14 6h90q8 0 14-6t6-14V20q0-34-20-62l-52-73q-10-15-26-15h-14q-14 0-19 11t1 22l46 84q3 5-.5 9T246 0z"/><glyph glyph-name="hyphen" unicode="-" d="M138 321h273q8 0 14-6t6-14v-68q0-8-6-14t-14-6H138q-8 0-14 6t-6 14v68q0 8 6 14t14 6z"/><glyph glyph-name="period" unicode="." d="M339 110V20q0-8-6-14t-14-6h-90q-8 0-14 6t-6 14v90q0 8 6 14t14 6h90q8 0 14-6t6-14z"/><glyph glyph-name="slash" unicode="/" d="M451 682L187 3q-5-15-21-15h-52q-10 0-15 8.5T98 16l266 679q5 15 19 15h52q10 0 15-8.5t1-19.5z"/><glyph glyph-name="zero" unicode="0" d="M60 500q11 89 66 148.5T275 708q90 0 146.5-55.5T490 500q7-62 7-150t-7-150q-10-89-65.5-148.5T275-8q-90 0-146.5 55.5T60 200q-8 61-8 150.5T60 500zm215 118q-50 0-84-31.5T150 500q-8-63-8-150t8-150q7-50 38-84t87-34q51 0 84 31.5t41 86.5q9 63 9 150t-9 150q-7 50-37.5 83.5T275 618z"/><glyph glyph-name="one" unicode="1" d="M262 99v450q0 4-3.5 5.5T253 553L110 394q-5-6-13-4t-8 11v78q0 18 20 41l144 171q9 9 20 9h62q8 0 14-6t6-14V99q0-10 10-10h120q8 0 14-6t6-14V20q0-8-6-14t-14-6H105q-8 0-14 6t-6 14v49q0 8 6 14t14 6h147q10 0 10 10z"/><glyph glyph-name="two" unicode="2" d="M371 517q0 43-28 72t-71 29q-39 0-68.5-30.5T174 517v-15q0-8-6-14t-14-6h-52q-20 0-20 20v15q0 80 55 135.5T272 708t134-55 54-136q0-109-76-197L196 105q-4-5-1.5-10.5T204 89h252q20 0 20-20V20q0-20-20-20H94q-8 0-14 6t-6 14v65q0 16 9 25l226 260q62 71 62 147z"/><glyph glyph-name="three" unicode="3" d="M390 198q0 50-26.5 85.5T277 319h-12q-8 0-14 6t-6 14v53q0 8 6 14t14 6h12q48 0 73 31.5t25 73.5q0 39-28.5 67.5T275 613q-44 0-72.5-28.5T174 517v-15q0-8-6-14t-14-6h-54q-8 0-14 6t-6 14v15q0 80 56.5 135.5T275 708t138.5-55.5T470 517q0-85-58-137-14-12-1-24 74-64 74-158 0-86-61.5-146T275-8q-88 0-149.5 60T64 198v7q0 8 6 14t14 6h55q8 0 14-6t6-14v-7q0-46 32.5-78.5T275 87q50 0 82.5 32.5T390 198z"/><glyph glyph-name="four" unicode="4" d="M434 215h48q8 0 14-6t6-14v-45q0-8-6-14t-14-6h-48q-10 0-10-10V20q0-8-6-14t-14-6h-47q-8 0-14 6t-6 14v100q0 10-10 10H66q-8 0-14 6t-6 14v44q0 12 16 38l259 454q8 14 21 14h62q8 0 14-6t6-14V225q0-10 10-10zM329 541L154 223q-5-8 4-8h169q10 0 10 10v314q0 4-3.5 4.5T329 541z"/><glyph glyph-name="five" unicode="5" d="M434 610H186q-10 0-10-10V450q0-9 6-12t16 4q30 24 76 24 91 0 148.5-69.5T480 229q0-99-56.5-168T274-8q-81 0-142.5 53T70 175q0 20 20 20h51q8 0 14-6t6-14q0-40 33.5-66.5T274 82q54 0 85.5 41T391 229t-31.5 106-85.5 41q-30 0-54-16.5T184 316q-5-11-19-11h-54q-8 0-14 6t-6 14v355q0 8 6 14t14 6h323q8 0 14-6t6-14v-50q0-8-6-14t-14-6z"/><glyph glyph-name="six" unicode="6" d="M281 452q83 0 141-59.5T486 247q2-24 0-52-5-86-63-144.5T281-8q-85 0-142 59T71 200q-7 62-7 150t7 150q10 90 65 149t139 59q80 0 136-55.5T467 517q0-8-6-14t-14-6h-52q-8 0-14 6t-6 14q0 41-26.5 71T275 618q-50 0-76.5-27.5T161 506q-8-39-6-86 0-6 5-8.5t11 1.5q52 39 110 39zM169 194q6-48 35.5-79T281 84t76.5 31 35.5 79q3 29 0 54-6 48-35.5 80T281 360q-48 0-77-29t-35-83q-3-25 0-54z"/><glyph glyph-name="seven" unicode="7" d="M131 24l245 576q4 10-7 10H95q-8 0-14 6t-6 14v50q0 8 6 14t14 6h360q8 0 14-6t6-14v-67q0-9-5-20L228 15q-7-15-19-15h-60q-12 0-16.5 8T131 24z"/><glyph glyph-name="eight" unicode="8" d="M275 84q54 0 89.5 32.5T400 198t-35.5 82.5T275 314q-55 0-90-33.5T150 198t35-81.5T275 84zm0 330q50 0 81 29.5t31 73.5-31 72.5-81 28.5-81-28.5-31-72.5 31-73.5 81-29.5zm1 294q87 0 144.5-55T478 517t-58-137q-13-13-1-24 74-64 74-158 0-87-62.5-146.5T275-8 119.5 51.5 57 198q0 94 74 158 12 11-1 24-57 57-57 137 0 81 57.5 136T276 708z"/><glyph glyph-name="nine" unicode="9" d="M381 506q-6 48-35.5 79T269 616t-76.5-31-35.5-79q-3-29 0-54 6-48 35.5-80t76.5-32q48 0 77 29t35 83q3 25 0 54zM273 82q96 0 121 118 7 34 7 83 0 7-5.5 9t-12.5-3q-51-41-114-41-83 0-141 59.5T64 453q-2 24 0 52 5 86 63 144.5T269 708q85 0 142-59t68-149q7-62 7-150t-7-150q-10-89-66-148.5T273-8q-81 0-142 56T70 183q0 8 6 14t14 6h52q8 0 14-6t6-14q0-38 34.5-69.5T273 82z"/><glyph glyph-name="colon" unicode=":" d="M340 110V20q0-8-6-14t-14-6h-90q-8 0-14 6t-6 14v90q0 8 6 14t14 6h90q8 0 14-6t6-14zm0 360v-90q0-8-6-14t-14-6h-90q-8 0-14 6t-6 14v90q0 8 6 14t14 6h90q8 0 14-6t6-14z"/><glyph glyph-name="semicolon" unicode=";" d="M340 470v-90q0-8-6-14t-14-6h-90q-8 0-14 6t-6 14v90q0 8 6 14t14 6h90q8 0 14-6t6-14zM246 0h-17q-8 0-14 6t-6 14v90q0 8 6 14t14 6h90q8 0 14-6t6-14V20q0-34-20-62l-52-73q-10-15-26-15h-14q-14 0-19 11t1 22l46 84q3 5-.5 9T246 0z"/><glyph glyph-name="less" unicode="&lt;" d="M173 246l267-146q15-9 15-21V19q0-11-7.5-16.5T432 0L70 204q-15 8-15 22v49q0 14 15 22l362 203q7 4 15-2t8-17v-60q0-12-15-21L173 254q-3-1-3-4t3-4z"/><glyph glyph-name="equal" unicode="=" d="M475 296H75q-8 0-14 6t-6 14v52q0 8 6 14t14 6h400q8 0 14-6t6-14v-52q0-8-6-14t-14-6zm0-184H75q-8 0-14 6t-6 14v52q0 8 6 14t14 6h400q8 0 14-6t6-14v-52q0-8-6-14t-14-6z"/><glyph glyph-name="greater" unicode="&gt;" d="M110 100l267 146q8 4 0 8L110 400q-15 9-15 21v60q0 11 8 17t15 2l362-203q15-8 15-22v-49q0-14-15-22L118 0q-7-4-15 2t-8 17v60q0 12 15 21z"/><glyph glyph-name="question" unicode="?" d="M370 517q0 42-26 71.5T274 618q-41 0-68.5-31T178 517v-15q0-8-6-14t-14-6h-51q-8 0-14 6t-6 14v15q0 81 53.5 137T274 710q81 0 134.5-54T462 517q0-42-24-79.5t-52-60-52-49-24-48.5v-70q0-8-6-14t-14-6h-51q-8 0-14 6t-6 14v66.5l.5 18L221 313l3 15 5.5 15.5L237 355q17 20 54.5 46.5t58 52T370 517zm-43-414V20q0-8-6-14t-14-6h-83q-8 0-14 6t-6 14v83q0 8 6 14t14 6h83q8 0 14-6t6-14z"/><glyph glyph-name="at" unicode="@" d="M282 25q57 0 108 23 10 4 17-.5t7-14.5V5q0-3-.5-6T411-6.5t-2.5-4-4-3.5-4.5-3-6-3l-4-3q-38-22-106-22-110 0-180 70T34 203v107q0 114 75 187t175 73q115 0 176.5-63T522 330V192q0-38-27.5-65T429 100q-26 0-41 10-19 12-39 0-27-15-65-15-72 0-103.5 43.5T149 266q0 71 36.5 118t98.5 47q53 0 86-34.5t33-88.5V188q0-22 26-22 10 0 16.5 6t6.5 16v142q0 170-170 170-73 0-123-52.5T109 310V207q0-78 49-130t124-52zm52 192v91q0 23-14 38t-36 15q-40 0-52.5-26.5T219 266q0-50 14.5-75.5T284 165q22 0 36 15t14 37z"/><glyph glyph-name="A" unicode="A" d="M173 168L129 15q-5-15-19-15H55Q44 0 38.5 6T35 20l186 665q3 15 19 15h70q16 0 19-15L515 20q2-8-3.5-14T495 0h-55q-14 0-19 15l-44 153q-3 14-19 14H192q-14 0-19-14zm97 397l-65-279q-3-11 8-11h124q11 0 8 11l-65 279q-2 6-4 6h-2q-2 0-4-6z"/><glyph glyph-name="B" unicode="B" d="M421 379q-14-12 0-22 31-25 51-68t20-85q0-85-61-144.5T282 0H97q-8 0-14 6t-6 14v660q0 8 6 14t14 6h185q82 0 139-53t57-133q0-37-15-74t-42-61zM282 605H182q-10 0-10-10V422q0-10 10-10h100q47 0 74 29t27 73q0 42-30 66.5T282 605zM182 95h100q46 0 80.5 32t34.5 77q0 51-34 84.5T282 322H182q-10 0-10-10V105q0-10 10-10z"/><glyph glyph-name="C" unicode="C" d="M283 87q53 0 91.5 30.5T413 200q0 34 20 34h55q8 0 14-6t6-14q0-92-61-157T283-8q-91 0-152 56T58 200q-8 61-8 150.5T58 500q10 87 70.5 147.5T283 708q99 0 162-60t63-162q0-8-6-14t-14-6h-55q-8 0-14 6t-6 14q0 54-33 90t-97 37q-51 0-87-30t-43-83q-7-62-7-150.5t7-149.5q6-48 40.5-80.5T283 87z"/><glyph glyph-name="D" unicode="D" d="M281 0H91q-8 0-14 6t-6 14v660q0 8 6 14t14 6h190q85 0 142-60t68-150q17-133 0-280-10-89-67.5-149.5T281 0zM176 95h105q44 0 77 34t38 81q8 60 8 140t-8 140q-5 47-38 81t-77 34H176q-10 0-10-10V105q0-10 10-10z"/><glyph glyph-name="E" unicode="E" d="M202 595V415q0-10 10-10h237q8 0 14-6t6-14v-55q0-8-6-14t-14-6H212q-10 0-10-10V105q0-10 10-10h250q8 0 14-6t6-14V20q0-8-6-14t-14-6H127q-8 0-14 6t-6 14v660q0 8 6 14t14 6h333q8 0 14-6t6-14v-55q0-8-6-14t-14-6H212q-10 0-10-10z"/><glyph glyph-name="F" unicode="F" d="M203 300V20q0-8-6-14t-14-6h-55q-8 0-14 6t-6 14v660q0 8 6 14t14 6h333q8 0 14-6t6-14v-55q0-8-6-14t-14-6H213q-10 0-10-10V415q0-10 10-10h237q8 0 14-6t6-14v-55q0-8-6-14t-14-6H213q-10 0-10-10z"/><glyph glyph-name="G" unicode="G" d="M409 200v84q0 10-10 10h-91q-8 0-14 6t-6 14v55q0 8 6 14t14 6h176q8 0 14-6t6-14V200q0-88-63.5-148T279-8q-91 0-152 56T54 200q-8 61-8 150.5T54 500q10 87 70.5 147.5T279 708t159.5-57T504 500v-14q0-8-6-14t-14-6h-55q-8 0-14 6t-6 14v14q0 46-36 79t-94 34q-51 0-87-30t-43-83q-7-62-7-150.5t7-149.5q6-47 40.5-80T279 87t92.5 29 37.5 84z"/><glyph glyph-name="H" unicode="H" d="M155 680V415q0-10 10-10h220q10 0 10 10v265q0 8 6 14t14 6h55q8 0 14-6t6-14V20q0-8-6-14t-14-6h-55q-8 0-14 6t-6 14v280q0 10-10 10H165q-10 0-10-10V20q0-8-6-14t-14-6H80q-8 0-14 6t-6 14v660q0 8 6 14t14 6h55q8 0 14-6t6-14z"/><glyph glyph-name="I" unicode="I" d="M227 98v505q0 10-10 10H107q-8 0-14 6t-6 14v47q0 8 6 14t14 6h335q8 0 14-6t6-14v-47q0-8-6-14t-14-6H332q-10 0-10-10V98q0-10 10-10h120q8 0 14-6t6-14V20q0-8-6-14t-14-6H97q-8 0-14 6t-6 14v48q0 8 6 14t14 6h120q10 0 10 10z"/><glyph glyph-name="J" unicode="J" d="M125 230v-30q0-55 38.5-84T255 87q58 0 94 35.5t36 98.5v459q0 8 6 14t14 6h55q8 0 14-6t6-14V210q0-98-65.5-158T255-8Q156-8 93 48T30 200v30q0 8 6 14t14 6h55q8 0 14-6t6-14z"/><glyph glyph-name="K" unicode="K" d="M178 680V440q0-4 3-4t5 2l194 252q8 10 22 10h55q14 0 19.5-12.5T474 664L246 373q-10-14-1-24L501 37q9-10 3.5-23.5T483 0h-63q-12 0-22 10L186 275q-2 2-5 2t-3-4V20q0-8-6-14t-14-6h-55q-8 0-14 6t-6 14v660q0 8 6 14t14 6h55q8 0 14-6t6-14z"/><glyph glyph-name="L" unicode="L" d="M215 680V105q0-10 10-10h244q8 0 14-6t6-14V20q0-8-6-14t-14-6H140q-8 0-14 6t-6 14v660q0 8 6 14t14 6h55q8 0 14-6t6-14z"/><glyph glyph-name="M" unicode="M" d="M191 683l79-288q1-3 4.5-3.5t5.5 3.5l79 288q6 17 21 17h99q8 0 14-6t6-14V20q0-8-6-14t-14-6h-48q-8 0-14 6t-6 14v522q0 5-4.5 5.5T401 544l-79-277q-5-17-21-17h-52q-16 0-21 17l-79 277q-1 4-5.5 3.5T139 542V20q0-8-6-14t-14-6H71q-8 0-14 6t-6 14v660q0 8 6 14t14 6h99q15 0 21-17z"/><glyph glyph-name="N" unicode="N" d="M485 680V20q0-8-6-14t-14-6h-83q-15 0-21 17L164 512q-2 3-5 2.5t-3-4.5V20q0-8-6-14t-14-6H85q-8 0-14 6t-6 14v660q0 8 6 14t14 6h83q15 0 21-17l197-493q2-3 5-2.5t3 4.5v488q0 8 6 14t14 6h51q8 0 14-6t6-14z"/><glyph glyph-name="O" unicode="O" d="M275 613q-51 0-87-30t-43-83q-7-62-7-150.5t7-149.5q6-47 40.5-80T275 87q51 0 87 30t43 83q9 63 8.5 150T405 500q-6 48-40 80.5T275 613zm0 95q91 0 152-56t73-152q7-62 7-150t-7-150q-10-87-70-147.5T275-8q-91 0-152 56T50 200q-8 61-8 150.5T50 500q10 87 70.5 147.5T275 708z"/><glyph glyph-name="P" unicode="P" d="M195 270V20q0-8-6-14t-14-6h-55q-8 0-14 6t-6 14v660q0 8 6 14t14 6h180q87 0 148.5-61.5T510 490t-61.5-148.5T300 280h-95q-10 0-10-10zm105 335h-95q-10 0-10-10V385q0-10 10-10h95q46 0 80.5 34t34.5 81-34 81-81 34z"/><glyph glyph-name="Q" unicode="Q" d="M275 613q-51 0-87-30t-43-83q-7-62-7-150.5t7-149.5q6-47 40.5-80T275 87q51 0 87 30t43 83q9 63 8.5 150T405 500q-6 48-40 80t-90 33zM436 59q-6-6-3-14l53-107q5-10-.5-19T470-90h-61q-12 0-20 15L352-4q-5 8-24 2-24-6-53-6-91 0-152 56T50 200q-8 61-8 150.5T50 500q10 87 70.5 147.5T275 708q91 0 152-56t73-152q7-62 7-150t-7-150q-9-83-64-141z"/><glyph glyph-name="R" unicode="R" d="M290 605h-95q-10 0-10-10V385q0-10 10-10h95q46 0 80.5 34t34.5 81-34 81-81 34zm-34-325h-61q-10 0-10-10V20q0-8-6-14t-14-6h-55q-8 0-14 6t-6 14v660q0 8 6 14t14 6h180q87 0 148.5-61.5T500 490q0-56-28.5-103.5T396 311q-28-16-17-38L497 30q6-11 .5-20.5T478 0h-56q-19 0-29 20L275 268q-6 12-19 12z"/><glyph glyph-name="S" unicode="S" d="M404 200q0 27-9 47t-19.5 31.5-38 22-43.5 15-58 13.5q-76 17-121.5 64.5T69 520q0 86 62 137t144 51q88 0 146.5-55T480 520v-13q0-8-6-14t-14-6h-55q-8 0-14 6t-6 14v13q0 46-33 69.5T275 613q-49 0-79.5-25.5T165 520q0-18 4-33t15-25.5 18.5-17.5 27-13.5 26.5-9 31-8 28-6.5q185-45 185-207 0-93-67-150.5T275-8q-96 0-160.5 61T50 200v16q0 8 6 14t14 6h56q8 0 14-6t6-14v-16q0-49 36.5-81T275 87t92.5 32.5T404 200z"/><glyph glyph-name="T" unicode="T" d="M218 605H85q-8 0-14 6t-6 14v55q0 8 6 14t14 6h380q8 0 14-6t6-14v-55q0-8-6-14t-14-6H333q-10 0-10-10V20q0-8-6-14t-14-6h-55q-8 0-14 6t-6 14v575q0 10-10 10z"/><glyph glyph-name="U" unicode="U" d="M145 680V200q0-56 38-84.5T275 87q57 0 93.5 32.5T405 200v480q0 8 6 14t14 6h55q8 0 14-6t6-14V200q0-89-66.5-148.5T275-8q-97 0-161 59T50 200v480q0 8 6 14t14 6h55q8 0 14-6t6-14z"/><glyph glyph-name="V" unicode="V" d="M281 152l139 533q4 15 19 15h61q11 0 16-7t3-16L332 15q-4-15-19-15h-78q-15 0-19 15L30 676q-3 8 2.5 16t16.5 8h60q15 0 19-15l139-533q1-6 6-6h2q5 0 6 6z"/><glyph glyph-name="W" unicode="W" d="M324 485l54-305q1-4 6-4t6 4l45 505q1 15 19 15h49q22 0 20-20L451 15q-1-15-19-15h-91q-17 0-19 15l-42 302q-1 6-4 3l-2-3-56-302q-3-15-19-15h-91Q90 0 89 15L26 680q-2 20 20 20h49q18 0 19-15l41-505q1-4 6-4t6 4l61 305q3 15 19 15h58q16 0 19-15z"/><glyph glyph-name="X" unicode="X" d="M270 263L146 15q-7-15-21-15H59Q49 0 43.5 9T43 28l171 334q5 8 1 14L58 672q-5 10 .5 19t15.5 9h64q12 0 19-15l113-217q4-10 8 0l113 217q7 15 19 15h64q10 0 15.5-9t.5-19L333 376q-4-6 1-14L506 28q5-10-.5-19T490 0h-68q-13 0-20 15L278 263q-4 10-8 0z"/><glyph glyph-name="Y" unicode="Y" d="M280 374l111 311q5 15 19 15h66q10 0 15-8.5t1-19.5L324 241V20q0-8-6-14t-14-6h-56q-8 0-14 6t-6 14v220L58 672q-4 11 1 19.5t15 8.5h66q14 0 19-15l113-311q4-10 8 0z"/><glyph glyph-name="Z" unicode="Z" d="M465 592L175 103q-6-10 6-10h279q8 0 14-6t6-14V20q0-8-6-14t-14-6H88q-8 0-14 6t-6 14v75q0 8 5 16l294 487q6 10-6 10H98q-8 0-14 6t-6 14v52q0 8 6 14t14 6h352q8 0 14-6t6-14v-72q0-8-5-16z"/><glyph glyph-name="bracketleft" unicode="[" d="M291 623V7q0-10 10-10h125q8 0 14-6t6-14v-47q0-8-6-14t-14-6H224q-8 0-14 6t-6 14v770q0 8 6 14t14 6h200q8 0 14-6t6-14v-47q0-8-6-14t-14-6H301q-10 0-10-10z"/><glyph glyph-name="backslash" unicode="\" d="M363 3L99 682q-4 11 1 19.5t15 8.5h52q14 0 19-15L452 16q4-11-1-19.5T436-12h-52q-16 0-21 15z"/><glyph glyph-name="bracketright" unicode="]" d="M259 7v616q0 10-10 10H126q-8 0-14 6t-6 14v47q0 8 6 14t14 6h200q8 0 14-6t6-14V-70q0-8-6-14t-14-6H124q-8 0-14 6t-6 14v47q0 8 6 14t14 6h125q10 0 10 10z"/><glyph glyph-name="asciicircum" unicode="^" d="M267 650l-50-49q-16-16-31-16h-59q-9 0-12.5 8.5T116 606l108 112q12 12 30 12h42q17 0 29-12l108-112q5-4 1.5-12.5T422 585h-59q-15 0-31 16l-51 49q-7 7-14 0z"/><glyph glyph-name="underscore" unicode="_" d="M30 0h490q8 0 14-6t6-14v-35q0-8-6-14t-14-6H30q-8 0-14 6t-6 14v35q0 8 6 14t14 6z"/><glyph glyph-name="grave" unicode="`" d="M190 730h79q15 0 26-16l76-109q4-6-.5-13t-13.5-7h-40q-18 0-30 12L179 709q-5 5-1.5 13t12.5 8z"/><glyph glyph-name="a" unicode="a" d="M379 220H249q-75 0-75-69 0-37 23-57.5T263 73q67 0 96.5 26t29.5 79v32q0 10-10 10zm-91 204q-15 0-29-2.5t-29.5-8-25-17.5-9.5-29-23-17h-45q-20 0-20 20 0 65 55.5 102.5T288 510q79 0 131-40.5T471 350V20q0-8-6-14t-14-6h-34q-8 0-14 7-1 2-5 8.5t-7 9.5-8 3q-6 0-20-9.5t-39.5-19T266-10q-88 0-135 46T84 150q0 65 44.5 108.5T249 302h122q10 0 10 10v33q0 39-26 59t-67 20z"/><glyph glyph-name="b" unicode="b" d="M287 80q50 0 81 29t34 71q5 70 0 140-3 42-34 71t-81 29-81-29-34-71q-5-70 0-140 3-42 34-71t81-29zm10-90q-43 0-73 16.5T185 23q-11 0-25-16-7-7-14-7h-34q-8 0-14 6t-6 14v667q0 8 6 14t14 6h50q8 0 14-6t6-14V510q0-25 22-25 7 0 37 12.5t56 12.5q77 0 130.5-55T487 320q5-70 0-140-6-80-59.5-135T297-10z"/><glyph glyph-name="c" unicode="c" d="M280 80q45 0 73.5 23.5T382 163q0 17 19 17h52q8 0 14-6t6-14q0-73-54.5-121.5T280-10q-87 0-140.5 54T80 180q-5 70 0 140 6 82 59.5 136T280 510q84 0 138.5-48.5T473 340q0-20-17-20h-54q-19 0-19 16 0 36-28.5 60T280 420q-49 0-78-29t-32-71q-5-70 0-140 3-42 32-71t78-29z"/><glyph glyph-name="d" unicode="d" d="M264 80q50 0 81 29t34 71q5 70 0 140-3 42-34 71t-81 29-81-29-34-71q-5-70 0-140 3-42 34-71t81-29zm-10-90q-77 0-130.5 55T64 180q-5 70 0 140 6 80 59.5 135T254 510q26 0 56-12.5t37-12.5q22 0 22 25v177q0 8 6 14t14 6h50q8 0 14-6t6-14V20q0-8-6-14t-14-6h-34q-7 0-14 7-14 16-25 16-9 0-39-16.5T254-10z"/><glyph glyph-name="e" unicode="e" d="M163 211q0-66 31-98.5T279 80q38 0 66 17.5t37 45.5q5 17 23 17h51q20 0 17-20-9-66-63-108T279-10q-87 0-143 54.5T74 180q-5 70 0 140 6 81 62 135.5T279 510q91 0 145.5-53.5T479 310v-69q0-8-6-14t-14-6H173q-10 0-10-10zm2 100q0-10 10-10h208q10 0 10 10 0 50-32.5 79.5T280 420q-51 0-83-31t-32-78z"/><glyph glyph-name="f" unicode="f" d="M201 405H76q-8 0-14 6t-6 14v50q0 8 6 14t14 6h125q10 0 10 10v15q0 79 53 133t132 54h60q8 0 14-6t6-14v-47q0-8-6-14t-14-6h-60q-39 0-67-30.5T301 520v-15q0-10 10-10h162q8 0 14-6t6-14v-50q0-8-6-14t-14-6H311q-10 0-10-10V20q0-8-6-14t-14-6h-50q-8 0-14 6t-6 14v375q0 10-10 10z"/><glyph glyph-name="g" unicode="g" d="M410 500h34q8 0 14-6t6-14V-30q0-74-52.5-127T281-210q-70 0-121 36T99-73q-3 23 18 23h48q13 0 17.5-4t7.5-13q0-1 .5-1.5t.5-1.5q20-50 90-50 39 0 66 25t27 65v22q0 25-22 23-6 0-36-12.5T259-10q-77 0-130.5 55T69 180q-5 70 0 140 6 80 59.5 135T259 510q43 0 73-16.5t39-16.5q11 0 25 16 7 7 14 7zm-141-80q-50 0-81-29t-34-71q-5-70 0-140 3-42 34-71t81-29 81 29 34 71q5 70 0 140-3 42-34 71t-81 29z"/><glyph glyph-name="h" unicode="h" d="M158 0h-50q-8 0-14 6t-6 14v667q0 8 6 14t14 6h50q8 0 14-6t6-14V506q0-8 6-14.5t16-6.5q7 0 36.5 12.5T292 510q79 0 134.5-55.5T482 320V20q0-8-6-14t-14-6h-50q-8 0-14 6t-6 14v300q0 40-31 70t-76 30q-46 0-76.5-27.5T178 325V20q0-8-6-14t-14-6z"/><glyph glyph-name="i" unicode="i" d="M346 691v-69q0-16-16-16h-68q-16 0-16 16v69q0 6 4.5 11t11.5 5h68q7 0 11.5-5t4.5-11zM241 415H120q-8 0-14 6t-6 14v45q0 8 6 14t14 6h203q8 0 14-6t6-14V95q0-10 10-10h127q8 0 14-6t6-14V20q0-8-6-14t-14-6H110q-8 0-14 6t-6 14v45q0 8 6 14t14 6h131q10 0 10 10v310q0 10-10 10z"/><glyph glyph-name="j" unicode="j" d="M417 691v-69q0-16-16-16h-68q-16 0-16 16v69q0 6 4.5 11t11.5 5h68q7 0 11.5-5t4.5-11zm-4-211V-47q0-66-47-114.5T253-210t-113 47T93-50q0 8 6 14t14 6h50q8 0 14-6t6-14q0-29 18.5-49.5T253-120q32 0 49.5 21.5T320-47v452q0 10-10 10H165q-8 0-14 6t-6 14v45q0 8 6 14t14 6h228q8 0 14-6t6-14z"/><glyph glyph-name="k" unicode="k" d="M391 15L218 181q-2 2-5 1t-3-5V20q0-8-6-14t-14-6h-50q-8 0-14 6t-6 14v667q0 8 6 14t14 6h50q8 0 14-6t6-14V341q0-10 8-4l163 150q13 13 28 13h54q15 0 19.5-13t-3.5-20L274 274q-13-13 0-24L500 33q10-9 4-21T484 0h-63q-15 0-30 15z"/><glyph glyph-name="l" unicode="l" d="M236 624H131q-8 0-14 6t-6 14v43q0 8 6 14t14 6h185q8 0 14-6t6-14V95q0-10 10-10h113q8 0 14-6t6-14V20q0-8-6-14t-14-6H111q-8 0-14 6t-6 14v45q0 8 6 14t14 6h125q10 0 10 10v519q0 10-10 10z"/><glyph glyph-name="m" unicode="m" d="M290 474q29 36 88 36 30 0 53-9.5t36.5-24T489 442t11-38 3-37V20q0-8-6-14t-14-6h-50q-8 0-14 6t-6 14v347q0 20-13.5 34T367 415t-33-14-14-34V20q0-8-6-14t-14-6h-50q-8 0-14 6t-6 14v347q0 20-13.5 34T184 415t-33-14-14-34V20q0-8-6-14t-14-6H67q-8 0-14 6t-6 14v460q0 8 6 14t14 6h34q7 0 14-7 6-8 13-8 1 0 21.5 12.5T198 510q45 0 71-36 4-6 10-6 7 0 11 6z"/><glyph glyph-name="n" unicode="n" d="M183 477q9 0 38 16.5t69 16.5q80 0 135-54t55-136V20q0-8-6-14t-14-6h-50q-8 0-14 6t-6 14v300q0 43-31.5 71.5T280 420t-78.5-26-31.5-69V20q0-8-6-14t-14-6h-50q-8 0-14 6t-6 14v460q0 8 6 14t14 6h44q7 0 14-7 14-16 25-16z"/><glyph glyph-name="o" unicode="o" d="M275 510q87 0 143-54.5T480 320q5-70 0-140-6-81-62-135.5T275-10 132 44.5 70 180q-5 70 0 140 6 81 62 135.5T275 510zm0-430q50 0 81 29t34 71q5 70 0 140-3 42-34 71t-81 29-81-29-34-71q-5-70 0-140 3-42 34-71t81-29z"/><glyph glyph-name="p" unicode="p" d="M281 420q-50 0-81-29t-34-71q-5-70 0-140 3-42 34-71t81-29 81 29 34 71q5 70 0 140-3 42-34 71t-81 29zm10 90q77 0 130.5-55T481 320q5-70 0-140-6-80-59.5-135T291-10q-26 0-56 12.5T198 15q-22 0-22-25v-170q0-8-6-14t-14-6h-50q-8 0-14 6t-6 14v660q0 8 6 14t14 6h34q7 0 14-7 14-16 25-16 9 0 39 16.5t73 16.5z"/><glyph glyph-name="q" unicode="q" d="M269 420q-50 0-81-29t-34-71q-5-70 0-140 3-42 34-71t81-29 81 29 34 71q5 70 0 140-3 42-34 71t-81 29zm-10 90q43 0 73-16.5t39-16.5q11 0 25 16 7 7 14 7h34q8 0 14-6t6-14v-660q0-8-6-14t-14-6h-50q-8 0-14 6t-6 14v170q0 25-22 25-7 0-37-12.5T259-10q-77 0-130.5 55T69 180q-5 70 0 140 6 80 59.5 135T259 510z"/><glyph glyph-name="r" unicode="r" d="M413 340q0 35-28 57.5T315 420q-49 0-84.5-26.5T195 325V20q0-8-6-14t-14-6h-50q-8 0-14 6t-6 14v460q0 8 6 14t14 6h44q7 0 14-7 14-16 25-16 9 0 41.5 16.5T325 510q74 0 126.5-49T504 340q0-8-6-14t-14-6h-51q-8 0-14 6t-6 14z"/><glyph glyph-name="s" unicode="s" d="M77 163q0 8 6 14t14 6h50q8 0 14-6t6-14q0-87 108-87 107 0 107 74 0 30-26.5 44T275 219q-34 7-51.5 11.5t-46.5 16-44 25-27 38T94 365q0 65 54.5 105T275 510t125-41 53-109q0-8-6-14t-14-6h-50q-8 0-14 6t-6 14q0 28-22 46.5T275 425q-43 0-65.5-18T187 365q0-25 22-36.5t66-19.5q27-5 38.5-7t37-9 38-13.5 31.5-19 28.5-27 16.5-36 7-47.5q0-76-57-118T275-10 134.5 33.5 77 163z"/><glyph glyph-name="t" unicode="t" d="M270 395V150q0-28 20-49t50-21 50 21 20 49q0 8 6 14t14 6h50q8 0 14-6t6-14q0-66-47-113T340-10 227 37t-47 113v245q0 10-10 10H70q-8 0-14 6t-6 14v50q0 8 6 14t14 6h100q10 0 10 10v155q0 8 6 14t14 6h50q8 0 14-6t6-14V505q0-10 10-10h160q8 0 14-6t6-14v-50q0-8-6-14t-14-6H280q-10 0-10-10z"/><glyph glyph-name="u" unicode="u" d="M372 23q-9 0-36.5-16.5T265-10q-84 0-137 53.5T75 180v300q0 8 6 14t14 6h50q8 0 14-6t6-14V180q0-44 29.5-72T275 80q47 0 78.5 26t31.5 69v305q0 8 6 14t14 6h50q8 0 14-6t6-14V20q0-8-6-14t-14-6h-44q-7 0-14 7-14 16-25 16z"/><glyph glyph-name="v" unicode="v" d="M282 152l116 333q5 15 19 15h62q11 0 16.5-7.5T498 477L322 15q-6-15-19-15h-55q-13 0-19 15L52 477q-3 8 2.5 15.5T71 500h62q14 0 19-15l116-333q2-5 7-5t7 5z"/><glyph glyph-name="w" unicode="w" d="M257 390h36q15 0 19-15l50-188q2-6 7-6t7 6l45 298q3 15 19 15h49q11 0 16-7t3-16L423 15q-3-15-19-15h-55q-15 0-19 15l-49 195q-1 5-6 5t-6-5L220 15q-4-15-19-15h-55q-16 0-19 15L42 477q-2 9 3 16t16 7h49q16 0 19-15l45-298q1-6 6.5-6t7.5 6l50 188q4 15 19 15z"/><glyph glyph-name="x" unicode="x" d="M271 180L170 10q-6-10-22-10H90Q76 0 71 10.5T74 33l141 224q4 7 1 13L91 467q-8 12-3 22.5t19 10.5h56q16 0 22-10l86-145q4-8 8 0l86 145q6 10 22 10h56q14 0 19-10.5t-3-22.5L334 270q-3-6 1-13L476 33q8-12 3-22.5T460 0h-58q-16 0-22 10L279 180q-4 8-8 0z"/><glyph glyph-name="y" unicode="y" d="M283 160l116 325q5 15 19 15h59q11 0 16.5-7.5T496 477L242-185q-5-15-19-15h-54q-11 0-16.5 7.5T150-177l74 204q3 8 1 13L53 477q-3 8 2.5 15.5T72 500h61q14 0 19-15l123-325q4-10 8 0z"/><glyph glyph-name="z" unicode="z" d="M88 110l263 294q3 4 1.5 7t-6.5 3H105q-8 0-14 6t-6 14v46q0 8 6 14t14 6h340q8 0 14-6t6-14v-57q0-17-20-41L193 96q-3-4-1.5-7t6.5-3h257q8 0 14-6t6-14V20q0-8-6-14t-14-6H95q-8 0-14 6t-6 14v59q0 16 13 31z"/><glyph glyph-name="braceleft" unicode="{" d="M161 120v135q0 12-18 20l-11 5q-20 8-20 20v40q0 12 20 20l11 5q18 8 18 20v125q0 87 55 148.5T366 720h42q8 0 14-6t6-14v-48q0-8-6-14t-14-6h-42q-50 0-82.5-33.5T251 510V385q0-40-41-65 41-25 41-65V120q0-55 32.5-88.5T366-2h52q8 0 14-6t6-14v-48q0-8-6-14t-14-6h-52q-95 0-150 61.5T161 120z"/><glyph glyph-name="bar" unicode="|" d="M317 700V-50q0-8-6-14t-14-6h-45q-8 0-14 6t-6 14v750q0 8 6 14t14 6h45q8 0 14-6t6-14z"/><glyph glyph-name="braceright" unicode="}" d="M389 255V120q0-87-55-148.5T184-90h-52q-8 0-14 6t-6 14v48q0 8 6 14t14 6h52q50 0 82.5 33.5T299 120v135q0 40 41 65-41 25-41 65v125q0 55-32.5 88.5T184 632h-42q-8 0-14 6t-6 14v48q0 8 6 14t14 6h42q95 0 150-61.5T389 510V385q0-12 18-20l11-5q20-8 20-20v-40q0-12-20-20l-11-5q-18-8-18-20z"/><glyph glyph-name="asciitilde" unicode="~" d="M161 235q-17 0-35.5-8T99 209q-5-6-12-8t-12 3-5 14v50q0 27 26.5 44t64.5 17q52 0 112.5-22.5T389 284q17 0 35.5 8t26.5 18q5 6 12 8t12-3 5-14v-50q0-27-26.5-44T389 190q-51 0-112 22.5T161 235z"/><glyph glyph-name="exclamdown" unicode="¡" d="M321 290v-470q0-8-6-14t-14-6h-56q-8 0-14 6t-6 14v470q0 8 6 14t14 6h56q8 0 14-6t6-14zm14 190v-83q0-8-6-14t-14-6h-83q-8 0-14 6t-6 14v83q0 8 6 14t14 6h83q8 0 14-6t6-14z"/><glyph glyph-name="cent" unicode="¢" d="M335-4q-10-3-10-10v-36q0-8-6-14t-14-6h-45q-8 0-14 6t-6 14v35q0 7-10 10-66 15-105.5 65.5T80 180q-5 70 0 140 5 69 44.5 119T229 504q11 3 11 10v36q0 8 6 14t14 6h45q8 0 14-6t6-14v-36q0-7 10-10 63-15 100.5-59.5T473 340q0-20-17-20h-54q-19 0-19 16 0 36-28.5 60T280 420q-49 0-78-29t-32-71q-5-70 0-140 3-42 32-71t78-29q45 0 73.5 23.5T382 163q0 17 19 17h52q8 0 14-6t6-14q0-60-37.5-104.5T335-4z"/><glyph glyph-name="sterling" unicode="£" d="M487 540v-10q0-8-6-14t-14-6h-54q-8 0-14 6t-6 14v10q0 32-22 53.5T317 615t-53-21.5-21-53.5V413q0-10 10-10h136q8 0 14-6t6-14v-51q0-8-6-14t-14-6H253q-10 0-10-12v-90q0-82-24-107-3-3-2-5.5t6-2.5h254q8 0 14-6t6-14V20q0-8-6-14t-14-6H73q-9 0-15 6t-6 14v55q0 8 6 14t14 6h5q31 0 51 31.5t20 83.5v90q0 12-10 12H81q-8 0-14 6t-6 14v51q0 8 6 14t14 6h57q10 0 10 10v127q0 71 49.5 120.5T317 710q71 0 120.5-50T487 540z"/><glyph glyph-name="currency" unicode="¤" d="M277 524q63 0 117-35l74 73q14 14 27-1l37-37q15-13 1-27l-74-73q34-55 34-116 0-65-36-118l75-74q13-13 0-28l-37-37q-15-13-28 0l-75 74q-53-33-115-33-63 0-116 33L86 50q-14-14-27 1L22 88q-15 13-1 27l75 75q-35 54-35 118 0 63 33 115l-72 73q-13 13 0 28l37 37q15 13 28 0l72-72q54 35 118 35zM151 308q0-52 36.5-89t89.5-37 89.5 37 36.5 89-36.5 89-89.5 37-89.5-37-36.5-89z"/><glyph glyph-name="yen" unicode="¥" d="M455 364h-76q-7 0-9-5l-13-37q-4-12 7-12h91q8 0 14-6t6-14v-43q0-8-6-14t-14-6H334q-10 0-10-10V20q0-8-6-14t-14-6h-56q-8 0-14 6t-6 14v197q0 10-10 10H95q-8 0-14 6t-6 14v43q0 8 6 14t14 6h92q11 0 7 12l-13 37q-2 5-9 5H95q-8 0-14 6t-6 14v44q0 8 6 14t14 6h39q11 0 7 12L58 672q-4 11 1 19.5t15 8.5h66q14 0 19-15l113-311q4-10 8 0l111 311q5 15 19 15h66q10 0 15-8.5t1-19.5l-82-212q-4-12 7-12h38q8 0 14-6t6-14v-44q0-8-6-14t-14-6z"/><glyph glyph-name="brokenbar" unicode="¦" d="M318 687V420q0-8-6-14t-14-6h-46q-8 0-14 6t-6 14v267q0 8 6 14t14 6h46q8 0 14-6t6-14zm0-400V20q0-8-6-14t-14-6h-46q-8 0-14 6t-6 14v267q0 8 6 14t14 6h46q8 0 14-6t6-14z"/><glyph glyph-name="section" unicode="§" d="M186 242l150-126q10-8 20 0 41 33 41 68 0 33-30 58L216 372q-10 8-20 0-41-36-41-71 0-32 31-59zm-51 185q13 9 2 23-32 44-32 93 0 73 54 117t125 44q75 0 124.5-45.5T458 538v-18q0-8-6-14t-14-6h-54q-8 0-14 6t-6 14v18q0 32-22 53t-58 21q-35 0-57-17t-22-48q0-44 33-71l189-162q38-32 50.5-61.5T490 181q0-75-69-128-12-9-1-23 27-34 27-87 0-71-54-114t-125-43q-76 0-127 43T90-49v29q0 8 6 14t14 6h54q8 0 14-6t6-14v-29q0-74 84-74 78 0 78 66 0 33-37 65L137 156q-46 40-61 73t-15 76q0 67 74 122z"/><glyph glyph-name="dieresis" unicode="¨" d="M239 691v-69q0-16-16-16h-68q-16 0-16 16v69q0 6 4.5 11t11.5 5h68q7 0 11.5-5t4.5-11zm171 0v-69q0-16-16-16h-68q-16 0-16 16v69q0 6 4.5 11t11.5 5h68q7 0 11.5-5t4.5-11z"/><glyph glyph-name="copyright" unicode="©" d="M18 350q0 106 75 181t182 75 181.5-75T531 350q0-107-75-182T275 93q-107 0-182 75.5T18 350zm65 0q0-80 56-136t136-56 135.5 56T466 350t-56 135.5T275 541q-80 0-136-55.5T83 350zm290-45q0-44-25.5-72T275 205q-116 0-102 173 7 111 102 111 47 0 72.5-28t25.5-72q0-11-9-11h-40q-11 0-11 8 0 21-11 34t-27 13q-54 0-44-117 2-24 13.5-39.5T275 261q15 0 26 13t11 33q0 9 12 9h37q12 0 12-11z"/><glyph glyph-name="ordfeminine" unicode="ª" d="M252 558h-55q-37 0-37-28 0-27 44-27 21 0 37 10.5t16 30.5v9q0 5-5 5zm-40 97q-43 0-43-19 0-8-11-8h-37q-10 0-10 10 0 33 29.5 51.5T212 708q41 0 71-23.5t30-66.5V463q0-10-10-10h-27q-4 0-7 3-8 11-10 11-1 0-21-9.5t-42-9.5q-45 0-70.5 23T100 528t22.5 58.5T187 611h61q5 0 5 5v9q0 30-41 30z"/><glyph glyph-name="guillemotleft" unicode="«" d="M115 274l96 161q9 15 25 15h45q15 0 20-9t-4-24l-85-145q-8-11 0-24l85-145q9-15 4-24t-20-9h-45q-16 0-25 15l-96 161q-9 14 0 28zm178 0l96 161q9 15 25 15h45q15 0 20-9t-4-24l-85-145q-8-11 0-24l85-145q9-15 4-24t-20-9h-45q-16 0-25 15l-96 161q-9 14 0 28z"/><glyph glyph-name="logicalnot" unicode="¬" d="M390 110v90q0 10-10 10H70q-8 0-14 6t-6 14v50q0 8 6 14t14 6h390q8 0 14-6t6-14V110q0-8-6-14t-14-6h-50q-8 0-14 6t-6 14z"/><glyph glyph-name="registered" unicode="®" d="M19 350q0 106 75 181t182 75q106 0 181-75t75-181q0-107-75-182T276 93 94.5 168.5 19 350zm65 0q0-80 56-136t136-56 135.5 56T467 350t-55.5 135.5T276 541t-136-55.5T84 350zm213 80h-50q-6 0-6-6v-54q0-4 6-4h50q15 0 23.5 9.5T329 398t-8.5 22.5T297 430zm45-106q-10-6-10.5-6.5t.5-9.5l43-76q4-6 1-11t-10-5h-32q-10 0-16 11l-41 76q-3 7-9 7h-21q-6 0-6-5v-78q0-11-10-11h-35q-9 0-9 11v247q0 11 9 11h101q36 0 61-25.5t25-61.5q0-48-41-74z"/><glyph glyph-name="macron" unicode="¯" d="M396 616H154q-8 0-14 6t-6 14v38q0 8 6 14t14 6h242q8 0 14-6t6-14v-38q0-8-6-14t-14-6z"/><glyph glyph-name="degree" unicode="°" d="M76 585q0 62 43.5 105T225 733q61 0 104.5-43.5T373 585q0-62-43-105.5T225 436t-105.5 43.5T76 585zm81 0q0-28 20-48t48-20 48 20 20 48-20 48-48 20-48-20-20-48z"/><glyph glyph-name="plusminus" unicode="±" d="M75 464h144q10 0 10 10v144q0 8 6 14t14 6h52q8 0 14-6t6-14V474q0-10 10-10h144q8 0 14-6t6-14v-52q0-8-6-14t-14-6H331q-10 0-10-10V218q0-8-6-14t-14-6h-52q-8 0-14 6t-6 14v144q0 10-10 10H75q-8 0-14 6t-6 14v52q0 8 6 14t14 6zm3-372h394q8 0 14-6t6-14V20q0-8-6-14t-14-6H78q-8 0-14 6t-6 14v52q0 8 6 14t14 6z"/><glyph glyph-name="twosuperior" unicode="²" d="M312 596q0 14-9 23.5t-24 9.5q-39 0-39-33v-9q0-10-10-10h-53q-10 0-10 10v8q0 45 32.5 76t77.5 31 76.5-31 31.5-76q0-37-29-68l-94-97q-3-2-2-6.5t7-4.5h107q10 0 10-10v-53q0-10-10-10H174q-10 0-10 10v66q0 8 4 12l134 139q10 10 10 23z"/><glyph glyph-name="threesuperior" unicode="³" d="M315 451q0 18-11.5 27.5T275 488h-6q-10 0-10 10v52q0 10 10 10h6q16 0 26 9t10 26q0 16-10 25t-26 9-26-9-10-25v-8q0-10-10-10h-53q-10 0-10 10v8q0 44 32.5 75.5T275 702q45 0 77-31.5t32-75.5q0-35-26-65-5-5 0-8 30-24 30-71 0-46-33-78.5T275 340t-80 32.5-33 78.5v6q0 10 10 10h53q10 0 10-10v-6q0-38 40-38t40 38z"/><glyph glyph-name="acute" unicode="´" d="M280 730h79q9 0 12.5-8t-1.5-13L262 597q-12-12-30-12h-40q-9 0-13.5 7t-.5 13l76 109q11 16 26 16z"/><glyph glyph-name="uni00B5" unicode="µ" d="M265-10q-35 0-78 29-7 5-15.5 1.5T163 6v-186q0-8-6-14t-14-6H95q-8 0-14 6t-6 14v660q0 8 6 14t14 6h50q8 0 14-6t6-14V180q0-43 31.5-71.5T275 80t78.5 26 31.5 69v305q0 8 6 14t14 6h50q8 0 14-6t6-14V20q0-8-6-14t-14-6h-44q-7 0-18.5 11.5T372 23 335.5 6.5 265-10z"/><glyph glyph-name="paragraph" unicode="¶" d="M210 360q-66 0-113 50.5T50 530q0 70 50 120t120 50h240q8 0 14-6t6-14V-80q0-8-6-14t-14-6h-40q-8 0-14 6t-6 14v695q0 10-10 10h-80q-10 0-10-10V-80q0-8-6-14t-14-6h-40q-8 0-14 6t-6 14v430q0 10-10 10z"/><glyph glyph-name="periodcentered" unicode="·" d="M365 335V195q0-8-6-14t-14-6H205q-8 0-14 6t-6 14v140q0 8 6 14t14 6h140q8 0 14-6t6-14z"/><glyph glyph-name="cedilla" unicode="¸" d="M338-63l-28-121q-4-16-19-16h-63q-9 0-13.5 5.5T212-182l38 121q4 16 19 16h53q20 0 16-18z"/><glyph glyph-name="onesuperior" unicode="¹" d="M247 424v166q0 5-4.5 6.5T236 595l-58-52q-5-5-12-1.5t-7 11.5v50q0 14 8 22l54 57q14 14 29 14h62q10 0 10-10V424q0-5 5-5h54q10 0 10-10v-53q0-10-10-10H172q-10 0-10 10v53q0 10 10 10h70q5 0 5 5z"/><glyph glyph-name="ordmasculine" unicode="º" d="M215 648q-68 0-55-98 3-19 18-30.5t37-11.5q36 0 49 27t6 67q-8 46-55 46zm0 63q52 0 87.5-42T330 552q-6-49-40-78t-75-29q-52 0-88.5 43.5T100 603q7 52 40.5 80t74.5 28z"/><glyph glyph-name="guillemotright" unicode="»" d="M339 435l96-161q9-14 0-28L339 85q-9-15-25-15h-45q-15 0-20 9t4 24l85 145q8 13 0 24l-85 145q-9 15-4 24t20 9h45q16 0 25-15zm-178 0l96-161q9-14 0-28L161 85q-9-15-25-15H91q-15 0-20 9t4 24l85 145q8 13 0 24L75 417q-9 15-4 24t20 9h45q16 0 25-15z"/><glyph glyph-name="onequarter" unicode="¼" d="M460 672L134 15q-8-15-21-15H86Q76 0 70.5 9T70 28l324 657q8 15 22 15h28q10 0 15.5-9t.5-19zm20-542h17q10 0 10-10V72q0-10-10-10h-17q-5 0-5-5V10q0-10-10-10h-51q-10 0-10 10v47q0 5-5 5H285q-10 0-10 10v59q0 6 8 20l112 192q3 7 10 7h60q10 0 10-10V135q0-5 5-5zm-82 100l-50-94q-4-6 4-6h47q5 0 5 5v93q0 3-2 3.5t-4-1.5zM121 360v234q0 5-4.5 6.5T110 599l-58-52q-5-5-12-1.5T33 557v50q0 14 8 22l54 57q14 14 29 14h62q10 0 10-10V360q0-10-10-10h-55q-10 0-10 10z"/><glyph glyph-name="onehalf" unicode="½" d="M121 360v234q0 5-4.5 6.5T110 599l-58-52q-5-5-12-1.5T33 557v50q0 14 8 22l54 57q14 14 29 14h62q10 0 10-10V360q0-10-10-10h-55q-10 0-10 10zm340-110q0 14-9 23.5t-24 9.5q-39 0-39-33v-9q0-10-10-10h-53q-10 0-10 10v8q0 45 32.5 76t77.5 31 76.5-31 31.5-76q0-37-29-68l-94-97q-3-2-2-6.5t7-4.5h107q10 0 10-10V10q0-10-10-10H323q-10 0-10 10v66q0 8 4 12l134 139q10 10 10 23zm-1 422L134 15q-8-15-21-15H86Q76 0 70.5 9T70 28l324 657q8 15 22 15h28q10 0 15.5-9t.5-19z"/><glyph glyph-name="threequarters" unicode="¾" d="M480 672L154 15q-8-15-21-15h-27Q96 0 90.5 9T90 28l324 657q8 15 22 15h28q10 0 15.5-9t.5-19zM176 458q0 18-11.5 27.5T136 495h-6q-10 0-10 10v52q0 10 10 10h6q16 0 26 9t10 26q0 16-10 25t-26 9-26-9-10-25v-8q0-10-10-10H37q-10 0-10 10v8q0 44 32.5 75.5T136 709q45 0 77-31.5t32-75.5q0-35-26-65-5-5 0-8 30-24 30-71 0-46-33-78.5T136 347t-80 32.5T23 458v6q0 10 10 10h53q10 0 10-10v-6q0-38 40-38t40 38zm324-328h17q10 0 10-10V72q0-10-10-10h-17q-5 0-5-5V10q0-10-10-10h-51q-10 0-10 10v47q0 5-5 5H305q-10 0-10 10v59q0 6 8 20l112 192q3 7 10 7h60q10 0 10-10V135q0-5 5-5zm-82 100l-50-94q-4-6 4-6h47q5 0 5 5v93q0 3-2 3.5t-4-1.5z"/><glyph glyph-name="questiondown" unicode="¿" d="M179-7q0-42 26-71.5t70-29.5q41 0 68.5 31T371-7V8q0 8 6 14t14 6h51q8 0 14-6t6-14V-7q0-81-53.5-137T275-200q-81 0-134.5 54T87-7q0 93 89 161 5 4 17 12.5t18 13 13.5 12.5 11 17.5T239 230v70q0 8 6 14t14 6h51q8 0 14-6t6-14v-84q0-40-18-61-19-22-49.5-43T220 79q-41-41-41-86zm43 414v83q0 8 6 14t14 6h83q8 0 14-6t6-14v-83q0-8-6-14t-14-6h-83q-8 0-14 6t-6 14z"/><glyph glyph-name="Agrave" unicode="À" d="M173 168L129 15q-5-15-19-15H55Q44 0 38.5 6T35 20l186 665q3 15 19 15h70q16 0 19-15L515 20q2-8-3.5-14T495 0h-55q-14 0-19 15l-44 153q-3 14-19 14H192q-14 0-19-14zm97 397l-65-279q-3-11 8-11h124q11 0 8 11l-65 279q-2 6-4 6h-2q-2 0-4-6zM140 895h79q15 0 26-16l76-109q4-6-.5-13t-13.5-7h-40q-18 0-30 12L129 874q-5 4-1.5 12.5T140 895z"/><glyph glyph-name="Aacute" unicode="Á" d="M173 168L129 15q-5-15-19-15H55Q44 0 38.5 6T35 20l186 665q3 15 19 15h70q16 0 19-15L515 20q2-8-3.5-14T495 0h-55q-14 0-19 15l-44 153q-3 14-19 14H192q-14 0-19-14zm97 397l-65-279q-3-11 8-11h124q11 0 8 11l-65 279q-2 6-4 6h-2q-2 0-4-6zm60 330h79q9 0 12.5-8.5T420 874L312 762q-12-12-30-12h-40q-9 0-13.5 7t-.5 13l76 109q11 16 26 16z"/><glyph glyph-name="Acircumflex" unicode="Â" d="M173 168L129 15q-5-15-19-15H55Q44 0 38.5 6T35 20l186 665q3 15 19 15h70q16 0 19-15L515 20q2-8-3.5-14T495 0h-55q-14 0-19 15l-44 153q-3 14-19 14H192q-14 0-19-14zm97 397l-65-279q-3-11 8-11h124q11 0 8 11l-65 279q-2 6-4 6h-2q-2 0-4-6zm-3 250l-50-49q-16-16-31-16h-59q-9 0-12.5 8t1.5 13l108 112q12 12 30 12h42q17 0 29-12l108-112q5-5 1.5-13t-12.5-8h-59q-15 0-31 16l-51 49q-7 7-14 0z"/><glyph glyph-name="Atilde" unicode="Ã" d="M173 168L129 15q-5-15-19-15H55Q44 0 38.5 6T35 20l186 665q3 15 19 15h70q16 0 19-15L515 20q2-8-3.5-14T495 0h-55q-14 0-19 15l-44 153q-3 14-19 14H192q-14 0-19-14zm97 397l-65-279q-3-11 8-11h124q11 0 8 11l-65 279q-2 6-4 6h-2q-2 0-4-6zm75 276q29 0 46 21 6 8 15.5 4t9.5-18v-40q0-20-21-35.5T345 757q-31 0-68 12.5T205 782q-28 0-46-21-6-8-15.5-3.5T134 775v40q0 20 21 35.5t50 15.5q31 0 68-12.5t72-12.5z"/><glyph glyph-name="Adieresis" unicode="Ä" d="M173 168L129 15q-5-15-19-15H55Q44 0 38.5 6T35 20l186 665q3 15 19 15h70q16 0 19-15L515 20q2-8-3.5-14T495 0h-55q-14 0-19 15l-44 153q-3 14-19 14H192q-14 0-19-14zm97 397l-65-279q-3-11 8-11h124q11 0 8 11l-65 279q-2 6-4 6h-2q-2 0-4-6zm-31 270v-69q0-16-16-16h-68q-16 0-16 16v69q0 6 4.5 11t11.5 5h68q7 0 11.5-5t4.5-11zm171 0v-69q0-16-16-16h-68q-16 0-16 16v69q0 6 4.5 11t11.5 5h68q7 0 11.5-5t4.5-11z"/><glyph glyph-name="Aring" unicode="Å" d="M173 168L129 15q-5-15-19-15H55Q44 0 38.5 6T35 20l186 665q3 15 19 15h70q16 0 19-15L515 20q2-8-3.5-14T495 0h-55q-14 0-19 15l-44 153q-3 14-19 14H192q-14 0-19-14zm97 397l-65-279q-3-11 8-11h124q11 0 8 11l-65 279q-2 6-4 6h-2q-2 0-4-6zM165 840q0 46 32 78t78 32 78-32 32-78-32-78-78-32-78 32-32 78zm70 0q0-17 11.5-28.5T275 800t28.5 11.5T315 840t-11.5 28.5T275 880t-28.5-11.5T235 840z"/><glyph glyph-name="AE" unicode="Æ" d="M288 20v146q0 16-19 16H168q-13 0-16-14L108 15Q105 0 89 0H34Q23 0 17.5 6T14 20l183 654q2 9 11 17.5t23 8.5h280q8 0 14-6t6-14v-55q0-8-6-14t-14-6H393q-10 0-10-10V415q0-10 10-10h107q8 0 14-6t6-14v-55q0-8-6-14t-14-6H393q-10 0-10-10V105q0-10 10-10h120q8 0 14-6t6-14V20q0-8-6-14t-14-6H308q-8 0-14 6t-6 14zm-96 255h86q10 0 10 11v309q0 10-10 10h-3q-11 0-13-10l-78-309q-3-11 8-11z"/><glyph glyph-name="Ccedilla" unicode="Ç" d="M283 87q53 0 91.5 30.5T413 200q0 34 20 34h55q8 0 14-6t6-14q0-92-61-157T283-8q-91 0-152 56T58 200q-8 61-8 150.5T58 500q10 87 70.5 147.5T283 708q99 0 162-60t63-162q0-8-6-14t-14-6h-55q-8 0-14 6t-6 14q0 54-33 90t-97 37q-51 0-87-30t-43-83q-7-62-7-150.5t7-149.5q6-48 40.5-80.5T283 87zm55-150l-28-121q-4-16-19-16h-63q-9 0-13.5 5.5T212-182l38 121q4 16 19 16h53q20 0 16-18z"/><glyph glyph-name="Egrave" unicode="È" d="M202 595V415q0-10 10-10h237q8 0 14-6t6-14v-55q0-8-6-14t-14-6H212q-10 0-10-10V105q0-10 10-10h250q8 0 14-6t6-14V20q0-8-6-14t-14-6H127q-8 0-14 6t-6 14v660q0 8 6 14t14 6h333q8 0 14-6t6-14v-55q0-8-6-14t-14-6H212q-10 0-10-10zm-42 300h79q15 0 26-16l76-109q4-6-.5-13t-13.5-7h-40q-18 0-30 12L149 874q-5 4-1.5 12.5T160 895z"/><glyph glyph-name="Eacute" unicode="É" d="M202 595V415q0-10 10-10h237q8 0 14-6t6-14v-55q0-8-6-14t-14-6H212q-10 0-10-10V105q0-10 10-10h250q8 0 14-6t6-14V20q0-8-6-14t-14-6H127q-8 0-14 6t-6 14v660q0 8 6 14t14 6h333q8 0 14-6t6-14v-55q0-8-6-14t-14-6H212q-10 0-10-10zm138 300h79q9 0 12.5-8.5T430 874L322 762q-12-12-30-12h-40q-9 0-13.5 7t-.5 13l76 109q11 16 26 16z"/><glyph glyph-name="Ecircumflex" unicode="Ê" d="M202 595V415q0-10 10-10h237q8 0 14-6t6-14v-55q0-8-6-14t-14-6H212q-10 0-10-10V105q0-10 10-10h250q8 0 14-6t6-14V20q0-8-6-14t-14-6H127q-8 0-14 6t-6 14v660q0 8 6 14t14 6h333q8 0 14-6t6-14v-55q0-8-6-14t-14-6H212q-10 0-10-10zm85 220l-50-49q-16-16-31-16h-59q-9 0-12.5 8t1.5 13l108 112q12 12 30 12h42q17 0 29-12l108-112q5-5 1.5-13t-12.5-8h-59q-15 0-31 16l-51 49q-7 7-14 0z"/><glyph glyph-name="Edieresis" unicode="Ë" d="M202 595V415q0-10 10-10h237q8 0 14-6t6-14v-55q0-8-6-14t-14-6H212q-10 0-10-10V105q0-10 10-10h250q8 0 14-6t6-14V20q0-8-6-14t-14-6H127q-8 0-14 6t-6 14v660q0 8 6 14t14 6h333q8 0 14-6t6-14v-55q0-8-6-14t-14-6H212q-10 0-10-10zm57 240v-69q0-16-16-16h-68q-16 0-16 16v69q0 6 4.5 11t11.5 5h68q7 0 11.5-5t4.5-11zm171 0v-69q0-16-16-16h-68q-16 0-16 16v69q0 6 4.5 11t11.5 5h68q7 0 11.5-5t4.5-11z"/><glyph glyph-name="Igrave" unicode="Ì" d="M227 98v505q0 10-10 10H107q-8 0-14 6t-6 14v47q0 8 6 14t14 6h335q8 0 14-6t6-14v-47q0-8-6-14t-14-6H332q-10 0-10-10V98q0-10 10-10h120q8 0 14-6t6-14V20q0-8-6-14t-14-6H97q-8 0-14 6t-6 14v48q0 8 6 14t14 6h120q10 0 10 10zm-87 797h79q15 0 26-16l76-109q4-6-.5-13t-13.5-7h-40q-18 0-30 12L129 874q-5 4-1.5 12.5T140 895z"/><glyph glyph-name="Iacute" unicode="Í" d="M227 98v505q0 10-10 10H107q-8 0-14 6t-6 14v47q0 8 6 14t14 6h335q8 0 14-6t6-14v-47q0-8-6-14t-14-6H332q-10 0-10-10V98q0-10 10-10h120q8 0 14-6t6-14V20q0-8-6-14t-14-6H97q-8 0-14 6t-6 14v48q0 8 6 14t14 6h120q10 0 10 10zm103 797h79q9 0 12.5-8.5T420 874L312 762q-12-12-30-12h-40q-9 0-13.5 7t-.5 13l76 109q11 16 26 16z"/><glyph glyph-name="Icircumflex" unicode="Î" d="M227 98v505q0 10-10 10H107q-8 0-14 6t-6 14v47q0 8 6 14t14 6h335q8 0 14-6t6-14v-47q0-8-6-14t-14-6H332q-10 0-10-10V98q0-10 10-10h120q8 0 14-6t6-14V20q0-8-6-14t-14-6H97q-8 0-14 6t-6 14v48q0 8 6 14t14 6h120q10 0 10 10zm40 717l-50-49q-16-16-31-16h-59q-9 0-12.5 8t1.5 13l108 112q12 12 30 12h42q17 0 29-12l108-112q5-5 1.5-13t-12.5-8h-59q-15 0-31 16l-51 49q-7 7-14 0z"/><glyph glyph-name="Idieresis" unicode="Ï" d="M227 98v505q0 10-10 10H107q-8 0-14 6t-6 14v47q0 8 6 14t14 6h335q8 0 14-6t6-14v-47q0-8-6-14t-14-6H332q-10 0-10-10V98q0-10 10-10h120q8 0 14-6t6-14V20q0-8-6-14t-14-6H97q-8 0-14 6t-6 14v48q0 8 6 14t14 6h120q10 0 10 10zm12 737v-69q0-16-16-16h-68q-16 0-16 16v69q0 6 4.5 11t11.5 5h68q7 0 11.5-5t4.5-11zm171 0v-69q0-16-16-16h-68q-16 0-16 16v69q0 6 4.5 11t11.5 5h68q7 0 11.5-5t4.5-11z"/><glyph glyph-name="Eth" unicode="Ð" d="M71 415v265q0 8 6 14t14 6h190q85 0 142-60t68-150q17-133 0-280-10-89-67.5-149.5T281 0H91q-8 0-14 6t-6 14v280q0 10-10 10H29q-8 0-14 6t-6 14v55q0 8 6 14t14 6h32q10 0 10 10zm95 180V415q0-10 10-10h100q8 0 14-6t6-14v-55q0-8-6-14t-14-6H176q-10 0-10-10V105q0-10 10-10h105q44 0 77 34t38 81q8 60 8 140t-8 140q-5 47-38 81t-77 34H176q-10 0-10-10z"/><glyph glyph-name="Ntilde" unicode="Ñ" d="M485 680V20q0-8-6-14t-14-6h-83q-15 0-21 17L164 512q-2 3-5 2.5t-3-4.5V20q0-8-6-14t-14-6H85q-8 0-14 6t-6 14v660q0 8 6 14t14 6h83q15 0 21-17l197-493q2-3 5-2.5t3 4.5v488q0 8 6 14t14 6h51q8 0 14-6t6-14zM345 841q29 0 46 21 6 8 15.5 4t9.5-18v-40q0-20-21-35.5T345 757q-31 0-68 12.5T205 782q-28 0-46-21-6-8-15.5-3.5T134 775v40q0 20 21 35.5t50 15.5q31 0 68-12.5t72-12.5z"/><glyph glyph-name="Ograve" unicode="Ò" d="M275 613q-51 0-87-30t-43-83q-7-62-7-150.5t7-149.5q6-47 40.5-80T275 87q51 0 87 30t43 83q9 63 8.5 150T405 500q-6 48-40 80.5T275 613zm0 95q91 0 152-56t73-152q7-62 7-150t-7-150q-10-87-70-147.5T275-8q-91 0-152 56T50 200q-8 61-8 150.5T50 500q10 87 70.5 147.5T275 708zM140 895h79q15 0 26-16l76-109q4-6-.5-13t-13.5-7h-40q-18 0-30 12L129 874q-5 4-1.5 12.5T140 895z"/><glyph glyph-name="Oacute" unicode="Ó" d="M275 613q-51 0-87-30t-43-83q-7-62-7-150.5t7-149.5q6-47 40.5-80T275 87q51 0 87 30t43 83q9 63 8.5 150T405 500q-6 48-40 80.5T275 613zm0 95q91 0 152-56t73-152q7-62 7-150t-7-150q-10-87-70-147.5T275-8q-91 0-152 56T50 200q-8 61-8 150.5T50 500q10 87 70.5 147.5T275 708zm55 187h79q9 0 12.5-8.5T420 874L312 762q-12-12-30-12h-40q-9 0-13.5 7t-.5 13l76 109q11 16 26 16z"/><glyph glyph-name="Ocircumflex" unicode="Ô" d="M275 613q-51 0-87-30t-43-83q-7-62-7-150.5t7-149.5q6-47 40.5-80T275 87q51 0 87 30t43 83q9 63 8.5 150T405 500q-6 48-40 80.5T275 613zm0 95q91 0 152-56t73-152q7-62 7-150t-7-150q-10-87-70-147.5T275-8q-91 0-152 56T50 200q-8 61-8 150.5T50 500q10 87 70.5 147.5T275 708zm-8 107l-50-49q-16-16-31-16h-59q-9 0-12.5 8t1.5 13l108 112q12 12 30 12h42q17 0 29-12l108-112q5-5 1.5-13t-12.5-8h-59q-15 0-31 16l-51 49q-7 7-14 0z"/><glyph glyph-name="Otilde" unicode="Õ" d="M275 613q-51 0-87-30t-43-83q-7-62-7-150.5t7-149.5q6-47 40.5-80T275 87q51 0 87 30t43 83q9 63 8.5 150T405 500q-6 48-40 80.5T275 613zm0 95q91 0 152-56t73-152q7-62 7-150t-7-150q-10-87-70-147.5T275-8q-91 0-152 56T50 200q-8 61-8 150.5T50 500q10 87 70.5 147.5T275 708zm70 133q29 0 46 21 6 8 15.5 4t9.5-18v-40q0-20-21-35.5T345 757q-31 0-68 12.5T205 782q-28 0-46-21-6-8-15.5-3.5T134 775v40q0 20 21 35.5t50 15.5q31 0 68-12.5t72-12.5z"/><glyph glyph-name="Odieresis" unicode="Ö" d="M275 613q-51 0-87-30t-43-83q-7-62-7-150.5t7-149.5q6-47 40.5-80T275 87q51 0 87 30t43 83q9 63 8.5 150T405 500q-6 48-40 80.5T275 613zm0 95q91 0 152-56t73-152q7-62 7-150t-7-150q-10-87-70-147.5T275-8q-91 0-152 56T50 200q-8 61-8 150.5T50 500q10 87 70.5 147.5T275 708zm-36 127v-69q0-16-16-16h-68q-16 0-16 16v69q0 6 4.5 11t11.5 5h68q7 0 11.5-5t4.5-11zm171 0v-69q0-16-16-16h-68q-16 0-16 16v69q0 6 4.5 11t11.5 5h68q7 0 11.5-5t4.5-11z"/><glyph glyph-name="multiply" unicode="×" d="M86 131l112 112q7 7 0 14L85 370q-14 14 0 28l37 37q14 14 28 0l113-113q7-7 14 0l112 112q14 14 28 0l37-37q14-14 0-28L342 257q-7-7 0-14l113-113q14-14 0-28l-37-37q-14-14-28 0L277 178q-7 7-14 0L151 66q-14-14-28 0l-37 37q-14 14 0 28z"/><glyph glyph-name="Oslash" unicode="Ø" d="M275 613q-51 0-87-30t-43-83q-16-128-3-276 0-6 2.5-7.5t7.5 5.5l210 350q9 14-23 27.5T275 613zm0-526q51 0 86.5 30t43.5 83q18 120 3 275 0 2-1 3.5t-3.5 1-4.5-4.5L193 128q-9-18 21.5-29.5T275 87zM123 15q-9-15-21-15H50Q40 0 34 9t0 19l41 66q6 9 0 18-25 54-31.5 175T50 500q10 87 70.5 147.5T275 708q78 0 134-41 6-6 11 2l11 16q9 15 19 15h52q10 0 16-9.5t0-18.5l-45-71q-3-5 0-11 22-42 30-116 12-140-3-274-10-87-70-147.5T275-8q-76 0-132 39-7 4-11-2z"/><glyph glyph-name="Ugrave" unicode="Ù" d="M145 680V200q0-56 38-84.5T275 87q57 0 93.5 32.5T405 200v480q0 8 6 14t14 6h55q8 0 14-6t6-14V200q0-89-66.5-148.5T275-8q-97 0-161 59T50 200v480q0 8 6 14t14 6h55q8 0 14-6t6-14zm-5 215h79q15 0 26-16l76-109q4-6-.5-13t-13.5-7h-40q-18 0-30 12L129 874q-5 4-1.5 12.5T140 895z"/><glyph glyph-name="Uacute" unicode="Ú" d="M145 680V200q0-56 38-84.5T275 87q57 0 93.5 32.5T405 200v480q0 8 6 14t14 6h55q8 0 14-6t6-14V200q0-89-66.5-148.5T275-8q-97 0-161 59T50 200v480q0 8 6 14t14 6h55q8 0 14-6t6-14zm185 215h79q9 0 12.5-8.5T420 874L312 762q-12-12-30-12h-40q-9 0-13.5 7t-.5 13l76 109q11 16 26 16z"/><glyph glyph-name="Ucircumflex" unicode="Û" d="M145 680V200q0-56 38-84.5T275 87q57 0 93.5 32.5T405 200v480q0 8 6 14t14 6h55q8 0 14-6t6-14V200q0-89-66.5-148.5T275-8q-97 0-161 59T50 200v480q0 8 6 14t14 6h55q8 0 14-6t6-14zm122 135l-50-49q-16-16-31-16h-59q-9 0-12.5 8t1.5 13l108 112q12 12 30 12h42q17 0 29-12l108-112q5-5 1.5-13t-12.5-8h-59q-15 0-31 16l-51 49q-7 7-14 0z"/><glyph glyph-name="Udieresis" unicode="Ü" d="M145 680V200q0-56 38-84.5T275 87q57 0 93.5 32.5T405 200v480q0 8 6 14t14 6h55q8 0 14-6t6-14V200q0-89-66.5-148.5T275-8q-97 0-161 59T50 200v480q0 8 6 14t14 6h55q8 0 14-6t6-14zm94 155v-69q0-16-16-16h-68q-16 0-16 16v69q0 6 4.5 11t11.5 5h68q7 0 11.5-5t4.5-11zm171 0v-69q0-16-16-16h-68q-16 0-16 16v69q0 6 4.5 11t11.5 5h68q7 0 11.5-5t4.5-11z"/><glyph glyph-name="Yacute" unicode="Ý" d="M280 374l111 311q5 15 19 15h66q10 0 15-8.5t1-19.5L324 241V20q0-8-6-14t-14-6h-56q-8 0-14 6t-6 14v220L58 672q-4 11 1 19.5t15 8.5h66q14 0 19-15l113-311q4-10 8 0zm50 521h79q9 0 12.5-8.5T420 874L312 762q-12-12-30-12h-40q-9 0-13.5 7t-.5 13l76 109q11 16 26 16z"/><glyph glyph-name="Thorn" unicode="Þ" d="M395 330v50q0 47-34 81t-81 34h-85q-10 0-10-10V225q0-10 10-10h85q47 0 81 34t34 81zm95 50v-50q0-87-61.5-148.5T280 120h-85q-10 0-10-10V20q0-8-6-14t-14-6h-55q-8 0-14 6t-6 14v660q0 8 6 14t14 6h55q8 0 14-6t6-14v-80q0-10 10-10h85q87 0 148.5-61.5T490 380z"/><glyph glyph-name="germandbls" unicode="ß" d="M71 20v497q0 80 57.5 136.5T268 710t138.5-56.5T463 517q0-79-58-137-13-13-1-24 74-64 74-158 0-85-61-141.5T268 0h-20q-8 0-14 6t-6 14v50q0 8 6 14t14 6h20q51 0 85.5 31.5T388 198q0 49-29 86t-89 37h-12q-8 0-14 6t-6 14v49q0 8 6 14t14 6h12q49 0 76 31t27 76q0 43-29 73t-76 30-76-30-29-73V20q0-8-6-14t-14-6H91q-8 0-14 6t-6 14z"/><glyph glyph-name="agrave" unicode="à" d="M379 220H249q-75 0-75-69 0-37 23-57.5T263 73q67 0 96.5 26t29.5 79v32q0 10-10 10zm-91 204q-15 0-29-2.5t-29.5-8-25-17.5-9.5-29-23-17h-45q-20 0-20 20 0 65 55.5 102.5T288 510q79 0 131-40.5T471 350V20q0-8-6-14t-14-6h-34q-8 0-14 7-1 2-5 8.5t-7 9.5-8 3q-6 0-20-9.5t-39.5-19T266-10q-88 0-135 46T84 150q0 65 44.5 108.5T249 302h122q10 0 10 10v33q0 39-26 59t-67 20zM160 730h79q15 0 26-16l76-109q4-6-.5-13t-13.5-7h-40q-18 0-30 12L149 709q-5 5-1.5 13t12.5 8z"/><glyph glyph-name="aacute" unicode="á" d="M379 220H249q-75 0-75-69 0-37 23-57.5T263 73q67 0 96.5 26t29.5 79v32q0 10-10 10zm-91 204q-15 0-29-2.5t-29.5-8-25-17.5-9.5-29-23-17h-45q-20 0-20 20 0 65 55.5 102.5T288 510q79 0 131-40.5T471 350V20q0-8-6-14t-14-6h-34q-8 0-14 7-1 2-5 8.5t-7 9.5-8 3q-6 0-20-9.5t-39.5-19T266-10q-88 0-135 46T84 150q0 65 44.5 108.5T249 302h122q10 0 10 10v33q0 39-26 59t-67 20zm62 306h79q9 0 12.5-8t-1.5-13L332 597q-12-12-30-12h-40q-9 0-13.5 7t-.5 13l76 109q11 16 26 16z"/><glyph glyph-name="acircumflex" unicode="â" d="M379 220H249q-75 0-75-69 0-37 23-57.5T263 73q67 0 96.5 26t29.5 79v32q0 10-10 10zm-91 204q-15 0-29-2.5t-29.5-8-25-17.5-9.5-29-23-17h-45q-20 0-20 20 0 65 55.5 102.5T288 510q79 0 131-40.5T471 350V20q0-8-6-14t-14-6h-34q-8 0-14 7-1 2-5 8.5t-7 9.5-8 3q-6 0-20-9.5t-39.5-19T266-10q-88 0-135 46T84 150q0 65 44.5 108.5T249 302h122q10 0 10 10v33q0 39-26 59t-67 20zm-1 226l-50-49q-16-16-31-16h-59q-9 0-12.5 8.5T136 606l108 112q12 12 30 12h42q17 0 29-12l108-112q5-4 1.5-12.5T442 585h-59q-15 0-31 16l-51 49q-7 7-14 0z"/><glyph glyph-name="atilde" unicode="ã" d="M379 220H249q-75 0-75-69 0-37 23-57.5T263 73q67 0 96.5 26t29.5 79v32q0 10-10 10zm-91 204q-15 0-29-2.5t-29.5-8-25-17.5-9.5-29-23-17h-45q-20 0-20 20 0 65 55.5 102.5T288 510q79 0 131-40.5T471 350V20q0-8-6-14t-14-6h-34q-8 0-14 7-1 2-5 8.5t-7 9.5-8 3q-6 0-20-9.5t-39.5-19T266-10q-88 0-135 46T84 150q0 65 44.5 108.5T249 302h122q10 0 10 10v33q0 39-26 59t-67 20zm77 260q29 0 46 21 6 8 15.5 4t9.5-18v-40q0-20-21-35.5T365 600q-31 0-68 12.5T225 625q-28 0-46-21-6-8-15.5-3.5T154 618v40q0 20 21 35.5t50 15.5q31 0 68-12.5t72-12.5z"/><glyph glyph-name="adieresis" unicode="ä" d="M379 220H249q-75 0-75-69 0-37 23-57.5T263 73q67 0 96.5 26t29.5 79v32q0 10-10 10zm-91 204q-15 0-29-2.5t-29.5-8-25-17.5-9.5-29-23-17h-45q-20 0-20 20 0 65 55.5 102.5T288 510q79 0 131-40.5T471 350V20q0-8-6-14t-14-6h-34q-8 0-14 7-1 2-5 8.5t-7 9.5-8 3q-6 0-20-9.5t-39.5-19T266-10q-88 0-135 46T84 150q0 65 44.5 108.5T249 302h122q10 0 10 10v33q0 39-26 59t-67 20zm-29 267v-69q0-16-16-16h-68q-16 0-16 16v69q0 6 4.5 11t11.5 5h68q7 0 11.5-5t4.5-11zm171 0v-69q0-16-16-16h-68q-16 0-16 16v69q0 6 4.5 11t11.5 5h68q7 0 11.5-5t4.5-11z"/><glyph glyph-name="aring" unicode="å" d="M379 220H249q-75 0-75-69 0-37 23-57.5T263 73q67 0 96.5 26t29.5 79v32q0 10-10 10zm-91 204q-15 0-29-2.5t-29.5-8-25-17.5-9.5-29-23-17h-45q-20 0-20 20 0 65 55.5 102.5T288 510q79 0 131-40.5T471 350V20q0-8-6-14t-14-6h-34q-8 0-14 7-1 2-5 8.5t-7 9.5-8 3q-6 0-20-9.5t-39.5-19T266-10q-88 0-135 46T84 150q0 65 44.5 108.5T249 302h122q10 0 10 10v33q0 39-26 59t-67 20zM186 670q0 46 32 78t78 32 78-32 32-78-32-78-78-32-78 32-32 78zm70 0q0-17 11.5-28.5T296 630t28.5 11.5T336 670t-11.5 28.5T296 710t-28.5-11.5T256 670z"/><glyph glyph-name="ae" unicode="æ" d="M290 21q-19 13-38-1-41-30-84-30-76 0-111.5 45T21 150q0 65 39.5 108T170 301h43q10 0 10 10v54q0 26-14 42.5T172 424t-36.5-17-13.5-40q0-17-23-17H54q-20 0-20 20 0 58 36 99t97 41q62 0 96-39 5-7 14-7t16 7q38 39 92 39 67 0 106-62.5T530 290v-49q0-8-6-14t-14-6H324q-10 0-10-10 0-136 71-136 23 0 39.5 21t18.5 47q1 17 23 17h41q17 0 17-20 0-58-39.5-104T385-10q-50 0-95 31zm-69 200h-52q-58 0-58-70 0-37 15.5-57.5T170 73q61 0 61 105v33q0 10-10 10zm95 90q0-10 10-10h108q10 0 10 10 0 51-16.5 82.5T386 425q-35 0-52.5-32.5T316 311z"/><glyph glyph-name="ccedilla" unicode="ç" d="M280 80q45 0 73.5 23.5T382 163q0 17 19 17h52q8 0 14-6t6-14q0-73-54.5-121.5T280-10q-87 0-140.5 54T80 180q-5 70 0 140 6 82 59.5 136T280 510q84 0 138.5-48.5T473 340q0-20-17-20h-54q-19 0-19 16 0 36-28.5 60T280 420q-49 0-78-29t-32-71q-5-70 0-140 3-42 32-71t78-29zm58-143l-28-121q-4-16-19-16h-63q-9 0-13.5 5.5T212-182l38 121q4 16 19 16h53q20 0 16-18z"/><glyph glyph-name="egrave" unicode="è" d="M163 211q0-66 31-98.5T279 80q38 0 66 17.5t37 45.5q5 17 23 17h51q20 0 17-20-9-66-63-108T279-10q-87 0-143 54.5T74 180q-5 70 0 140 6 81 62 135.5T279 510q91 0 145.5-53.5T479 310v-69q0-8-6-14t-14-6H173q-10 0-10-10zm2 100q0-10 10-10h208q10 0 10 10 0 50-32.5 79.5T280 420q-51 0-83-31t-32-78zm-25 419h79q15 0 26-16l76-109q4-6-.5-13t-13.5-7h-40q-18 0-30 12L129 709q-5 5-1.5 13t12.5 8z"/><glyph glyph-name="eacute" unicode="é" d="M163 211q0-66 31-98.5T279 80q38 0 66 17.5t37 45.5q5 17 23 17h51q20 0 17-20-9-66-63-108T279-10q-87 0-143 54.5T74 180q-5 70 0 140 6 81 62 135.5T279 510q91 0 145.5-53.5T479 310v-69q0-8-6-14t-14-6H173q-10 0-10-10zm2 100q0-10 10-10h208q10 0 10 10 0 50-32.5 79.5T280 420q-51 0-83-31t-32-78zm165 419h79q9 0 12.5-8t-1.5-13L312 597q-12-12-30-12h-40q-9 0-13.5 7t-.5 13l76 109q11 16 26 16z"/><glyph glyph-name="ecircumflex" unicode="ê" d="M163 211q0-66 31-98.5T279 80q38 0 66 17.5t37 45.5q5 17 23 17h51q20 0 17-20-9-66-63-108T279-10q-87 0-143 54.5T74 180q-5 70 0 140 6 81 62 135.5T279 510q91 0 145.5-53.5T479 310v-69q0-8-6-14t-14-6H173q-10 0-10-10zm2 100q0-10 10-10h208q10 0 10 10 0 50-32.5 79.5T280 420q-51 0-83-31t-32-78zm112 339l-50-49q-16-16-31-16h-59q-9 0-12.5 8.5T126 606l108 112q12 12 30 12h42q17 0 29-12l108-112q5-4 1.5-12.5T432 585h-59q-15 0-31 16l-51 49q-7 7-14 0z"/><glyph glyph-name="edieresis" unicode="ë" d="M163 211q0-66 31-98.5T279 80q38 0 66 17.5t37 45.5q5 17 23 17h51q20 0 17-20-9-66-63-108T279-10q-87 0-143 54.5T74 180q-5 70 0 140 6 81 62 135.5T279 510q91 0 145.5-53.5T479 310v-69q0-8-6-14t-14-6H173q-10 0-10-10zm2 100q0-10 10-10h208q10 0 10 10 0 50-32.5 79.5T280 420q-51 0-83-31t-32-78zm80 380v-69q0-16-16-16h-68q-16 0-16 16v69q0 6 4.5 11t11.5 5h68q7 0 11.5-5t4.5-11zm171 0v-69q0-16-16-16h-68q-16 0-16 16v69q0 6 4.5 11t11.5 5h68q7 0 11.5-5t4.5-11z"/><glyph glyph-name="igrave" unicode="ì" d="M140 730h79q15 0 26-16l76-109q4-6-.5-13t-13.5-7h-40q-18 0-30 12L129 709q-5 5-1.5 13t12.5 8zm101-315H120q-8 0-14 6t-6 14v45q0 8 6 14t14 6h203q8 0 14-6t6-14V95q0-10 10-10h127q8 0 14-6t6-14V20q0-8-6-14t-14-6H110q-8 0-14 6t-6 14v45q0 8 6 14t14 6h131q10 0 10 10v310q0 10-10 10z"/><glyph glyph-name="iacute" unicode="í" d="M330 730h79q9 0 12.5-8t-1.5-13L312 597q-12-12-30-12h-40q-9 0-13.5 7t-.5 13l76 109q11 16 26 16zm-89-315H120q-8 0-14 6t-6 14v45q0 8 6 14t14 6h203q8 0 14-6t6-14V95q0-10 10-10h127q8 0 14-6t6-14V20q0-8-6-14t-14-6H110q-8 0-14 6t-6 14v45q0 8 6 14t14 6h131q10 0 10 10v310q0 10-10 10z"/><glyph glyph-name="icircumflex" unicode="î" d="M241 415H120q-8 0-14 6t-6 14v45q0 8 6 14t14 6h203q8 0 14-6t6-14V95q0-10 10-10h127q8 0 14-6t6-14V20q0-8-6-14t-14-6H110q-8 0-14 6t-6 14v45q0 8 6 14t14 6h131q10 0 10 10v310q0 10-10 10zm46 235l-50-49q-16-16-31-16h-59q-9 0-12.5 8.5T136 606l108 112q12 12 30 12h42q17 0 29-12l108-112q5-4 1.5-12.5T442 585h-59q-15 0-31 16l-51 49q-7 7-14 0z"/><glyph glyph-name="idieresis" unicode="ï" d="M259 691v-69q0-16-16-16h-68q-16 0-16 16v69q0 6 4.5 11t11.5 5h68q7 0 11.5-5t4.5-11zm171 0v-69q0-16-16-16h-68q-16 0-16 16v69q0 6 4.5 11t11.5 5h68q7 0 11.5-5t4.5-11zM241 415H120q-8 0-14 6t-6 14v45q0 8 6 14t14 6h203q8 0 14-6t6-14V95q0-10 10-10h127q8 0 14-6t6-14V20q0-8-6-14t-14-6H110q-8 0-14 6t-6 14v45q0 8 6 14t14 6h131q10 0 10 10v310q0 10-10 10z"/><glyph glyph-name="eth" unicode="ð" d="M261 370q-62 0-89.5-38T144 238q-2-39 4.5-71.5t35-59.5T261 80q50 0 81 29t34 71q5 28 1.5 61.5t-11.5 62-35 47.5-70 19zm91 293q5-2 9 1l71 41q8 5 16.5.5T457 691v-41q0-16-13-24l-31-19q-8-6-5-10 35-68 50.5-179t5.5-211q-11-97-59.5-157T261-10q-87 0-143 54.5T56 180q-4 39-2 65 0 90 56.5 152.5T261 460q45 0 87-24 4-2 6.5-2t3.5 1.5 1 4.5q-7 61-25 96-7 14-12 9l-73-41q-8-5-18-1t-10 15v31q0 14 5.5 20t33.5 20q19 10-14 18-14 3-26 3h-36q-8 0-14 6t-6 14v50q0 8 6 14t14 6h36q81 0 132-37z"/><glyph glyph-name="ntilde" unicode="ñ" d="M183 477q9 0 38 16.5t69 16.5q80 0 135-54t55-136V20q0-8-6-14t-14-6h-50q-8 0-14 6t-6 14v300q0 43-31.5 71.5T280 420t-78.5-26-31.5-69V20q0-8-6-14t-14-6h-50q-8 0-14 6t-6 14v460q0 8 6 14t14 6h44q7 0 14-7 14-16 25-16zm168 207q29 0 46 21 6 8 15.5 4t9.5-18v-40q0-20-21-35.5T351 600q-31 0-68 12.5T211 625q-28 0-46-21-6-8-15.5-3.5T140 618v40q0 20 21 35.5t50 15.5q31 0 68-12.5t72-12.5z"/><glyph glyph-name="ograve" unicode="ò" d="M275 510q87 0 143-54.5T480 320q5-70 0-140-6-81-62-135.5T275-10 132 44.5 70 180q-5 70 0 140 6 81 62 135.5T275 510zm0-430q50 0 81 29t34 71q5 70 0 140-3 42-34 71t-81 29-81-29-34-71q-5-70 0-140 3-42 34-71t81-29zM140 730h79q15 0 26-16l76-109q4-6-.5-13t-13.5-7h-40q-18 0-30 12L129 709q-5 5-1.5 13t12.5 8z"/><glyph glyph-name="oacute" unicode="ó" d="M275 510q87 0 143-54.5T480 320q5-70 0-140-6-81-62-135.5T275-10 132 44.5 70 180q-5 70 0 140 6 81 62 135.5T275 510zm0-430q50 0 81 29t34 71q5 70 0 140-3 42-34 71t-81 29-81-29-34-71q-5-70 0-140 3-42 34-71t81-29zm55 650h79q9 0 12.5-8t-1.5-13L312 597q-12-12-30-12h-40q-9 0-13.5 7t-.5 13l76 109q11 16 26 16z"/><glyph glyph-name="ocircumflex" unicode="ô" d="M275 510q87 0 143-54.5T480 320q5-70 0-140-6-81-62-135.5T275-10 132 44.5 70 180q-5 70 0 140 6 81 62 135.5T275 510zm0-430q50 0 81 29t34 71q5 70 0 140-3 42-34 71t-81 29-81-29-34-71q-5-70 0-140 3-42 34-71t81-29zm-8 570l-50-49q-16-16-31-16h-59q-9 0-12.5 8.5T116 606l108 112q12 12 30 12h42q17 0 29-12l108-112q5-4 1.5-12.5T422 585h-59q-15 0-31 16l-51 49q-7 7-14 0z"/><glyph glyph-name="otilde" unicode="õ" d="M275 510q87 0 143-54.5T480 320q5-70 0-140-6-81-62-135.5T275-10 132 44.5 70 180q-5 70 0 140 6 81 62 135.5T275 510zm0-430q50 0 81 29t34 71q5 70 0 140-3 42-34 71t-81 29-81-29-34-71q-5-70 0-140 3-42 34-71t81-29zm70 604q29 0 46 21 6 8 15.5 4t9.5-18v-40q0-20-21-35.5T345 600q-31 0-68 12.5T205 625q-28 0-46-21-6-8-15.5-3.5T134 618v40q0 20 21 35.5t50 15.5q31 0 68-12.5t72-12.5z"/><glyph glyph-name="odieresis" unicode="ö" d="M275 510q87 0 143-54.5T480 320q5-70 0-140-6-81-62-135.5T275-10 132 44.5 70 180q-5 70 0 140 6 81 62 135.5T275 510zm0-430q50 0 81 29t34 71q5 70 0 140-3 42-34 71t-81 29-81-29-34-71q-5-70 0-140 3-42 34-71t81-29zm-36 611v-69q0-16-16-16h-68q-16 0-16 16v69q0 6 4.5 11t11.5 5h68q7 0 11.5-5t4.5-11zm171 0v-69q0-16-16-16h-68q-16 0-16 16v69q0 6 4.5 11t11.5 5h68q7 0 11.5-5t4.5-11z"/><glyph glyph-name="divide" unicode="÷" d="M485 277v-55q0-8-6-14t-14-6H85q-8 0-14 6t-6 14v55q0 8 6 14t14 6h380q8 0 14-6t6-14zM343 103V20q0-8-6-14t-14-6h-83q-8 0-14 6t-6 14v83q0 8 6 14t14 6h83q8 0 14-6t6-14zM240 490h83q8 0 14-6t6-14v-83q0-8-6-14t-14-6h-83q-8 0-14 6t-6 14v83q0 8 6 14t14 6z"/><glyph glyph-name="oslash" unicode="ø" d="M275 510q71 0 121-36 5-3 9 1l9 10q12 15 24 15h47q10 0 15.5-10.5T499 470l-42-51q-4-5-1-14 21-50 24-85 5-70 0-140-6-81-62-135.5T275-10q-74 0-127 40-6 3-9-1l-11-14Q116 0 103 0H55Q45 0 39 11t2 21l49 58q4 5 1 11-18 36-21 79-5 70 0 140 6 81 62 135.5T275 510zm0-430q50 0 81 29t34 71q5 70 0 140 0 4-2.5 6.5T381 325L205 110q-5-7 1-10 28-20 69-20zm0 340q-50 0-81-29t-34-71q-5-65 0-134 0-2 2-3t5 1l172 210q5 7-1 10-29 16-63 16z"/><glyph glyph-name="ugrave" unicode="ù" d="M372 23q-9 0-36.5-16.5T265-10q-84 0-137 53.5T75 180v300q0 8 6 14t14 6h50q8 0 14-6t6-14V180q0-44 29.5-72T275 80q47 0 78.5 26t31.5 69v305q0 8 6 14t14 6h50q8 0 14-6t6-14V20q0-8-6-14t-14-6h-44q-7 0-14 7-14 16-25 16zM140 730h79q15 0 26-16l76-109q4-6-.5-13t-13.5-7h-40q-18 0-30 12L129 709q-5 5-1.5 13t12.5 8z"/><glyph glyph-name="uacute" unicode="ú" d="M372 23q-9 0-36.5-16.5T265-10q-84 0-137 53.5T75 180v300q0 8 6 14t14 6h50q8 0 14-6t6-14V180q0-44 29.5-72T275 80q47 0 78.5 26t31.5 69v305q0 8 6 14t14 6h50q8 0 14-6t6-14V20q0-8-6-14t-14-6h-44q-7 0-14 7-14 16-25 16zm-42 707h79q9 0 12.5-8t-1.5-13L312 597q-12-12-30-12h-40q-9 0-13.5 7t-.5 13l76 109q11 16 26 16z"/><glyph glyph-name="ucircumflex" unicode="û" d="M372 23q-9 0-36.5-16.5T265-10q-84 0-137 53.5T75 180v300q0 8 6 14t14 6h50q8 0 14-6t6-14V180q0-44 29.5-72T275 80q47 0 78.5 26t31.5 69v305q0 8 6 14t14 6h50q8 0 14-6t6-14V20q0-8-6-14t-14-6h-44q-7 0-14 7-14 16-25 16zM267 650l-50-49q-16-16-31-16h-59q-9 0-12.5 8.5T116 606l108 112q12 12 30 12h42q17 0 29-12l108-112q5-4 1.5-12.5T422 585h-59q-15 0-31 16l-51 49q-7 7-14 0z"/><glyph glyph-name="udieresis" unicode="ü" d="M372 23q-9 0-36.5-16.5T265-10q-84 0-137 53.5T75 180v300q0 8 6 14t14 6h50q8 0 14-6t6-14V180q0-44 29.5-72T275 80q47 0 78.5 26t31.5 69v305q0 8 6 14t14 6h50q8 0 14-6t6-14V20q0-8-6-14t-14-6h-44q-7 0-14 7-14 16-25 16zM241 691v-69q0-16-16-16h-68q-16 0-16 16v69q0 6 4.5 11t11.5 5h68q7 0 11.5-5t4.5-11zm171 0v-69q0-16-16-16h-68q-16 0-16 16v69q0 6 4.5 11t11.5 5h68q7 0 11.5-5t4.5-11z"/><glyph glyph-name="yacute" unicode="ý" d="M283 160l116 325q5 15 19 15h59q11 0 16.5-7.5T496 477L242-185q-5-15-19-15h-54q-11 0-16.5 7.5T150-177l74 204q3 8 1 13L53 477q-3 8 2.5 15.5T72 500h61q14 0 19-15l123-325q4-10 8 0zm47 570h79q9 0 12.5-8t-1.5-13L312 597q-12-12-30-12h-40q-9 0-13.5 7t-.5 13l76 109q11 16 26 16z"/><glyph glyph-name="thorn" unicode="þ" d="M285 420q-50 0-81-29t-34-71q-5-70 0-140 3-42 34-71t81-29 81 29 34 71q5 70 0 140-3 42-34 71t-81 29zM90-180v867q0 8 6 14t14 6h50q8 0 14-6t6-14V506q0-8 6-14.5t16-6.5q7 0 37 12.5t56 12.5q77 0 130.5-55T485 320q5-70 0-140-6-80-59.5-135T295-10q-26 0-55.5 12.5T202 15q-10 0-16-6.5T180-6v-174q0-8-6-14t-14-6h-50q-8 0-14 6t-6 14z"/><glyph glyph-name="ydieresis" unicode="ÿ" d="M283 160l116 325q5 15 19 15h59q11 0 16.5-7.5T496 477L242-185q-5-15-19-15h-54q-11 0-16.5 7.5T150-177l74 204q3 8 1 13L53 477q-3 8 2.5 15.5T72 500h61q14 0 19-15l123-325q4-10 8 0zm-44 531v-69q0-16-16-16h-68q-16 0-16 16v69q0 6 4.5 11t11.5 5h68q7 0 11.5-5t4.5-11zm171 0v-69q0-16-16-16h-68q-16 0-16 16v69q0 6 4.5 11t11.5 5h68q7 0 11.5-5t4.5-11z"/><glyph glyph-name="Amacron" unicode="Ā" d="M173 168L129 15q-5-15-19-15H55Q44 0 38.5 6T35 20l186 665q3 15 19 15h70q16 0 19-15L515 20q2-8-3.5-14T495 0h-55q-14 0-19 15l-44 153q-3 14-19 14H192q-14 0-19-14zm97 397l-65-279q-3-11 8-11h124q11 0 8 11l-65 279q-2 6-4 6h-2q-2 0-4-6zm126 196H154q-8 0-14 6t-6 14v38q0 8 6 14t14 6h242q8 0 14-6t6-14v-38q0-8-6-14t-14-6z"/><glyph glyph-name="amacron" unicode="ā" d="M379 220H249q-75 0-75-69 0-37 23-57.5T263 73q67 0 96.5 26t29.5 79v32q0 10-10 10zm-91 204q-15 0-29-2.5t-29.5-8-25-17.5-9.5-29-23-17h-45q-20 0-20 20 0 65 55.5 102.5T288 510q79 0 131-40.5T471 350V20q0-8-6-14t-14-6h-34q-8 0-14 7-1 2-5 8.5t-7 9.5-8 3q-6 0-20-9.5t-39.5-19T266-10q-88 0-135 46T84 150q0 65 44.5 108.5T249 302h122q10 0 10 10v33q0 39-26 59t-67 20zm128 192H174q-8 0-14 6t-6 14v38q0 8 6 14t14 6h242q8 0 14-6t6-14v-38q0-8-6-14t-14-6z"/><glyph glyph-name="Abreve" unicode="Ă" d="M173 168L129 15q-5-15-19-15H55Q44 0 38.5 6T35 20l186 665q3 15 19 15h70q16 0 19-15L515 20q2-8-3.5-14T495 0h-55q-14 0-19 15l-44 153q-3 14-19 14H192q-14 0-19-14zm97 397l-65-279q-3-11 8-11h124q11 0 8 11l-65 279q-2 6-4 6h-2q-2 0-4-6zm65 313q0 7 5 12t12 5h43q7 0 12-5t5-12q0-54-39-91t-98-37q-60 0-99 37t-39 91q0 7 5 12t12 5h43q7 0 12-5t5-12q0-23 18.5-39.5T275 822t42 16.5 18 39.5z"/><glyph glyph-name="abreve" unicode="ă" d="M379 220H249q-75 0-75-69 0-37 23-57.5T263 73q67 0 96.5 26t29.5 79v32q0 10-10 10zm-91 204q-15 0-29-2.5t-29.5-8-25-17.5-9.5-29-23-17h-45q-20 0-20 20 0 65 55.5 102.5T288 510q79 0 131-40.5T471 350V20q0-8-6-14t-14-6h-34q-8 0-14 7-1 2-5 8.5t-7 9.5-8 3q-6 0-20-9.5t-39.5-19T266-10q-88 0-135 46T84 150q0 65 44.5 108.5T249 302h122q10 0 10 10v33q0 39-26 59t-67 20zm67 289q0 7 5 12t12 5h43q7 0 12-5t5-12q0-54-39-91t-98-37q-60 0-99 37t-39 91q0 7 5 12t12 5h43q7 0 12-5t5-12q0-23 18.5-39.5T295 657t42 16.5 18 39.5z"/><glyph glyph-name="Aogonek" unicode="Ą" d="M345 286l-65 279q-2 6-4 6h-2q-2 0-4-6l-65-279q-3-11 8-11h124q11 0 8 11zm-16 399L515 20q2-10-5-15t-22-5q-33 0-53.5-19T414-69q0-66 76-66 8 0 14-6t6-14v-35q0-8-6-14t-14-6q-72 0-115.5 35T331-74q0 83 79 126l-33 116q-3 14-19 14H192q-14 0-19-14L129 15q-5-15-19-15H55Q44 0 38.5 6T35 20l186 665q3 15 19 15h70q16 0 19-15z"/><glyph glyph-name="aogonek" unicode="ą" d="M451 0q-34 0-57.5-18.5T370-69q0-66 76-66 8 0 14-6t6-14v-35q0-8-6-14t-14-6q-72 0-115.5 35T287-74q0 19 10.5 42.5T322 4q-23-14-56-14-88 0-135 46T84 150q0 65 44.5 108.5T249 302h122q10 0 10 10v33q0 39-26 59t-67 20q-15 0-29-2.5t-29.5-8-25-17.5-9.5-29-23-17h-45q-20 0-20 20 0 65 55.5 102.5T288 510q79 0 131-40.5T471 350V20q0-8-6-14t-14-6zm-72 220H249q-36 0-55.5-18T174 151q0-37 23-57.5T263 73q67 0 96.5 26t29.5 79v32q0 10-10 10z"/><glyph glyph-name="Cacute" unicode="Ć" d="M283 87q53 0 91.5 30.5T413 200q0 34 20 34h55q8 0 14-6t6-14q0-92-61-157T283-8q-91 0-152 56T58 200q-8 61-8 150.5T58 500q10 87 70.5 147.5T283 708q99 0 162-60t63-162q0-8-6-14t-14-6h-55q-8 0-14 6t-6 14q0 54-33 90t-97 37q-51 0-87-30t-43-83q-7-62-7-150.5t7-149.5q6-48 40.5-80.5T283 87zm57 808h79q9 0 12.5-8.5T430 874L322 762q-12-12-30-12h-40q-9 0-13.5 7t-.5 13l76 109q11 16 26 16z"/><glyph glyph-name="cacute" unicode="ć" d="M280 80q45 0 73.5 23.5T382 163q0 17 19 17h52q8 0 14-6t6-14q0-73-54.5-121.5T280-10q-87 0-140.5 54T80 180q-5 70 0 140 6 82 59.5 136T280 510q84 0 138.5-48.5T473 340q0-20-17-20h-54q-19 0-19 16 0 36-28.5 60T280 420q-49 0-78-29t-32-71q-5-70 0-140 3-42 32-71t78-29zm50 650h79q9 0 12.5-8t-1.5-13L312 597q-12-12-30-12h-40q-9 0-13.5 7t-.5 13l76 109q11 16 26 16z"/><glyph glyph-name="Ccircumflex" unicode="Ĉ" d="M283 87q53 0 91.5 30.5T413 200q0 34 20 34h55q8 0 14-6t6-14q0-92-61-157T283-8q-91 0-152 56T58 200q-8 61-8 150.5T58 500q10 87 70.5 147.5T283 708q99 0 162-60t63-162q0-8-6-14t-14-6h-55q-8 0-14 6t-6 14q0 54-33 90t-97 37q-51 0-87-30t-43-83q-7-62-7-150.5t7-149.5q6-48 40.5-80.5T283 87zm-6 728l-50-49q-16-16-31-16h-59q-9 0-12.5 8t1.5 13l108 112q12 12 30 12h42q17 0 29-12l108-112q5-5 1.5-13t-12.5-8h-59q-15 0-31 16l-51 49q-7 7-14 0z"/><glyph glyph-name="ccircumflex" unicode="ĉ" d="M280 80q45 0 73.5 23.5T382 163q0 17 19 17h52q8 0 14-6t6-14q0-73-54.5-121.5T280-10q-87 0-140.5 54T80 180q-5 70 0 140 6 82 59.5 136T280 510q84 0 138.5-48.5T473 340q0-20-17-20h-54q-19 0-19 16 0 36-28.5 60T280 420q-49 0-78-29t-32-71q-5-70 0-140 3-42 32-71t78-29zm-13 570l-50-49q-16-16-31-16h-59q-9 0-12.5 8.5T116 606l108 112q12 12 30 12h42q17 0 29-12l108-112q5-4 1.5-12.5T422 585h-59q-15 0-31 16l-51 49q-7 7-14 0z"/><glyph glyph-name="Cdotaccent" unicode="Ċ" d="M283 87q53 0 91.5 30.5T413 200q0 34 20 34h55q8 0 14-6t6-14q0-92-61-157T283-8q-91 0-152 56T58 200q-8 61-8 150.5T58 500q10 87 70.5 147.5T283 708q99 0 162-60t63-162q0-8-6-14t-14-6h-55q-8 0-14 6t-6 14q0 54-33 90t-97 37q-51 0-87-30t-43-83q-7-62-7-150.5t7-149.5q6-48 40.5-80.5T283 87zm53 748v-69q0-16-16-16h-68q-16 0-16 16v69q0 6 4.5 11t11.5 5h68q7 0 11.5-5t4.5-11z"/><glyph glyph-name="cdotaccent" unicode="ċ" d="M280 80q45 0 73.5 23.5T382 163q0 17 19 17h52q8 0 14-6t6-14q0-73-54.5-121.5T280-10q-87 0-140.5 54T80 180q-5 70 0 140 6 82 59.5 136T280 510q84 0 138.5-48.5T473 340q0-20-17-20h-54q-19 0-19 16 0 36-28.5 60T280 420q-49 0-78-29t-32-71q-5-70 0-140 3-42 32-71t78-29zm55 611v-69q0-16-16-16h-68q-16 0-16 16v69q0 6 4.5 11t11.5 5h68q7 0 11.5-5t4.5-11z"/><glyph glyph-name="Ccaron" unicode="Č" d="M283 87q53 0 91.5 30.5T413 200q0 34 20 34h55q8 0 14-6t6-14q0-92-61-157T283-8q-91 0-152 56T58 200q-8 61-8 150.5T58 500q10 87 70.5 147.5T283 708q99 0 162-60t63-162q0-8-6-14t-14-6h-55q-8 0-14 6t-6 14q0 54-33 90t-97 37q-51 0-87-30t-43-83q-7-62-7-150.5t7-149.5q6-48 40.5-80.5T283 87zm-66 792l50-49q7-7 14 0l51 49q16 16 31 16h59q9 0 12.5-8.5T433 874L325 762q-12-12-29-12h-42q-18 0-30 12L116 874q-5 4-1.5 12.5T127 895h59q15 0 31-16z"/><glyph glyph-name="ccaron" unicode="č" d="M280 80q45 0 73.5 23.5T382 163q0 17 19 17h52q8 0 14-6t6-14q0-73-54.5-121.5T280-10q-87 0-140.5 54T80 180q-5 70 0 140 6 82 59.5 136T280 510q84 0 138.5-48.5T473 340q0-20-17-20h-54q-19 0-19 16 0 36-28.5 60T280 420q-49 0-78-29t-32-71q-5-70 0-140 3-42 32-71t78-29zm-63 634l50-49q7-7 14 0l51 49q16 16 31 16h59q9 0 12.5-8t-1.5-13L325 597q-12-12-29-12h-42q-18 0-30 12L116 709q-5 5-1.5 13t12.5 8h59q15 0 31-16z"/><glyph glyph-name="Dcaron" unicode="Ď" d="M281 0H91q-8 0-14 6t-6 14v660q0 8 6 14t14 6h190q85 0 142-60t68-150q17-133 0-280-10-89-67.5-149.5T281 0zM176 95h105q44 0 77 34t38 81q8 60 8 140t-8 140q-5 47-38 81t-77 34H176q-10 0-10-10V105q0-10 10-10zm31 784l50-49q7-7 14 0l51 49q16 16 31 16h59q9 0 12.5-8.5T423 874L315 762q-12-12-29-12h-42q-18 0-30 12L106 874q-5 4-1.5 12.5T117 895h59q15 0 31-16z"/><glyph glyph-name="dcaron" unicode="ď" d="M264 80q50 0 81 29t34 71q5 70 0 140-3 42-34 71t-81 29-81-29-34-71q-5-70 0-140 3-42 34-71t81-29zm-10-90q-77 0-130.5 55T64 180q-5 70 0 140 6 80 59.5 135T254 510q26 0 56-12.5t37-12.5q22 0 22 25v177q0 8 6 14t14 6h50q8 0 14-6t6-14V20q0-8-6-14t-14-6h-34q-7 0-14 7-14 16-25 16-9 0-39-16.5T254-10zm294 609h-7q-8 0-14 6t-6 14v61q0 8 6 14t14 6h70q8 0 14-6t6-14v-61q0-34-20-62l-32-46q-10-15-26-15h-9q-14 0-19 11t1 22l31 57q3 5-.5 9t-8.5 4z"/><glyph glyph-name="Dcroat" unicode="Đ" d="M71 415v265q0 8 6 14t14 6h190q85 0 142-60t68-150q17-133 0-280-10-89-67.5-149.5T281 0H91q-8 0-14 6t-6 14v280q0 10-10 10H29q-8 0-14 6t-6 14v55q0 8 6 14t14 6h32q10 0 10 10zm95 180V415q0-10 10-10h100q8 0 14-6t6-14v-55q0-8-6-14t-14-6H176q-10 0-10-10V105q0-10 10-10h105q44 0 77 34t38 81q8 60 8 140t-8 140q-5 47-38 81t-77 34H176q-10 0-10-10z"/><glyph glyph-name="dcroat" unicode="đ" d="M265 80q50 0 81 29t34 71q5 70 0 140-3 42-34 71t-81 29-81-29-34-71q-5-70 0-140 3-42 34-71t81-29zm105 430v37q0 10-10 10h-70q-8 0-14 6t-6 14v40q0 8 6 14t14 6h70q10 0 10 10v40q0 8 6 14t14 6h50q8 0 14-6t6-14v-40q0-10 10-10h25q8 0 14-6t6-14v-40q0-8-6-14t-14-6h-25q-10 0-10-10V20q0-8-6-14t-14-6h-34q-7 0-14 7-14 16-25 16-9 0-39-16.5T255-10q-77 0-130.5 55T65 180q-5 70 0 140 6 80 59.5 135T255 510q26 0 56-12.5t37-12.5q22 0 22 25z"/><glyph glyph-name="Emacron" unicode="Ē" d="M202 595V415q0-10 10-10h237q8 0 14-6t6-14v-55q0-8-6-14t-14-6H212q-10 0-10-10V105q0-10 10-10h250q8 0 14-6t6-14V20q0-8-6-14t-14-6H127q-8 0-14 6t-6 14v660q0 8 6 14t14 6h333q8 0 14-6t6-14v-55q0-8-6-14t-14-6H212q-10 0-10-10zm214 166H174q-8 0-14 6t-6 14v38q0 8 6 14t14 6h242q8 0 14-6t6-14v-38q0-8-6-14t-14-6z"/><glyph glyph-name="emacron" unicode="ē" d="M163 211q0-66 31-98.5T279 80q38 0 66 17.5t37 45.5q5 17 23 17h51q20 0 17-20-9-66-63-108T279-10q-87 0-143 54.5T74 180q-5 70 0 140 6 81 62 135.5T279 510q91 0 145.5-53.5T479 310v-69q0-8-6-14t-14-6H173q-10 0-10-10zm2 100q0-10 10-10h208q10 0 10 10 0 50-32.5 79.5T280 420q-51 0-83-31t-32-78zm236 305H159q-8 0-14 6t-6 14v38q0 8 6 14t14 6h242q8 0 14-6t6-14v-38q0-8-6-14t-14-6z"/><glyph glyph-name="Ebreve" unicode="Ĕ" d="M202 595V415q0-10 10-10h237q8 0 14-6t6-14v-55q0-8-6-14t-14-6H212q-10 0-10-10V105q0-10 10-10h250q8 0 14-6t6-14V20q0-8-6-14t-14-6H127q-8 0-14 6t-6 14v660q0 8 6 14t14 6h333q8 0 14-6t6-14v-55q0-8-6-14t-14-6H212q-10 0-10-10zm153 283q0 7 5 12t12 5h43q7 0 12-5t5-12q0-54-39-91t-98-37q-60 0-99 37t-39 91q0 7 5 12t12 5h43q7 0 12-5t5-12q0-23 18.5-39.5T295 822t42 16.5 18 39.5z"/><glyph glyph-name="ebreve" unicode="ĕ" d="M163 211q0-66 31-98.5T279 80q38 0 66 17.5t37 45.5q5 17 23 17h51q20 0 17-20-9-66-63-108T279-10q-87 0-143 54.5T74 180q-5 70 0 140 6 81 62 135.5T279 510q91 0 145.5-53.5T479 310v-69q0-8-6-14t-14-6H173q-10 0-10-10zm2 100q0-10 10-10h208q10 0 10 10 0 50-32.5 79.5T280 420q-51 0-83-31t-32-78zm170 402q0 7 5 12t12 5h43q7 0 12-5t5-12q0-54-39-91t-98-37q-60 0-99 37t-39 91q0 7 5 12t12 5h43q7 0 12-5t5-12q0-23 18.5-39.5T275 657t42 16.5 18 39.5z"/><glyph glyph-name="Edotaccent" unicode="Ė" d="M202 595V415q0-10 10-10h237q8 0 14-6t6-14v-55q0-8-6-14t-14-6H212q-10 0-10-10V105q0-10 10-10h250q8 0 14-6t6-14V20q0-8-6-14t-14-6H127q-8 0-14 6t-6 14v660q0 8 6 14t14 6h333q8 0 14-6t6-14v-55q0-8-6-14t-14-6H212q-10 0-10-10zm144 240v-69q0-16-16-16h-68q-16 0-16 16v69q0 6 4.5 11t11.5 5h68q7 0 11.5-5t4.5-11z"/><glyph glyph-name="edotaccent" unicode="ė" d="M163 211q0-66 31-98.5T279 80q38 0 66 17.5t37 45.5q5 17 23 17h51q20 0 17-20-9-66-63-108T279-10q-87 0-143 54.5T74 180q-5 70 0 140 6 81 62 135.5T279 510q91 0 145.5-53.5T479 310v-69q0-8-6-14t-14-6H173q-10 0-10-10zm2 100q0-10 10-10h208q10 0 10 10 0 50-32.5 79.5T280 420q-51 0-83-31t-32-78zm165 380v-69q0-16-16-16h-68q-16 0-16 16v69q0 6 4.5 11t11.5 5h68q7 0 11.5-5t4.5-11z"/><glyph glyph-name="Eogonek" unicode="Ę" d="M202 595V415q0-10 10-10h237q8 0 14-6t6-14v-55q0-8-6-14t-14-6H212q-10 0-10-10V105q0-10 10-10h250q8 0 14-6t6-14V20q0-8-6-14t-14-6q-36 0-58.5-18.5T381-69q0-66 76-66 8 0 14-6t6-14v-35q0-8-6-14t-14-6q-71 0-115 37t-44 99q0 46 26 74H127q-8 0-14 6t-6 14v660q0 8 6 14t14 6h333q8 0 14-6t6-14v-55q0-8-6-14t-14-6H212q-10 0-10-10z"/><glyph glyph-name="eogonek" unicode="ę" d="M432 52q-3-4-14.5-16.5t-16-17.5T388 2t-13-17.5-9-16.5-7-19-2-18q0-66 81-66 8 0 14-6t6-14v-35q0-8-6-14t-14-6q-78 0-121 34.5T274-74q0 30 20 65-5-1-15-1-87 0-143 54.5T74 180q-5 70 0 140 6 81 62 135.5T279 510q91 0 145.5-53.5T479 310v-69q0-8-6-14t-14-6H173q-10 0-10-10 0-66 31-98.5T279 80q38 0 66 17.5t37 45.5q5 17 23 17h51q20 0 17-20-8-52-41-88zM165 311q0-10 10-10h208q10 0 10 10 0 50-32.5 79.5T280 420q-51 0-83-31t-32-78z"/><glyph glyph-name="Ecaron" unicode="Ě" d="M202 595V415q0-10 10-10h237q8 0 14-6t6-14v-55q0-8-6-14t-14-6H212q-10 0-10-10V105q0-10 10-10h250q8 0 14-6t6-14V20q0-8-6-14t-14-6H127q-8 0-14 6t-6 14v660q0 8 6 14t14 6h333q8 0 14-6t6-14v-55q0-8-6-14t-14-6H212q-10 0-10-10zm35 284l50-49q7-7 14 0l51 49q16 16 31 16h59q9 0 12.5-8.5T453 874L345 762q-12-12-29-12h-42q-18 0-30 12L136 874q-5 4-1.5 12.5T147 895h59q15 0 31-16z"/><glyph glyph-name="ecaron" unicode="ě" d="M163 211q0-66 31-98.5T279 80q38 0 66 17.5t37 45.5q5 17 23 17h51q20 0 17-20-9-66-63-108T279-10q-87 0-143 54.5T74 180q-5 70 0 140 6 81 62 135.5T279 510q91 0 145.5-53.5T479 310v-69q0-8-6-14t-14-6H173q-10 0-10-10zm2 100q0-10 10-10h208q10 0 10 10 0 50-32.5 79.5T280 420q-51 0-83-31t-32-78zm52 403l50-49q7-7 14 0l51 49q16 16 31 16h59q9 0 12.5-8t-1.5-13L325 597q-12-12-29-12h-42q-18 0-30 12L116 709q-5 5-1.5 13t12.5 8h59q15 0 31-16z"/><glyph glyph-name="Gcircumflex" unicode="Ĝ" d="M409 200v84q0 10-10 10h-91q-8 0-14 6t-6 14v55q0 8 6 14t14 6h176q8 0 14-6t6-14V200q0-88-63.5-148T279-8q-91 0-152 56T54 200q-8 61-8 150.5T54 500q10 87 70.5 147.5T279 708t159.5-57T504 500v-14q0-8-6-14t-14-6h-55q-8 0-14 6t-6 14v14q0 46-36 79t-94 34q-51 0-87-30t-43-83q-7-62-7-150.5t7-149.5q6-47 40.5-80T279 87t92.5 29 37.5 84zM267 815l-50-49q-16-16-31-16h-59q-9 0-12.5 8t1.5 13l108 112q12 12 30 12h42q17 0 29-12l108-112q5-5 1.5-13t-12.5-8h-59q-15 0-31 16l-51 49q-7 7-14 0z"/><glyph glyph-name="gcircumflex" unicode="ĝ" d="M410 500h34q8 0 14-6t6-14V-30q0-74-52.5-127T281-210q-70 0-121 36T99-73q-3 23 18 23h48q13 0 17.5-4t7.5-13q0-1 .5-1.5t.5-1.5q20-50 90-50 39 0 66 25t27 65v22q0 25-22 23-6 0-36-12.5T259-10q-77 0-130.5 55T69 180q-5 70 0 140 6 80 59.5 135T259 510q43 0 73-16.5t39-16.5q11 0 25 16 7 7 14 7zm-141-80q-50 0-81-29t-34-71q-5-70 0-140 3-42 34-71t81-29 81 29 34 71q5 70 0 140-3 42-34 71t-81 29zm-2 230l-50-49q-16-16-31-16h-59q-9 0-12.5 8.5T116 606l108 112q12 12 30 12h42q17 0 29-12l108-112q5-4 1.5-12.5T422 585h-59q-15 0-31 16l-51 49q-7 7-14 0z"/><glyph glyph-name="Gbreve" unicode="Ğ" d="M409 200v84q0 10-10 10h-91q-8 0-14 6t-6 14v55q0 8 6 14t14 6h176q8 0 14-6t6-14V200q0-88-63.5-148T279-8q-91 0-152 56T54 200q-8 61-8 150.5T54 500q10 87 70.5 147.5T279 708t159.5-57T504 500v-14q0-8-6-14t-14-6h-55q-8 0-14 6t-6 14v14q0 46-36 79t-94 34q-51 0-87-30t-43-83q-7-62-7-150.5t7-149.5q6-47 40.5-80T279 87t92.5 29 37.5 84zm-74 678q0 7 5 12t12 5h43q7 0 12-5t5-12q0-54-39-91t-98-37q-60 0-99 37t-39 91q0 7 5 12t12 5h43q7 0 12-5t5-12q0-23 18.5-39.5T275 822t42 16.5 18 39.5z"/><glyph glyph-name="gbreve" unicode="ğ" d="M410 500h34q8 0 14-6t6-14V-30q0-74-52.5-127T281-210q-70 0-121 36T99-73q-3 23 18 23h48q13 0 17.5-4t7.5-13q0-1 .5-1.5t.5-1.5q20-50 90-50 39 0 66 25t27 65v22q0 25-22 23-6 0-36-12.5T259-10q-77 0-130.5 55T69 180q-5 70 0 140 6 80 59.5 135T259 510q43 0 73-16.5t39-16.5q11 0 25 16 7 7 14 7zm-141-80q-50 0-81-29t-34-71q-5-70 0-140 3-42 34-71t81-29 81 29 34 71q5 70 0 140-3 42-34 71t-81 29zm66 293q0 7 5 12t12 5h43q7 0 12-5t5-12q0-54-39-91t-98-37q-60 0-99 37t-39 91q0 7 5 12t12 5h43q7 0 12-5t5-12q0-23 18.5-39.5T275 657t42 16.5 18 39.5z"/><glyph glyph-name="Gdotaccent" unicode="Ġ" d="M409 200v84q0 10-10 10h-91q-8 0-14 6t-6 14v55q0 8 6 14t14 6h176q8 0 14-6t6-14V200q0-88-63.5-148T279-8q-91 0-152 56T54 200q-8 61-8 150.5T54 500q10 87 70.5 147.5T279 708t159.5-57T504 500v-14q0-8-6-14t-14-6h-55q-8 0-14 6t-6 14v14q0 46-36 79t-94 34q-51 0-87-30t-43-83q-7-62-7-150.5t7-149.5q6-47 40.5-80T279 87t92.5 29 37.5 84zm-73 635v-69q0-16-16-16h-68q-16 0-16 16v69q0 6 4.5 11t11.5 5h68q7 0 11.5-5t4.5-11z"/><glyph glyph-name="gdotaccent" unicode="ġ" d="M410 500h34q8 0 14-6t6-14V-30q0-74-52.5-127T281-210q-70 0-121 36T99-73q-3 23 18 23h48q13 0 17.5-4t7.5-13q0-1 .5-1.5t.5-1.5q20-50 90-50 39 0 66 25t27 65v22q0 25-22 23-6 0-36-12.5T259-10q-77 0-130.5 55T69 180q-5 70 0 140 6 80 59.5 135T259 510q43 0 73-16.5t39-16.5q11 0 25 16 7 7 14 7zm-141-80q-50 0-81-29t-34-71q-5-70 0-140 3-42 34-71t81-29 81 29 34 71q5 70 0 140-3 42-34 71t-81 29zm56 271v-69q0-16-16-16h-68q-16 0-16 16v69q0 6 4.5 11t11.5 5h68q7 0 11.5-5t4.5-11z"/><glyph glyph-name="Gcommaaccent" unicode="Ģ" d="M409 200v84q0 10-10 10h-91q-8 0-14 6t-6 14v55q0 8 6 14t14 6h176q8 0 14-6t6-14V200q0-88-63.5-148T279-8q-91 0-152 56T54 200q-8 61-8 150.5T54 500q10 87 70.5 147.5T279 708t159.5-57T504 500v-14q0-8-6-14t-14-6h-55q-8 0-14 6t-6 14v14q0 46-36 79t-94 34q-51 0-87-30t-43-83q-7-62-7-150.5t7-149.5q6-47 40.5-80T279 87t92.5 29 37.5 84zM248-146h-7q-8 0-14 6t-6 14v61q0 8 6 14t14 6h70q8 0 14-6t6-14v-61q0-34-20-62l-32-46q-10-15-26-15h-9q-14 0-19 11t1 22l31 57q3 5-.5 9t-8.5 4z"/><glyph glyph-name="gcommaaccent" unicode="ģ" d="M410 500h34q8 0 14-6t6-14V-30q0-74-52.5-127T281-210q-70 0-121 36T99-73q-3 23 18 23h48q13 0 17.5-4t7.5-13q0-1 .5-1.5t.5-1.5q20-50 90-50 39 0 66 25t27 65v22q0 25-22 23-6 0-36-12.5T259-10q-77 0-130.5 55T69 180q-5 70 0 140 6 80 59.5 135T259 510q43 0 73-16.5t39-16.5q11 0 25 16 7 7 14 7zm-141-80q-50 0-81-29t-34-71q-5-70 0-140 3-42 34-71t81-29 81 29 34 71q5 70 0 140-3 42-34 71t-81 29zm29 257h7q8 0 14-6t6-14v-61q0-8-6-14t-14-6h-70q-8 0-14 6t-6 14v61q0 34 20 62l32 46q10 15 26 15h9q14 0 19-11t-1-22l-31-57q-3-5 .5-9t8.5-4z"/><glyph glyph-name="Hcircumflex" unicode="Ĥ" d="M155 680V415q0-10 10-10h220q10 0 10 10v265q0 8 6 14t14 6h55q8 0 14-6t6-14V20q0-8-6-14t-14-6h-55q-8 0-14 6t-6 14v280q0 10-10 10H165q-10 0-10-10V20q0-8-6-14t-14-6H80q-8 0-14 6t-6 14v660q0 8 6 14t14 6h55q8 0 14-6t6-14zm112 135l-50-49q-16-16-31-16h-59q-9 0-12.5 8t1.5 13l108 112q12 12 30 12h42q17 0 29-12l108-112q5-5 1.5-13t-12.5-8h-59q-15 0-31 16l-51 49q-7 7-14 0z"/><glyph glyph-name="hcircumflex" unicode="ĥ" d="M158 0h-50q-8 0-14 6t-6 14v667q0 8 6 14t14 6h50q8 0 14-6t6-14V506q0-8 6-14.5t16-6.5q7 0 36.5 12.5T292 510q79 0 134.5-55.5T482 320V20q0-8-6-14t-14-6h-50q-8 0-14 6t-6 14v300q0 40-31 70t-76 30q-46 0-76.5-27.5T178 325V20q0-8-6-14t-14-6zm89 815l-50-49q-16-16-31-16h-59q-9 0-12.5 8t1.5 13l108 112q12 12 30 12h42q17 0 29-12l108-112q5-5 1.5-13t-12.5-8h-59q-15 0-31 16l-51 49q-7 7-14 0z"/><glyph glyph-name="Hbar" unicode="Ħ" d="M155 495v-80q0-10 10-10h220q10 0 10 10v80q0 10-10 10H165q-10 0-10-10zm0 185v-80q0-10 10-10h220q10 0 10 10v80q0 8 6 14t14 6h55q8 0 14-6t6-14V20q0-8-6-14t-14-6h-55q-8 0-14 6t-6 14v280q0 10-10 10H165q-10 0-10-10V20q0-8-6-14t-14-6H80q-8 0-14 6t-6 14v660q0 8 6 14t14 6h55q8 0 14-6t6-14z"/><glyph glyph-name="hbar" unicode="ħ" d="M178 547v-41q0-8 6-14.5t16-6.5q7 0 36.5 12.5T292 510q79 0 134.5-55.5T482 320V20q0-8-6-14t-14-6h-50q-8 0-14 6t-6 14v300q0 40-31 70t-76 30q-46 0-76.5-27.5T178 325V20q0-8-6-14t-14-6h-50q-8 0-14 6t-6 14v527q0 10-10 10H53q-8 0-14 6t-6 14v40q0 8 6 14t14 6h25q10 0 10 10v40q0 8 6 14t14 6h50q8 0 14-6t6-14v-40q0-10 10-10h70q8 0 14-6t6-14v-40q0-8-6-14t-14-6h-70q-10 0-10-10z"/><glyph glyph-name="Itilde" unicode="Ĩ" d="M227 98v505q0 10-10 10H107q-8 0-14 6t-6 14v47q0 8 6 14t14 6h335q8 0 14-6t6-14v-47q0-8-6-14t-14-6H332q-10 0-10-10V98q0-10 10-10h120q8 0 14-6t6-14V20q0-8-6-14t-14-6H97q-8 0-14 6t-6 14v48q0 8 6 14t14 6h120q10 0 10 10zm118 743q29 0 46 21 6 8 15.5 4t9.5-18v-40q0-20-21-35.5T345 757q-31 0-68 12.5T205 782q-28 0-46-21-6-8-15.5-3.5T134 775v40q0 20 21 35.5t50 15.5q31 0 68-12.5t72-12.5z"/><glyph glyph-name="itilde" unicode="ĩ" d="M345 684q29 0 46 21 6 8 15.5 4t9.5-18v-40q0-20-21-35.5T345 600q-31 0-68 12.5T205 625q-28 0-46-21-6-8-15.5-3.5T134 618v40q0 20 21 35.5t50 15.5q31 0 68-12.5t72-12.5zM241 415H120q-8 0-14 6t-6 14v45q0 8 6 14t14 6h203q8 0 14-6t6-14V95q0-10 10-10h127q8 0 14-6t6-14V20q0-8-6-14t-14-6H110q-8 0-14 6t-6 14v45q0 8 6 14t14 6h131q10 0 10 10v310q0 10-10 10z"/><glyph glyph-name="Imacron" unicode="Ī" d="M227 98v505q0 10-10 10H107q-8 0-14 6t-6 14v47q0 8 6 14t14 6h335q8 0 14-6t6-14v-47q0-8-6-14t-14-6H332q-10 0-10-10V98q0-10 10-10h120q8 0 14-6t6-14V20q0-8-6-14t-14-6H97q-8 0-14 6t-6 14v48q0 8 6 14t14 6h120q10 0 10 10zm169 663H154q-8 0-14 6t-6 14v38q0 8 6 14t14 6h242q8 0 14-6t6-14v-38q0-8-6-14t-14-6z"/><glyph glyph-name="imacron" unicode="ī" d="M396 616H154q-8 0-14 6t-6 14v38q0 8 6 14t14 6h242q8 0 14-6t6-14v-38q0-8-6-14t-14-6zM241 415H120q-8 0-14 6t-6 14v45q0 8 6 14t14 6h203q8 0 14-6t6-14V95q0-10 10-10h127q8 0 14-6t6-14V20q0-8-6-14t-14-6H110q-8 0-14 6t-6 14v45q0 8 6 14t14 6h131q10 0 10 10v310q0 10-10 10z"/><glyph glyph-name="Ibreve" unicode="Ĭ" d="M227 98v505q0 10-10 10H107q-8 0-14 6t-6 14v47q0 8 6 14t14 6h335q8 0 14-6t6-14v-47q0-8-6-14t-14-6H332q-10 0-10-10V98q0-10 10-10h120q8 0 14-6t6-14V20q0-8-6-14t-14-6H97q-8 0-14 6t-6 14v48q0 8 6 14t14 6h120q10 0 10 10zm108 780q0 7 5 12t12 5h43q7 0 12-5t5-12q0-54-39-91t-98-37q-60 0-99 37t-39 91q0 7 5 12t12 5h43q7 0 12-5t5-12q0-23 18.5-39.5T275 822t42 16.5 18 39.5z"/><glyph glyph-name="ibreve" unicode="ĭ" d="M335 713q0 7 5 12t12 5h43q7 0 12-5t5-12q0-54-39-91t-98-37q-60 0-99 37t-39 91q0 7 5 12t12 5h43q7 0 12-5t5-12q0-23 18.5-39.5T275 657t42 16.5 18 39.5zm-94-298H120q-8 0-14 6t-6 14v45q0 8 6 14t14 6h203q8 0 14-6t6-14V95q0-10 10-10h127q8 0 14-6t6-14V20q0-8-6-14t-14-6H110q-8 0-14 6t-6 14v45q0 8 6 14t14 6h131q10 0 10 10v310q0 10-10 10z"/><glyph glyph-name="Iogonek" unicode="Į" d="M302-210h-61q-74 0-119 35T77-74V68q0 8 6 14t14 6h120q10 0 10 10v505q0 10-10 10H107q-8 0-14 6t-6 14v47q0 8 6 14t14 6h335q8 0 14-6t6-14v-47q0-8-6-14t-14-6H332q-10 0-10-10V98q0-10 10-10h120q8 0 14-6t6-14V20q0-8-6-14t-14-6H160v-69q0-66 81-66h61q8 0 14-6t6-14v-35q0-8-6-14t-14-6z"/><glyph glyph-name="iogonek" unicode="į" d="M346 691v-69q0-16-16-16h-68q-16 0-16 16v69q0 6 4.5 11t11.5 5h68q7 0 11.5-5t4.5-11zM173 0v-60q0-70 81-70h61q8 0 14-6t6-14v-40q0-8-6-14t-14-6h-61q-74 0-119 35T90-74V65q0 8 6 14t14 6h131q10 0 10 10v310q0 10-10 10H120q-8 0-14 6t-6 14v45q0 8 6 14t14 6h203q8 0 14-6t6-14V95q0-10 10-10h127q8 0 14-6t6-14V20q0-8-6-14t-14-6H173z"/><glyph glyph-name="Idotaccent" unicode="İ" d="M227 98v505q0 10-10 10H107q-8 0-14 6t-6 14v47q0 8 6 14t14 6h335q8 0 14-6t6-14v-47q0-8-6-14t-14-6H332q-10 0-10-10V98q0-10 10-10h120q8 0 14-6t6-14V20q0-8-6-14t-14-6H97q-8 0-14 6t-6 14v48q0 8 6 14t14 6h120q10 0 10 10zm98 737v-69q0-16-16-16h-68q-16 0-16 16v69q0 6 4.5 11t11.5 5h68q7 0 11.5-5t4.5-11z"/><glyph glyph-name="dotlessi" unicode="ı" d="M241 415H120q-8 0-14 6t-6 14v45q0 8 6 14t14 6h203q8 0 14-6t6-14V95q0-10 10-10h127q8 0 14-6t6-14V20q0-8-6-14t-14-6H110q-8 0-14 6t-6 14v45q0 8 6 14t14 6h131q10 0 10 10v310q0 10-10 10z"/><glyph glyph-name="Jcircumflex" unicode="Ĵ" d="M125 230v-30q0-55 38.5-84T255 87q58 0 94 35.5t36 98.5v459q0 8 6 14t14 6h55q8 0 14-6t6-14V210q0-98-65.5-158T255-8Q156-8 93 48T30 200v30q0 8 6 14t14 6h55q8 0 14-6t6-14zm182 585l-50-49q-16-16-31-16h-59q-9 0-12.5 8t1.5 13l108 112q12 12 30 12h42q17 0 29-12l108-112q5-5 1.5-13t-12.5-8h-59q-15 0-31 16l-51 49q-7 7-14 0z"/><glyph glyph-name="jcircumflex" unicode="ĵ" d="M413 480V-47q0-66-47-114.5T253-210t-113 47T93-50q0 8 6 14t14 6h50q8 0 14-6t6-14q0-29 18.5-49.5T253-120q32 0 49.5 21.5T320-47v452q0 10-10 10H165q-8 0-14 6t-6 14v45q0 8 6 14t14 6h228q8 0 14-6t6-14zM297 650l-50-49q-16-16-31-16h-59q-9 0-12.5 8.5T146 606l108 112q12 12 30 12h42q17 0 29-12l108-112q5-4 1.5-12.5T452 585h-59q-15 0-31 16l-51 49q-7 7-14 0z"/><glyph glyph-name="Kcommaaccent" unicode="Ķ" d="M178 680V440q0-4 3-4t5 2l194 252q8 10 22 10h55q14 0 19.5-12.5T474 664L246 373q-10-14-1-24L501 37q9-10 3.5-23.5T483 0h-63q-12 0-22 10L186 275q-2 2-5 2t-3-4V20q0-8-6-14t-14-6h-55q-8 0-14 6t-6 14v660q0 8 6 14t14 6h55q8 0 14-6t6-14zm50-826h-7q-8 0-14 6t-6 14v61q0 8 6 14t14 6h70q8 0 14-6t6-14v-61q0-34-20-62l-32-46q-10-15-26-15h-9q-14 0-19 11t1 22l31 57q3 5-.5 9t-8.5 4z"/><glyph glyph-name="kcommaaccent" unicode="ķ" d="M391 15L218 181q-2 2-5 1t-3-5V20q0-8-6-14t-14-6h-50q-8 0-14 6t-6 14v667q0 8 6 14t14 6h50q8 0 14-6t6-14V341q0-10 8-4l163 150q13 13 28 13h54q15 0 19.5-13t-3.5-20L274 274q-13-13 0-24L500 33q10-9 4-21T484 0h-63q-15 0-30 15zM248-146h-7q-8 0-14 6t-6 14v61q0 8 6 14t14 6h70q8 0 14-6t6-14v-61q0-34-20-62l-32-46q-10-15-26-15h-9q-14 0-19 11t1 22l31 57q3 5-.5 9t-8.5 4z"/><glyph glyph-name="kgreenlandic" unicode="ĸ" d="M389 15L218 182q-2 2-5 2t-3-4V20q0-8-6-14t-14-6h-50q-8 0-14 6t-6 14v460q0 8 6 14t14 6h50q8 0 14-6t6-14V334q0-4 3-4.5t5 2.5l163 155q13 13 25 13h57q15 0 19.5-13t-3.5-20L278 274q-11-11 0-24L503 33q10-9 4-21T487 0h-72q-11 0-26 15z"/><glyph glyph-name="Lacute" unicode="Ĺ" d="M215 680V105q0-10 10-10h244q8 0 14-6t6-14V20q0-8-6-14t-14-6H140q-8 0-14 6t-6 14v660q0 8 6 14t14 6h55q8 0 14-6t6-14zm45 215h79q9 0 12.5-8.5T350 874L242 762q-12-12-30-12h-40q-9 0-13.5 7t-.5 13l76 109q11 16 26 16z"/><glyph glyph-name="lacute" unicode="ĺ" d="M236 624H131q-8 0-14 6t-6 14v43q0 8 6 14t14 6h185q8 0 14-6t6-14V95q0-10 10-10h113q8 0 14-6t6-14V20q0-8-6-14t-14-6H111q-8 0-14 6t-6 14v45q0 8 6 14t14 6h125q10 0 10 10v519q0 10-10 10zm94 271h79q9 0 12.5-8.5T420 874L312 762q-12-12-30-12h-40q-9 0-13.5 7t-.5 13l76 109q11 16 26 16z"/><glyph glyph-name="Lcommaaccent" unicode="Ļ" d="M215 680V105q0-10 10-10h244q8 0 14-6t6-14V20q0-8-6-14t-14-6H140q-8 0-14 6t-6 14v660q0 8 6 14t14 6h55q8 0 14-6t6-14zm53-826h-7q-8 0-14 6t-6 14v61q0 8 6 14t14 6h70q8 0 14-6t6-14v-61q0-34-20-62l-32-46q-10-15-26-15h-9q-14 0-19 11t1 22l31 57q3 5-.5 9t-8.5 4z"/><glyph glyph-name="lcommaaccent" unicode="ļ" d="M236 624H131q-8 0-14 6t-6 14v43q0 8 6 14t14 6h185q8 0 14-6t6-14V95q0-10 10-10h113q8 0 14-6t6-14V20q0-8-6-14t-14-6H111q-8 0-14 6t-6 14v45q0 8 6 14t14 6h125q10 0 10 10v519q0 10-10 10zm22-770h-7q-8 0-14 6t-6 14v61q0 8 6 14t14 6h70q8 0 14-6t6-14v-61q0-34-20-62l-32-46q-10-15-26-15h-9q-14 0-19 11t1 22l31 57q3 5-.5 9t-8.5 4z"/><glyph glyph-name="Lcaron" unicode="Ľ" d="M215 680V105q0-10 10-10h244q8 0 14-6t6-14V20q0-8-6-14t-14-6H140q-8 0-14 6t-6 14v660q0 8 6 14t14 6h55q8 0 14-6t6-14zm131-81h-7q-8 0-14 6t-6 14v61q0 8 6 14t14 6h70q8 0 14-6t6-14v-61q0-34-20-62l-32-46q-10-15-26-15h-9q-14 0-19 11t1 22l31 57q3 5-.5 9t-8.5 4z"/><glyph glyph-name="lcaron" unicode="ľ" d="M236 624H131q-8 0-14 6t-6 14v43q0 8 6 14t14 6h185q8 0 14-6t6-14V95q0-10 10-10h113q8 0 14-6t6-14V20q0-8-6-14t-14-6H111q-8 0-14 6t-6 14v45q0 8 6 14t14 6h125q10 0 10 10v519q0 10-10 10zm230-25h-7q-8 0-14 6t-6 14v61q0 8 6 14t14 6h70q8 0 14-6t6-14v-61q0-34-20-62l-32-46q-10-15-26-15h-9q-14 0-19 11t1 22l31 57q3 5-.5 9t-8.5 4z"/><glyph glyph-name="Ldot" unicode="Ŀ" d="M215 680V105q0-10 10-10h244q8 0 14-6t6-14V20q0-8-6-14t-14-6H140q-8 0-14 6t-6 14v660q0 8 6 14t14 6h55q8 0 14-6t6-14zm190-346v-69q0-16-16-16h-68q-16 0-16 16v69q0 6 4.5 11t11.5 5h68q7 0 11.5-5t4.5-11z"/><glyph glyph-name="ldot" unicode="ŀ" d="M236 624H131q-8 0-14 6t-6 14v43q0 8 6 14t14 6h185q8 0 14-6t6-14V95q0-10 10-10h113q8 0 14-6t6-14V20q0-8-6-14t-14-6H111q-8 0-14 6t-6 14v45q0 8 6 14t14 6h125q10 0 10 10v519q0 10-10 10zm288-290v-69q0-16-16-16h-68q-16 0-16 16v69q0 6 4.5 11t11.5 5h68q7 0 11.5-5t4.5-11z"/><glyph glyph-name="Lslash" unicode="Ł" d="M215 292V105q0-10 10-10h244q8 0 14-6t6-14V20q0-8-6-14t-14-6H140q-8 0-14 6t-6 14v200q0 4-4 5.5t-5-.5l-33-23q-8-6-18-1.5T50 216v48q0 18 15 28l47 33q8 6 8 14v341q0 8 6 14t14 6h55q8 0 14-6t6-14V408q0-3 3-4.5t6 .5l116 82q7 5 16 .5t9-14.5v-52q0-14-20-30l-124-88q-6-4-6-10z"/><glyph glyph-name="lslash" unicode="ł" d="M246 369v245q0 10-10 10H131q-8 0-14 6t-6 14v43q0 8 6 14t14 6h185q8 0 14-6t6-14V438q0-3 3-4.5t6 .5l51 36q7 5 16 .5t9-14.5v-52q0-14-20-30l-59-42q-6-4-6-10V95q0-10 10-10h113q8 0 14-6t6-14V20q0-8-6-14t-14-6H111q-8 0-14 6t-6 14v45q0 8 6 14t14 6h125q10 0 10 10v155q0 4-4 5.5t-5-.5l-33-23q-8-6-18-1.5T176 246v48q0 18 15 28l47 33q8 6 8 14z"/><glyph glyph-name="Nacute" unicode="Ń" d="M485 680V20q0-8-6-14t-14-6h-83q-15 0-21 17L164 512q-2 3-5 2.5t-3-4.5V20q0-8-6-14t-14-6H85q-8 0-14 6t-6 14v660q0 8 6 14t14 6h83q15 0 21-17l197-493q2-3 5-2.5t3 4.5v488q0 8 6 14t14 6h51q8 0 14-6t6-14zM330 895h79q9 0 12.5-8.5T420 874L312 762q-12-12-30-12h-40q-9 0-13.5 7t-.5 13l76 109q11 16 26 16z"/><glyph glyph-name="nacute" unicode="ń" d="M183 477q9 0 38 16.5t69 16.5q80 0 135-54t55-136V20q0-8-6-14t-14-6h-50q-8 0-14 6t-6 14v300q0 43-31.5 71.5T280 420t-78.5-26-31.5-69V20q0-8-6-14t-14-6h-50q-8 0-14 6t-6 14v460q0 8 6 14t14 6h44q7 0 14-7 14-16 25-16zm147 253h79q9 0 12.5-8t-1.5-13L312 597q-12-12-30-12h-40q-9 0-13.5 7t-.5 13l76 109q11 16 26 16z"/><glyph glyph-name="Ncommaaccent" unicode="Ņ" d="M485 680V20q0-8-6-14t-14-6h-83q-15 0-21 17L164 512q-2 3-5 2.5t-3-4.5V20q0-8-6-14t-14-6H85q-8 0-14 6t-6 14v660q0 8 6 14t14 6h83q15 0 21-17l197-493q2-3 5-2.5t3 4.5v488q0 8 6 14t14 6h51q8 0 14-6t6-14zM248-146h-7q-8 0-14 6t-6 14v61q0 8 6 14t14 6h70q8 0 14-6t6-14v-61q0-34-20-62l-32-46q-10-15-26-15h-9q-14 0-19 11t1 22l31 57q3 5-.5 9t-8.5 4z"/><glyph glyph-name="ncommaaccent" unicode="ņ" d="M183 477q9 0 38 16.5t69 16.5q80 0 135-54t55-136V20q0-8-6-14t-14-6h-50q-8 0-14 6t-6 14v300q0 43-31.5 71.5T280 420t-78.5-26-31.5-69V20q0-8-6-14t-14-6h-50q-8 0-14 6t-6 14v460q0 8 6 14t14 6h44q7 0 14-7 14-16 25-16zm65-623h-7q-8 0-14 6t-6 14v61q0 8 6 14t14 6h70q8 0 14-6t6-14v-61q0-34-20-62l-32-46q-10-15-26-15h-9q-14 0-19 11t1 22l31 57q3 5-.5 9t-8.5 4z"/><glyph glyph-name="Ncaron" unicode="Ň" d="M485 680V20q0-8-6-14t-14-6h-83q-15 0-21 17L164 512q-2 3-5 2.5t-3-4.5V20q0-8-6-14t-14-6H85q-8 0-14 6t-6 14v660q0 8 6 14t14 6h83q15 0 21-17l197-493q2-3 5-2.5t3 4.5v488q0 8 6 14t14 6h51q8 0 14-6t6-14zM217 879l50-49q7-7 14 0l51 49q16 16 31 16h59q9 0 12.5-8.5T433 874L325 762q-12-12-29-12h-42q-18 0-30 12L116 874q-5 4-1.5 12.5T127 895h59q15 0 31-16z"/><glyph glyph-name="ncaron" unicode="ň" d="M183 477q9 0 38 16.5t69 16.5q80 0 135-54t55-136V20q0-8-6-14t-14-6h-50q-8 0-14 6t-6 14v300q0 43-31.5 71.5T280 420t-78.5-26-31.5-69V20q0-8-6-14t-14-6h-50q-8 0-14 6t-6 14v460q0 8 6 14t14 6h44q7 0 14-7 14-16 25-16zm34 237l50-49q7-7 14 0l51 49q16 16 31 16h59q9 0 12.5-8t-1.5-13L325 597q-12-12-29-12h-42q-18 0-30 12L116 709q-5 5-1.5 13t12.5 8h59q15 0 31-16z"/><glyph glyph-name="Eng" unicode="Ŋ" d="M395 0L164 512q-2 3-5 2.5t-3-4.5V20q0-8-6-14t-14-6H85q-8 0-14 6t-6 14v660q0 8 6 14t14 6h75q15 0 21-17l205-447q2-3 5-2.5t3 4.5v442q0 8 6 14t14 6h51q8 0 14-6t6-14V-30q0-74-48-127t-120-53q-8 0-14 6t-6 14v50q0 8 6 14t14 6q32 0 55 25.5T395-30V0z"/><glyph glyph-name="eng" unicode="ŋ" d="M312-120q32 0 55 25.5T390-30v350q0 47-30.5 73.5T280 420q-47 0-78.5-26T170 325V20q0-8-6-14t-14-6h-50q-8 0-14 6t-6 14v460q0 8 6 14t14 6h44q8 0 18.5-11.5T183 477q9 0 38 16.5t69 16.5q85 0 137.5-51.5T480 320V-30q0-74-48-127t-120-53q-8 0-14 6t-6 14v50q0 8 6 14t14 6z"/><glyph glyph-name="Omacron" unicode="Ō" d="M275 613q-51 0-87-30t-43-83q-7-62-7-150.5t7-149.5q6-47 40.5-80T275 87q51 0 87 30t43 83q9 63 8.5 150T405 500q-6 48-40 80.5T275 613zm0 95q91 0 152-56t73-152q7-62 7-150t-7-150q-10-87-70-147.5T275-8q-91 0-152 56T50 200q-8 61-8 150.5T50 500q10 87 70.5 147.5T275 708zm121 53H154q-8 0-14 6t-6 14v38q0 8 6 14t14 6h242q8 0 14-6t6-14v-38q0-8-6-14t-14-6z"/><glyph glyph-name="omacron" unicode="ō" d="M275 510q87 0 143-54.5T480 320q5-70 0-140-6-81-62-135.5T275-10 132 44.5 70 180q-5 70 0 140 6 81 62 135.5T275 510zm0-430q50 0 81 29t34 71q5 70 0 140-3 42-34 71t-81 29-81-29-34-71q-5-70 0-140 3-42 34-71t81-29zm121 536H154q-8 0-14 6t-6 14v38q0 8 6 14t14 6h242q8 0 14-6t6-14v-38q0-8-6-14t-14-6z"/><glyph glyph-name="Obreve" unicode="Ŏ" d="M275 613q-51 0-87-30t-43-83q-7-62-7-150.5t7-149.5q6-47 40.5-80T275 87q51 0 87 30t43 83q9 63 8.5 150T405 500q-6 48-40 80.5T275 613zm0 95q91 0 152-56t73-152q7-62 7-150t-7-150q-10-87-70-147.5T275-8q-91 0-152 56T50 200q-8 61-8 150.5T50 500q10 87 70.5 147.5T275 708zm60 170q0 7 5 12t12 5h43q7 0 12-5t5-12q0-54-39-91t-98-37q-60 0-99 37t-39 91q0 7 5 12t12 5h43q7 0 12-5t5-12q0-23 18.5-39.5T275 822t42 16.5 18 39.5z"/><glyph glyph-name="obreve" unicode="ŏ" d="M275 510q87 0 143-54.5T480 320q5-70 0-140-6-81-62-135.5T275-10 132 44.5 70 180q-5 70 0 140 6 81 62 135.5T275 510zm0-430q50 0 81 29t34 71q5 70 0 140-3 42-34 71t-81 29-81-29-34-71q-5-70 0-140 3-42 34-71t81-29zm60 633q0 7 5 12t12 5h43q7 0 12-5t5-12q0-54-39-91t-98-37q-60 0-99 37t-39 91q0 7 5 12t12 5h43q7 0 12-5t5-12q0-23 18.5-39.5T275 657t42 16.5 18 39.5z"/><glyph glyph-name="Ohungarumlaut" unicode="Ő" d="M275 613q-51 0-87-30t-43-83q-7-62-7-150.5t7-149.5q6-47 40.5-80T275 87q51 0 87 30t43 83q9 63 8.5 150T405 500q-6 48-40 80.5T275 613zm0 95q91 0 152-56t73-152q7-62 7-150t-7-150q-10-87-70-147.5T275-8q-91 0-152 56T50 200q-8 61-8 150.5T50 500q10 87 70.5 147.5T275 708zm-29 188h79q9 0 12.5-8t-1.5-13L228 763q-12-12-30-12h-40q-9 0-13.5 7t-.5 13l76 109q11 16 26 16zm170 0h79q9 0 12.5-8t-1.5-13L398 763q-12-12-30-12h-40q-9 0-13.5 7t-.5 13l76 109q11 16 26 16z"/><glyph glyph-name="ohungarumlaut" unicode="ő" d="M275 510q87 0 143-54.5T480 320q5-70 0-140-6-81-62-135.5T275-10 132 44.5 70 180q-5 70 0 140 6 81 62 135.5T275 510zm0-430q50 0 81 29t34 71q5 70 0 140-3 42-34 71t-81 29-81-29-34-71q-5-70 0-140 3-42 34-71t81-29zm-29 650h79q9 0 12.5-8t-1.5-13L228 597q-12-12-30-12h-40q-9 0-13.5 7t-.5 13l76 109q11 16 26 16zm170 0h79q9 0 12.5-8t-1.5-13L398 597q-12-12-30-12h-40q-9 0-13.5 7t-.5 13l76 109q11 16 26 16z"/><glyph glyph-name="OE" unicode="Œ" d="M275 700h233q8 0 14-6t6-14v-55q0-8-6-14t-14-6H380q-10 0-10-10V415q0-10 10-10h117q8 0 14-6t6-14v-55q0-8-6-14t-14-6H380q-10 0-10-10V105q0-10 10-10h130q8 0 14-6t6-14V20q0-8-6-14t-14-6H275q-92 0-152.5 52.5T50 200q-8 61-8 150.5T50 500q10 86 70 143t155 57zM265 95q10 0 10 10v490q0 10-10 10-48-2-81-28.5T145 500q-8-63-8-150t8-150q6-44 37.5-74.5T265 95z"/><glyph glyph-name="oe" unicode="œ" d="M287 29q-14 13-30 0-44-39-88-39-77 0-115.5 74.5T15 255q0 113 39 184t115 71q10 0 19-1t17-4 12.5-4.5 12-7 10-7.5 10.5-9 10-9q16-13 30 0 43 42 99 42 67 0 106-62.5T534 290v-49q0-8-6-14t-14-6H328q-10 0-10-10 0-136 71-136 24 0 41 19.5t17 48.5q0 17 23 17h41q17 0 17-20 0-62-39-106T389-10q-60 0-102 39zm33 282q0-10 10-10h108q10 0 10 10 0 51-16.5 82.5T390 425q-35 0-52.5-32.5T320 311zm-220-56q0-40 2.5-69t9.5-55 21.5-39T169 79t35.5 13 21.5 39 9.5 55 2.5 69-2.5 69-9.5 55-21.5 39-35.5 13-35.5-13-21.5-39-9.5-55-2.5-69z"/><glyph glyph-name="Racute" unicode="Ŕ" d="M290 605h-95q-10 0-10-10V385q0-10 10-10h95q46 0 80.5 34t34.5 81-34 81-81 34zm-34-325h-61q-10 0-10-10V20q0-8-6-14t-14-6h-55q-8 0-14 6t-6 14v660q0 8 6 14t14 6h180q87 0 148.5-61.5T500 490q0-56-28.5-103.5T396 311q-28-16-17-38L497 30q6-11 .5-20.5T478 0h-56q-19 0-29 20L275 268q-6 12-19 12zm64 615h79q9 0 12.5-8.5T410 874L302 762q-12-12-30-12h-40q-9 0-13.5 7t-.5 13l76 109q11 16 26 16z"/><glyph glyph-name="racute" unicode="ŕ" d="M413 340q0 35-28 57.5T315 420q-49 0-84.5-26.5T195 325V20q0-8-6-14t-14-6h-50q-8 0-14 6t-6 14v460q0 8 6 14t14 6h44q7 0 14-7 14-16 25-16 9 0 41.5 16.5T325 510q74 0 126.5-49T504 340q0-8-6-14t-14-6h-51q-8 0-14 6t-6 14zm-73 390h79q9 0 12.5-8t-1.5-13L322 597q-12-12-30-12h-40q-9 0-13.5 7t-.5 13l76 109q11 16 26 16z"/><glyph glyph-name="Rcommaaccent" unicode="Ŗ" d="M290 605h-95q-10 0-10-10V385q0-10 10-10h95q46 0 80.5 34t34.5 81-34 81-81 34zm-34-325h-61q-10 0-10-10V20q0-8-6-14t-14-6h-55q-8 0-14 6t-6 14v660q0 8 6 14t14 6h180q87 0 148.5-61.5T500 490q0-56-28.5-103.5T396 311q-28-16-17-38L497 30q6-11 .5-20.5T478 0h-56q-19 0-29 20L275 268q-6 12-19 12zm-8-426h-7q-8 0-14 6t-6 14v61q0 8 6 14t14 6h70q8 0 14-6t6-14v-61q0-34-20-62l-32-46q-10-15-26-15h-9q-14 0-19 11t1 22l31 57q3 5-.5 9t-8.5 4z"/><glyph glyph-name="rcommaaccent" unicode="ŗ" d="M413 340q0 35-28 57.5T315 420q-49 0-84.5-26.5T195 325V20q0-8-6-14t-14-6h-50q-8 0-14 6t-6 14v460q0 8 6 14t14 6h44q7 0 14-7 14-16 25-16 9 0 41.5 16.5T325 510q74 0 126.5-49T504 340q0-8-6-14t-14-6h-51q-8 0-14 6t-6 14zM122-146h-7q-8 0-14 6t-6 14v61q0 8 6 14t14 6h70q8 0 14-6t6-14v-61q0-34-20-62l-32-46q-10-15-26-15h-9q-14 0-19 11t1 22l31 57q3 5-.5 9t-8.5 4z"/><glyph glyph-name="Rcaron" unicode="Ř" d="M290 605h-95q-10 0-10-10V385q0-10 10-10h95q46 0 80.5 34t34.5 81-34 81-81 34zm-34-325h-61q-10 0-10-10V20q0-8-6-14t-14-6h-55q-8 0-14 6t-6 14v660q0 8 6 14t14 6h180q87 0 148.5-61.5T500 490q0-56-28.5-103.5T396 311q-28-16-17-38L497 30q6-11 .5-20.5T478 0h-56q-19 0-29 20L275 268q-6 12-19 12zm-39 599l50-49q7-7 14 0l51 49q16 16 31 16h59q9 0 12.5-8.5T433 874L325 762q-12-12-29-12h-42q-18 0-30 12L116 874q-5 4-1.5 12.5T127 895h59q15 0 31-16z"/><glyph glyph-name="rcaron" unicode="ř" d="M413 340q0 35-28 57.5T315 420q-49 0-84.5-26.5T195 325V20q0-8-6-14t-14-6h-50q-8 0-14 6t-6 14v460q0 8 6 14t14 6h44q7 0 14-7 14-16 25-16 9 0 41.5 16.5T325 510q74 0 126.5-49T504 340q0-8-6-14t-14-6h-51q-8 0-14 6t-6 14zM237 714l50-49q7-7 14 0l51 49q16 16 31 16h59q9 0 12.5-8t-1.5-13L345 597q-12-12-29-12h-42q-18 0-30 12L136 709q-5 5-1.5 13t12.5 8h59q15 0 31-16z"/><glyph glyph-name="Sacute" unicode="Ś" d="M404 200q0 27-9 47t-19.5 31.5-38 22-43.5 15-58 13.5q-76 17-121.5 64.5T69 520q0 86 62 137t144 51q88 0 146.5-55T480 520v-13q0-8-6-14t-14-6h-55q-8 0-14 6t-6 14v13q0 46-33 69.5T275 613q-49 0-79.5-25.5T165 520q0-18 4-33t15-25.5 18.5-17.5 27-13.5 26.5-9 31-8 28-6.5q185-45 185-207 0-93-67-150.5T275-8q-96 0-160.5 61T50 200v16q0 8 6 14t14 6h56q8 0 14-6t6-14v-16q0-49 36.5-81T275 87t92.5 32.5T404 200zm-64 695h79q9 0 12.5-8.5T430 874L322 762q-12-12-30-12h-40q-9 0-13.5 7t-.5 13l76 109q11 16 26 16z"/><glyph glyph-name="sacute" unicode="ś" d="M77 163q0 8 6 14t14 6h50q8 0 14-6t6-14q0-87 108-87 107 0 107 74 0 30-26.5 44T275 219q-34 7-51.5 11.5t-46.5 16-44 25-27 38T94 365q0 65 54.5 105T275 510t125-41 53-109q0-8-6-14t-14-6h-50q-8 0-14 6t-6 14q0 28-22 46.5T275 425q-43 0-65.5-18T187 365q0-25 22-36.5t66-19.5q27-5 38.5-7t37-9 38-13.5 31.5-19 28.5-27 16.5-36 7-47.5q0-76-57-118T275-10 134.5 33.5 77 163zm253 567h79q9 0 12.5-8t-1.5-13L312 597q-12-12-30-12h-40q-9 0-13.5 7t-.5 13l76 109q11 16 26 16z"/><glyph glyph-name="Scircumflex" unicode="Ŝ" d="M404 200q0 27-9 47t-19.5 31.5-38 22-43.5 15-58 13.5q-76 17-121.5 64.5T69 520q0 86 62 137t144 51q88 0 146.5-55T480 520v-13q0-8-6-14t-14-6h-55q-8 0-14 6t-6 14v13q0 46-33 69.5T275 613q-49 0-79.5-25.5T165 520q0-18 4-33t15-25.5 18.5-17.5 27-13.5 26.5-9 31-8 28-6.5q185-45 185-207 0-93-67-150.5T275-8q-96 0-160.5 61T50 200v16q0 8 6 14t14 6h56q8 0 14-6t6-14v-16q0-49 36.5-81T275 87t92.5 32.5T404 200zM267 815l-50-49q-16-16-31-16h-59q-9 0-12.5 8t1.5 13l108 112q12 12 30 12h42q17 0 29-12l108-112q5-5 1.5-13t-12.5-8h-59q-15 0-31 16l-51 49q-7 7-14 0z"/><glyph glyph-name="scircumflex" unicode="ŝ" d="M77 163q0 8 6 14t14 6h50q8 0 14-6t6-14q0-87 108-87 107 0 107 74 0 30-26.5 44T275 219q-34 7-51.5 11.5t-46.5 16-44 25-27 38T94 365q0 65 54.5 105T275 510t125-41 53-109q0-8-6-14t-14-6h-50q-8 0-14 6t-6 14q0 28-22 46.5T275 425q-43 0-65.5-18T187 365q0-25 22-36.5t66-19.5q27-5 38.5-7t37-9 38-13.5 31.5-19 28.5-27 16.5-36 7-47.5q0-76-57-118T275-10 134.5 33.5 77 163zm190 487l-50-49q-16-16-31-16h-59q-9 0-12.5 8.5T116 606l108 112q12 12 30 12h42q17 0 29-12l108-112q5-4 1.5-12.5T422 585h-59q-15 0-31 16l-51 49q-7 7-14 0z"/><glyph glyph-name="Scedilla" unicode="Ş" d="M404 200q0 27-9 47t-19.5 31.5-38 22-43.5 15-58 13.5q-76 17-121.5 64.5T69 520q0 86 62 137t144 51q88 0 146.5-55T480 520v-13q0-8-6-14t-14-6h-55q-8 0-14 6t-6 14v13q0 46-33 69.5T275 613q-49 0-79.5-25.5T165 520q0-18 4-33t15-25.5 18.5-17.5 27-13.5 26.5-9 31-8 28-6.5q185-45 185-207 0-93-67-150.5T275-8q-96 0-160.5 61T50 200v16q0 8 6 14t14 6h56q8 0 14-6t6-14v-16q0-49 36.5-81T275 87t92.5 32.5T404 200zM318-63l-28-121q-4-16-19-16h-63q-9 0-13.5 5.5T192-182l38 121q4 16 19 16h53q20 0 16-18z"/><glyph glyph-name="scedilla" unicode="ş" d="M77 163q0 8 6 14t14 6h50q8 0 14-6t6-14q0-87 108-87 107 0 107 74 0 30-26.5 44T275 219q-34 7-51.5 11.5t-46.5 16-44 25-27 38T94 365q0 65 54.5 105T275 510t125-41 53-109q0-8-6-14t-14-6h-50q-8 0-14 6t-6 14q0 28-22 46.5T275 425q-43 0-65.5-18T187 365q0-25 22-36.5t66-19.5q27-5 38.5-7t37-9 38-13.5 31.5-19 28.5-27 16.5-36 7-47.5q0-76-57-118T275-10 134.5 33.5 77 163zM328-63l-28-121q-4-16-19-16h-63q-9 0-13.5 5.5T202-182l38 121q4 16 19 16h53q20 0 16-18z"/><glyph glyph-name="Scaron" unicode="Š" d="M404 200q0 27-9 47t-19.5 31.5-38 22-43.5 15-58 13.5q-76 17-121.5 64.5T69 520q0 86 62 137t144 51q88 0 146.5-55T480 520v-13q0-8-6-14t-14-6h-55q-8 0-14 6t-6 14v13q0 46-33 69.5T275 613q-49 0-79.5-25.5T165 520q0-18 4-33t15-25.5 18.5-17.5 27-13.5 26.5-9 31-8 28-6.5q185-45 185-207 0-93-67-150.5T275-8q-96 0-160.5 61T50 200v16q0 8 6 14t14 6h56q8 0 14-6t6-14v-16q0-49 36.5-81T275 87t92.5 32.5T404 200zM217 879l50-49q7-7 14 0l51 49q16 16 31 16h59q9 0 12.5-8.5T433 874L325 762q-12-12-29-12h-42q-18 0-30 12L116 874q-5 4-1.5 12.5T127 895h59q15 0 31-16z"/><glyph glyph-name="scaron" unicode="š" d="M77 163q0 8 6 14t14 6h50q8 0 14-6t6-14q0-87 108-87 107 0 107 74 0 30-26.5 44T275 219q-34 7-51.5 11.5t-46.5 16-44 25-27 38T94 365q0 65 54.5 105T275 510t125-41 53-109q0-8-6-14t-14-6h-50q-8 0-14 6t-6 14q0 28-22 46.5T275 425q-43 0-65.5-18T187 365q0-25 22-36.5t66-19.5q27-5 38.5-7t37-9 38-13.5 31.5-19 28.5-27 16.5-36 7-47.5q0-76-57-118T275-10 134.5 33.5 77 163zm140 551l50-49q7-7 14 0l51 49q16 16 31 16h59q9 0 12.5-8t-1.5-13L325 597q-12-12-29-12h-42q-18 0-30 12L116 709q-5 5-1.5 13t12.5 8h59q15 0 31-16z"/><glyph glyph-name="Tcommaaccent" unicode="Ţ" d="M218 605H85q-8 0-14 6t-6 14v55q0 8 6 14t14 6h380q8 0 14-6t6-14v-55q0-8-6-14t-14-6H333q-10 0-10-10V20q0-8-6-14t-14-6h-55q-8 0-14 6t-6 14v575q0 10-10 10zm30-751h-7q-8 0-14 6t-6 14v61q0 8 6 14t14 6h70q8 0 14-6t6-14v-61q0-34-20-62l-32-46q-10-15-26-15h-9q-14 0-19 11t1 22l31 57q3 5-.5 9t-8.5 4z"/><glyph glyph-name="tcommaaccent" unicode="ţ" d="M270 395V150q0-28 20-49t50-21 50 21 20 49q0 8 6 14t14 6h50q8 0 14-6t6-14q0-66-47-113T340-10 227 37t-47 113v245q0 10-10 10H70q-8 0-14 6t-6 14v50q0 8 6 14t14 6h100q10 0 10 10v155q0 8 6 14t14 6h50q8 0 14-6t6-14V505q0-10 10-10h160q8 0 14-6t6-14v-50q0-8-6-14t-14-6H280q-10 0-10-10zm-22-541h-7q-8 0-14 6t-6 14v61q0 8 6 14t14 6h70q8 0 14-6t6-14v-61q0-34-20-62l-32-46q-10-15-26-15h-9q-14 0-19 11t1 22l31 57q3 5-.5 9t-8.5 4z"/><glyph glyph-name="Tcaron" unicode="Ť" d="M218 605H85q-8 0-14 6t-6 14v55q0 8 6 14t14 6h380q8 0 14-6t6-14v-55q0-8-6-14t-14-6H333q-10 0-10-10V20q0-8-6-14t-14-6h-55q-8 0-14 6t-6 14v575q0 10-10 10zm-1 274l50-49q7-7 14 0l51 49q16 16 31 16h59q9 0 12.5-8.5T433 874L325 762q-12-12-29-12h-42q-18 0-30 12L116 874q-5 4-1.5 12.5T127 895h59q15 0 31-16z"/><glyph glyph-name="tcaron" unicode="ť" d="M270 395V150q0-28 20-49t50-21 50 21 20 49q0 8 6 14t14 6h50q8 0 14-6t6-14q0-66-47-113T340-10 227 37t-47 113v245q0 10-10 10H70q-8 0-14 6t-6 14v50q0 8 6 14t14 6h100q10 0 10 10v155q0 8 6 14t14 6h50q8 0 14-6t6-14V505q0-10 10-10h100q8 0 14-6t6-14v-50q0-8-6-14t-14-6H280q-10 0-10-10zm176 204h-7q-8 0-14 6t-6 14v61q0 8 6 14t14 6h70q8 0 14-6t6-14v-61q0-34-20-62l-32-46q-10-15-26-15h-9q-14 0-19 11t1 22l31 57q3 5-.5 9t-8.5 4z"/><glyph glyph-name="Tbar" unicode="Ŧ" d="M228 20v380q0 10-10 10H105q-8 0-14 6t-6 14v50q0 8 6 14t14 6h113q10 0 10 10v85q0 10-10 10H85q-8 0-14 6t-6 14v55q0 8 6 14t14 6h380q8 0 14-6t6-14v-55q0-8-6-14t-14-6H333q-10 0-10-10v-85q0-10 10-10h112q8 0 14-6t6-14v-50q0-8-6-14t-14-6H333q-10 0-10-10V20q0-8-6-14t-14-6h-55q-8 0-14 6t-6 14z"/><glyph glyph-name="tbar" unicode="ŧ" d="M270 221v-71q0-28 20-49t50-21 50 21 20 49q0 8 6 14t14 6h50q8 0 14-6t6-14q0-66-47-113T340-10 227 37t-47 113v71q0 10-10 10H75q-8 0-14 6t-6 14v45q0 8 6 14t14 6h95q10 0 10 10v69q0 10-10 10H70q-8 0-14 6t-6 14v50q0 8 6 14t14 6h100q10 0 10 10v155q0 8 6 14t14 6h50q8 0 14-6t6-14V505q0-10 10-10h160q8 0 14-6t6-14v-50q0-8-6-14t-14-6H280q-10 0-10-10v-69q0-10 10-10h130q8 0 14-6t6-14v-45q0-8-6-14t-14-6H280q-10 0-10-10z"/><glyph glyph-name="Utilde" unicode="Ũ" d="M145 680V200q0-56 38-84.5T275 87q57 0 93.5 32.5T405 200v480q0 8 6 14t14 6h55q8 0 14-6t6-14V200q0-89-66.5-148.5T275-8q-97 0-161 59T50 200v480q0 8 6 14t14 6h55q8 0 14-6t6-14zm200 161q29 0 46 21 6 8 15.5 4t9.5-18v-40q0-20-21-35.5T345 757q-31 0-68 12.5T205 782q-28 0-46-21-6-8-15.5-3.5T134 775v40q0 20 21 35.5t50 15.5q31 0 68-12.5t72-12.5z"/><glyph glyph-name="utilde" unicode="ũ" d="M372 23q-9 0-36.5-16.5T265-10q-84 0-137 53.5T75 180v300q0 8 6 14t14 6h50q8 0 14-6t6-14V180q0-44 29.5-72T275 80q47 0 78.5 26t31.5 69v305q0 8 6 14t14 6h50q8 0 14-6t6-14V20q0-8-6-14t-14-6h-44q-7 0-14 7-14 16-25 16zm-27 661q29 0 46 21 6 8 15.5 4t9.5-18v-40q0-20-21-35.5T345 600q-31 0-68 12.5T205 625q-28 0-46-21-6-8-15.5-3.5T134 618v40q0 20 21 35.5t50 15.5q31 0 68-12.5t72-12.5z"/><glyph glyph-name="Umacron" unicode="Ū" d="M145 680V200q0-56 38-84.5T275 87q57 0 93.5 32.5T405 200v480q0 8 6 14t14 6h55q8 0 14-6t6-14V200q0-89-66.5-148.5T275-8q-97 0-161 59T50 200v480q0 8 6 14t14 6h55q8 0 14-6t6-14zm251 81H154q-8 0-14 6t-6 14v38q0 8 6 14t14 6h242q8 0 14-6t6-14v-38q0-8-6-14t-14-6z"/><glyph glyph-name="umacron" unicode="ū" d="M372 23q-9 0-36.5-16.5T265-10q-84 0-137 53.5T75 180v300q0 8 6 14t14 6h50q8 0 14-6t6-14V180q0-44 29.5-72T275 80q47 0 78.5 26t31.5 69v305q0 8 6 14t14 6h50q8 0 14-6t6-14V20q0-8-6-14t-14-6h-44q-7 0-14 7-14 16-25 16zm24 593H154q-8 0-14 6t-6 14v38q0 8 6 14t14 6h242q8 0 14-6t6-14v-38q0-8-6-14t-14-6z"/><glyph glyph-name="Ubreve" unicode="Ŭ" d="M145 680V200q0-56 38-84.5T275 87q57 0 93.5 32.5T405 200v480q0 8 6 14t14 6h55q8 0 14-6t6-14V200q0-89-66.5-148.5T275-8q-97 0-161 59T50 200v480q0 8 6 14t14 6h55q8 0 14-6t6-14zm190 198q0 7 5 12t12 5h43q7 0 12-5t5-12q0-54-39-91t-98-37q-60 0-99 37t-39 91q0 7 5 12t12 5h43q7 0 12-5t5-12q0-23 18.5-39.5T275 822t42 16.5 18 39.5z"/><glyph glyph-name="ubreve" unicode="ŭ" d="M372 23q-9 0-36.5-16.5T265-10q-84 0-137 53.5T75 180v300q0 8 6 14t14 6h50q8 0 14-6t6-14V180q0-44 29.5-72T275 80q47 0 78.5 26t31.5 69v305q0 8 6 14t14 6h50q8 0 14-6t6-14V20q0-8-6-14t-14-6h-44q-7 0-14 7-14 16-25 16zm-37 690q0 7 5 12t12 5h43q7 0 12-5t5-12q0-54-39-91t-98-37q-60 0-99 37t-39 91q0 7 5 12t12 5h43q7 0 12-5t5-12q0-23 18.5-39.5T275 657t42 16.5 18 39.5z"/><glyph glyph-name="Uring" unicode="Ů" d="M145 680V200q0-56 38-84.5T275 87q57 0 93.5 32.5T405 200v480q0 8 6 14t14 6h55q8 0 14-6t6-14V200q0-89-66.5-148.5T275-8q-97 0-161 59T50 200v480q0 8 6 14t14 6h55q8 0 14-6t6-14zm20 160q0 46 32 78t78 32 78-32 32-78-32-78-78-32-78 32-32 78zm70 0q0-17 11.5-28.5T275 800t28.5 11.5T315 840t-11.5 28.5T275 880t-28.5-11.5T235 840z"/><glyph glyph-name="uring" unicode="ů" d="M372 23q-9 0-36.5-16.5T265-10q-84 0-137 53.5T75 180v300q0 8 6 14t14 6h50q8 0 14-6t6-14V180q0-44 29.5-72T275 80q47 0 78.5 26t31.5 69v305q0 8 6 14t14 6h50q8 0 14-6t6-14V20q0-8-6-14t-14-6h-44q-7 0-14 7-14 16-25 16zM165 670q0 46 32 78t78 32 78-32 32-78-32-78-78-32-78 32-32 78zm70 0q0-17 11.5-28.5T275 630t28.5 11.5T315 670t-11.5 28.5T275 710t-28.5-11.5T235 670z"/><glyph glyph-name="Uhungarumlaut" unicode="Ű" d="M145 680V200q0-56 38-84.5T275 87q57 0 93.5 32.5T405 200v480q0 8 6 14t14 6h55q8 0 14-6t6-14V200q0-89-66.5-148.5T275-8q-97 0-161 59T50 200v480q0 8 6 14t14 6h55q8 0 14-6t6-14zm101 216h79q9 0 12.5-8t-1.5-13L228 763q-12-12-30-12h-40q-9 0-13.5 7t-.5 13l76 109q11 16 26 16zm170 0h79q9 0 12.5-8t-1.5-13L398 763q-12-12-30-12h-40q-9 0-13.5 7t-.5 13l76 109q11 16 26 16z"/><glyph glyph-name="uhungarumlaut" unicode="ű" d="M372 23q-9 0-36.5-16.5T265-10q-84 0-137 53.5T75 180v300q0 8 6 14t14 6h50q8 0 14-6t6-14V180q0-44 29.5-72T275 80q47 0 78.5 26t31.5 69v305q0 8 6 14t14 6h50q8 0 14-6t6-14V20q0-8-6-14t-14-6h-44q-7 0-14 7-14 16-25 16zM256 730h79q9 0 12.5-8t-1.5-13L238 597q-12-12-30-12h-40q-9 0-13.5 7t-.5 13l76 109q11 16 26 16zm170 0h79q9 0 12.5-8t-1.5-13L408 597q-12-12-30-12h-40q-9 0-13.5 7t-.5 13l76 109q11 16 26 16z"/><glyph glyph-name="Uogonek" unicode="Ų" d="M145 680V200q0-56 38-84.5T275 87q57 0 93.5 32.5T405 200v480q0 8 6 14t14 6h55q8 0 14-6t6-14V200q0-89-65-147-76-68-76-122 0-66 81-66 8 0 14-6t6-14v-35q0-8-6-14t-14-6q-78 0-121 34.5T276-74q0 30 21 67-5-1-22-1-97 0-161 59T50 200v480q0 8 6 14t14 6h55q8 0 14-6t6-14z"/><glyph glyph-name="uogonek" unicode="ų" d="M165 180q0-44 29.5-72T275 80q47 0 78.5 26t31.5 69v305q0 8 6 14t14 6h50q8 0 14-6t6-14V20q0-8-6-14t-14-6h-7q-34-2-54-20t-20-49q0-66 76-66 8 0 14-6t6-14v-35q0-8-6-14t-14-6q-72 0-115.5 35T291-74q0 39 30 73-23-9-56-9-84 0-137 53.5T75 180v300q0 8 6 14t14 6h50q8 0 14-6t6-14V180z"/><glyph glyph-name="Wcircumflex" unicode="Ŵ" d="M324 485l54-305q1-4 6-4t6 4l45 505q1 15 19 15h49q22 0 20-20L451 15q-1-15-19-15h-91q-17 0-19 15l-42 302q-1 6-4 3l-2-3-56-302q-3-15-19-15h-91Q90 0 89 15L26 680q-2 20 20 20h49q18 0 19-15l41-505q1-4 6-4t6 4l61 305q3 15 19 15h58q16 0 19-15zm-57 330l-50-49q-16-16-31-16h-59q-9 0-12.5 8t1.5 13l108 112q12 12 30 12h42q17 0 29-12l108-112q5-5 1.5-13t-12.5-8h-59q-15 0-31 16l-51 49q-7 7-14 0z"/><glyph glyph-name="wcircumflex" unicode="ŵ" d="M257 390h36q15 0 19-15l50-188q2-6 7-6t7 6l45 298q3 15 19 15h49q11 0 16-7t3-16L423 15q-3-15-19-15h-55q-15 0-19 15l-49 195q-1 5-6 5t-6-5L220 15q-4-15-19-15h-55q-16 0-19 15L42 477q-2 9 3 16t16 7h49q16 0 19-15l45-298q1-6 6.5-6t7.5 6l50 188q4 15 19 15zm10 260l-50-49q-16-16-31-16h-59q-9 0-12.5 8.5T116 606l108 112q12 12 30 12h42q17 0 29-12l108-112q5-4 1.5-12.5T422 585h-59q-15 0-31 16l-51 49q-7 7-14 0z"/><glyph glyph-name="Ycircumflex" unicode="Ŷ" d="M280 374l111 311q5 15 19 15h66q10 0 15-8.5t1-19.5L324 241V20q0-8-6-14t-14-6h-56q-8 0-14 6t-6 14v220L58 672q-4 11 1 19.5t15 8.5h66q14 0 19-15l113-311q4-10 8 0zm-13 441l-50-49q-16-16-31-16h-59q-9 0-12.5 8t1.5 13l108 112q12 12 30 12h42q17 0 29-12l108-112q5-5 1.5-13t-12.5-8h-59q-15 0-31 16l-51 49q-7 7-14 0z"/><glyph glyph-name="ycircumflex" unicode="ŷ" d="M283 160l116 325q5 15 19 15h59q11 0 16.5-7.5T496 477L242-185q-5-15-19-15h-54q-11 0-16.5 7.5T150-177l74 204q3 8 1 13L53 477q-3 8 2.5 15.5T72 500h61q14 0 19-15l123-325q4-10 8 0zm-16 490l-50-49q-16-16-31-16h-59q-9 0-12.5 8.5T116 606l108 112q12 12 30 12h42q17 0 29-12l108-112q5-4 1.5-12.5T422 585h-59q-15 0-31 16l-51 49q-7 7-14 0z"/><glyph glyph-name="Ydieresis" unicode="Ÿ" d="M280 374l111 311q5 15 19 15h66q10 0 15-8.5t1-19.5L324 241V20q0-8-6-14t-14-6h-56q-8 0-14 6t-6 14v220L58 672q-4 11 1 19.5t15 8.5h66q14 0 19-15l113-311q4-10 8 0zm-41 461v-69q0-16-16-16h-68q-16 0-16 16v69q0 6 4.5 11t11.5 5h68q7 0 11.5-5t4.5-11zm171 0v-69q0-16-16-16h-68q-16 0-16 16v69q0 6 4.5 11t11.5 5h68q7 0 11.5-5t4.5-11z"/><glyph glyph-name="Zacute" unicode="Ź" d="M465 592L175 103q-6-10 6-10h279q8 0 14-6t6-14V20q0-8-6-14t-14-6H88q-8 0-14 6t-6 14v75q0 8 5 16l294 487q6 10-6 10H98q-8 0-14 6t-6 14v52q0 8 6 14t14 6h352q8 0 14-6t6-14v-72q0-8-5-16zM330 895h79q9 0 12.5-8.5T420 874L312 762q-12-12-30-12h-40q-9 0-13.5 7t-.5 13l76 109q11 16 26 16z"/><glyph glyph-name="zacute" unicode="ź" d="M88 110l263 294q3 4 1.5 7t-6.5 3H105q-8 0-14 6t-6 14v46q0 8 6 14t14 6h340q8 0 14-6t6-14v-57q0-17-20-41L193 96q-3-4-1.5-7t6.5-3h257q8 0 14-6t6-14V20q0-8-6-14t-14-6H95q-8 0-14 6t-6 14v59q0 16 13 31zm242 620h79q9 0 12.5-8t-1.5-13L312 597q-12-12-30-12h-40q-9 0-13.5 7t-.5 13l76 109q11 16 26 16z"/><glyph glyph-name="Zdotaccent" unicode="Ż" d="M465 592L175 103q-6-10 6-10h279q8 0 14-6t6-14V20q0-8-6-14t-14-6H88q-8 0-14 6t-6 14v75q0 8 5 16l294 487q6 10-6 10H98q-8 0-14 6t-6 14v52q0 8 6 14t14 6h352q8 0 14-6t6-14v-72q0-8-5-16zM318 835v-69q0-16-16-16h-68q-16 0-16 16v69q0 6 4.5 11t11.5 5h68q7 0 11.5-5t4.5-11z"/><glyph glyph-name="zdotaccent" unicode="ż" d="M88 110l263 294q3 4 1.5 7t-6.5 3H105q-8 0-14 6t-6 14v46q0 8 6 14t14 6h340q8 0 14-6t6-14v-57q0-17-20-41L193 96q-3-4-1.5-7t6.5-3h257q8 0 14-6t6-14V20q0-8-6-14t-14-6H95q-8 0-14 6t-6 14v59q0 16 13 31zm237 581v-69q0-16-16-16h-68q-16 0-16 16v69q0 6 4.5 11t11.5 5h68q7 0 11.5-5t4.5-11z"/><glyph glyph-name="Zcaron" unicode="Ž" d="M465 592L175 103q-6-10 6-10h279q8 0 14-6t6-14V20q0-8-6-14t-14-6H88q-8 0-14 6t-6 14v75q0 8 5 16l294 487q6 10-6 10H98q-8 0-14 6t-6 14v52q0 8 6 14t14 6h352q8 0 14-6t6-14v-72q0-8-5-16zM217 879l50-49q7-7 14 0l51 49q16 16 31 16h59q9 0 12.5-8.5T433 874L325 762q-12-12-29-12h-42q-18 0-30 12L116 874q-5 4-1.5 12.5T127 895h59q15 0 31-16z"/><glyph glyph-name="zcaron" unicode="ž" d="M88 110l263 294q3 4 1.5 7t-6.5 3H105q-8 0-14 6t-6 14v46q0 8 6 14t14 6h340q8 0 14-6t6-14v-57q0-17-20-41L193 96q-3-4-1.5-7t6.5-3h257q8 0 14-6t6-14V20q0-8-6-14t-14-6H95q-8 0-14 6t-6 14v59q0 16 13 31zm129 604l50-49q7-7 14 0l51 49q16 16 31 16h59q9 0 12.5-8t-1.5-13L325 597q-12-12-29-12h-42q-18 0-30 12L116 709q-5 5-1.5 13t12.5 8h59q15 0 31-16z"/><glyph glyph-name="longs" unicode="ſ" d="M301 520V20q0-8-6-14t-14-6h-50q-8 0-14 6t-6 14v375q0 10-10 10H76q-8 0-14 6t-6 14v50q0 8 6 14t14 6h125q10 0 10 10v15q0 79 53 133t132 54h60q8 0 14-6t6-14v-47q0-8-6-14t-14-6h-60q-39 0-67-30.5T301 520z"/><glyph glyph-name="florin" unicode="ƒ" d="M240-30v425q0 10-10 10H115q-8 0-14 6t-6 14v50q0 8 6 14t14 6h115q10 0 10 10v15q0 90 51.5 138.5T425 707h60q8 0 14-6t6-14v-47q0-8-6-14t-14-6h-60q-42 0-68.5-25T330 520v-15q0-10 10-10h132q8 0 14-6t6-14v-50q0-8-6-14t-14-6H340q-10 0-10-10V-30q0-88-30.5-129T186-200h-41q-8 0-14 6t-6 14v50q0 8 5.5 14t13.5 6h44q30 0 41 19.5T240-30z"/><glyph glyph-name="Aringacute" unicode="Ǻ" d="M344 1065h79q9 0 12.5-8.5T434 1044L329 935q56-32 56-95 0-46-32-78t-78-32-78 32-32 78q0 38 22.5 67.5T246 946l72 103q11 16 26 16zM235 840q0-17 11.5-28.5T275 800t28.5 11.5T315 840t-11.5 28.5T275 880t-28.5-11.5T235 840zm-62-672L129 15q-5-15-19-15H55Q44 0 38.5 6T35 20l186 665q3 15 19 15h70q16 0 19-15L515 20q2-8-3.5-14T495 0h-55q-14 0-19 15l-44 153q-3 14-19 14H192q-14 0-19-14zm97 397l-65-279q-3-11 8-11h124q11 0 8 11l-65 279q-2 6-4 6h-2q-2 0-4-6z"/><glyph glyph-name="aringacute" unicode="ǻ" d="M364 895h79q9 0 12.5-8.5T454 874L349 765q56-32 56-95 0-46-32-78t-78-32-78 32-32 78q0 38 22.5 67.5T266 776l72 103q11 16 26 16zM255 670q0-17 11.5-28.5T295 630t28.5 11.5T335 670t-11.5 28.5T295 710t-28.5-11.5T255 670zm124-450H249q-75 0-75-69 0-37 23-57.5T263 73q67 0 96.5 26t29.5 79v32q0 10-10 10zm-91 204q-15 0-29-2.5t-29.5-8-25-17.5-9.5-29-23-17h-45q-20 0-20 20 0 65 55.5 102.5T288 510q79 0 131-40.5T471 350V20q0-8-6-14t-14-6h-34q-8 0-14 7-1 2-5 8.5t-7 9.5-8 3q-6 0-20-9.5t-39.5-19T266-10q-88 0-135 46T84 150q0 65 44.5 108.5T249 302h122q10 0 10 10v33q0 39-26 59t-67 20z"/><glyph glyph-name="AEacute" unicode="Ǽ" d="M288 20v146q0 16-19 16H168q-13 0-16-14L108 15Q105 0 89 0H34Q23 0 17.5 6T14 20l183 654q2 9 11 17.5t23 8.5h280q8 0 14-6t6-14v-55q0-8-6-14t-14-6H393q-10 0-10-10V415q0-10 10-10h107q8 0 14-6t6-14v-55q0-8-6-14t-14-6H393q-10 0-10-10V105q0-10 10-10h120q8 0 14-6t6-14V20q0-8-6-14t-14-6H308q-8 0-14 6t-6 14zm-96 255h86q10 0 10 11v309q0 10-10 10h-3q-11 0-13-10l-78-309q-3-11 8-11zm188 620h79q9 0 12.5-8.5T470 874L362 762q-12-12-30-12h-40q-9 0-13.5 7t-.5 13l76 109q11 16 26 16z"/><glyph glyph-name="aeacute" unicode="ǽ" d="M290 21q-19 13-38-1-41-30-84-30-76 0-111.5 45T21 150q0 65 39.5 108T170 301h43q10 0 10 10v54q0 26-14 42.5T172 424t-36.5-17-13.5-40q0-17-23-17H54q-20 0-20 20 0 58 36 99t97 41q62 0 96-39 5-7 14-7t16 7q38 39 92 39 67 0 106-62.5T530 290v-49q0-8-6-14t-14-6H324q-10 0-10-10 0-136 71-136 23 0 39.5 21t18.5 47q1 17 23 17h41q17 0 17-20 0-58-39.5-104T385-10q-50 0-95 31zm-69 200h-52q-58 0-58-70 0-37 15.5-57.5T170 73q61 0 61 105v33q0 10-10 10zm109 509h79q9 0 12.5-8t-1.5-13L312 597q-12-12-30-12h-40q-9 0-13.5 7t-.5 13l76 109q11 16 26 16zm-14-419q0-10 10-10h108q10 0 10 10 0 51-16.5 82.5T386 425q-35 0-52.5-32.5T316 311z"/><glyph glyph-name="Oslashacute" unicode="Ǿ" d="M275 613q-51 0-87-30t-43-83q-16-128-3-276 0-6 2.5-7.5t7.5 5.5l210 350q9 14-23 27.5T275 613zm0-526q51 0 86.5 30t43.5 83q18 120 3 275 0 2-1 3.5t-3.5 1-4.5-4.5L193 128q-9-18 21.5-29.5T275 87zM123 15q-9-15-21-15H50Q40 0 34 9t0 19l41 66q6 9 0 18-25 54-31.5 175T50 500q10 87 70.5 147.5T275 708q78 0 134-41 6-6 11 2l11 16q9 15 19 15h52q10 0 16-9.5t0-18.5l-45-71q-3-5 0-11 22-42 30-116 12-140-3-274-10-87-70-147.5T275-8q-76 0-132 39-7 4-11-2zm207 880h79q9 0 12.5-8.5T420 874L312 762q-12-12-30-12h-40q-9 0-13.5 7t-.5 13l76 109q11 16 26 16z"/><glyph glyph-name="oslashacute" unicode="ǿ" d="M330 730h79q9 0 12.5-8t-1.5-13L312 597q-12-12-30-12h-40q-9 0-13.5 7t-.5 13l76 109q11 16 26 16zm-55-220q71 0 121-36 5-3 9 1l9 10q12 15 24 15h47q10 0 15.5-10.5T499 470l-42-51q-4-5-1-14 21-50 24-85 5-70 0-140-6-81-62-135.5T275-10q-74 0-127 40-6 3-9-1l-11-14Q116 0 103 0H55Q45 0 39 11t2 21l49 58q4 5 1 11-18 36-21 79-5 70 0 140 6 81 62 135.5T275 510zm0-430q50 0 81 29t34 71q5 70 0 140 0 4-2.5 6.5T381 325L205 110q-5-7 1-10 28-20 69-20zm0 340q-50 0-81-29t-34-71q-5-65 0-134 0-2 2-3t5 1l172 210q5 7-1 10-29 16-63 16z"/><glyph glyph-name="Scommaaccent" unicode="Ș" d="M404 200q0 27-9 47t-19.5 31.5-38 22-43.5 15-58 13.5q-76 17-121.5 64.5T69 520q0 86 62 137t144 51q88 0 146.5-55T480 520v-13q0-8-6-14t-14-6h-55q-8 0-14 6t-6 14v13q0 46-33 69.5T275 613q-49 0-79.5-25.5T165 520q0-18 4-33t15-25.5 18.5-17.5 27-13.5 26.5-9 31-8 28-6.5q185-45 185-207 0-93-67-150.5T275-8q-96 0-160.5 61T50 200v16q0 8 6 14t14 6h56q8 0 14-6t6-14v-16q0-49 36.5-81T275 87t92.5 32.5T404 200zM248-146h-7q-8 0-14 6t-6 14v61q0 8 6 14t14 6h70q8 0 14-6t6-14v-61q0-34-20-62l-32-46q-10-15-26-15h-9q-14 0-19 11t1 22l31 57q3 5-.5 9t-8.5 4z"/><glyph glyph-name="scommaaccent" unicode="ș" d="M77 163q0 8 6 14t14 6h50q8 0 14-6t6-14q0-87 108-87 107 0 107 74 0 30-26.5 44T275 219q-34 7-51.5 11.5t-46.5 16-44 25-27 38T94 365q0 65 54.5 105T275 510t125-41 53-109q0-8-6-14t-14-6h-50q-8 0-14 6t-6 14q0 28-22 46.5T275 425q-43 0-65.5-18T187 365q0-25 22-36.5t66-19.5q27-5 38.5-7t37-9 38-13.5 31.5-19 28.5-27 16.5-36 7-47.5q0-76-57-118T275-10 134.5 33.5 77 163zm171-309h-7q-8 0-14 6t-6 14v61q0 8 6 14t14 6h70q8 0 14-6t6-14v-61q0-34-20-62l-32-46q-10-15-26-15h-9q-14 0-19 11t1 22l31 57q3 5-.5 9t-8.5 4z"/><glyph glyph-name="uni021A" unicode="Ț" d="M218 605H85q-8 0-14 6t-6 14v55q0 8 6 14t14 6h380q8 0 14-6t6-14v-55q0-8-6-14t-14-6H333q-10 0-10-10V20q0-8-6-14t-14-6h-55q-8 0-14 6t-6 14v575q0 10-10 10zm30-751h-7q-8 0-14 6t-6 14v61q0 8 6 14t14 6h70q8 0 14-6t6-14v-61q0-34-20-62l-32-46q-10-15-26-15h-9q-14 0-19 11t1 22l31 57q3 5-.5 9t-8.5 4z"/><glyph glyph-name="uni021B" unicode="ț" d="M270 395V150q0-28 20-49t50-21 50 21 20 49q0 8 6 14t14 6h50q8 0 14-6t6-14q0-66-47-113T340-10 227 37t-47 113v245q0 10-10 10H70q-8 0-14 6t-6 14v50q0 8 6 14t14 6h100q10 0 10 10v155q0 8 6 14t14 6h50q8 0 14-6t6-14V505q0-10 10-10h160q8 0 14-6t6-14v-50q0-8-6-14t-14-6H280q-10 0-10-10zm-22-541h-7q-8 0-14 6t-6 14v61q0 8 6 14t14 6h70q8 0 14-6t6-14v-61q0-34-20-62l-32-46q-10-15-26-15h-9q-14 0-19 11t1 22l31 57q3 5-.5 9t-8.5 4z"/><glyph glyph-name="hsuperior" unicode="ʰ" d="M231 346h-50q-10 0-10 10v335q0 10 10 10h50q10 0 10-10v-83q0-8 4.5-11t11.5 0q10 5 26 5 39 0 67-27t28-66V356q0-10-10-10h-50q-10 0-10 10v153q0 25-34 25-33 0-33-25V356q0-10-10-10z"/><glyph glyph-name="jsuperior" unicode="ʲ" d="M375 693v-58q0-8-8-8h-59q-8 0-8 8v58q0 8 8 8h59q8 0 8-8zm-4-104V332q0-40-28.5-66T273 240t-70 27-29 67q0 10 10 10h50q10 0 10-10 0-24 29-24t29 23v188q0 5-5 5h-57q-10 0-10 10v50q0 10 10 10h124q7 0 7-7z"/><glyph glyph-name="wsuperior" unicode="ʷ" d="M255 541h38q8 0 9-8l17-99q2-2 6-1l15 155q0 8 9 8h53q11 0 9-12l-38-231q-1-7-10-7h-61q-9 0-10 7l-14 72q-1 2-4 2.5t-3-2.5l-12-71q-2-8-9-8h-62q-7 0-9 8l-40 231q-2 11 9 11h53q9 0 10-7l15-156q0-1 2.5-1t2.5 1l14 101q1 7 10 7z"/><glyph glyph-name="ysuperior" unicode="ʸ" d="M280 452l36 137q1 7 9 7h56q6 0 9-4t1-8L276 254q-3-8-10-8h-51q-6 0-8.5 4t-.5 8l34 90q2 6 0 13l-82 224q-2 4 1 7.5t9 3.5h56q7 0 10-8l40-137q1-3 3-2.5t3 3.5z"/><glyph glyph-name="apostrophemod" unicode="ʼ" d="M248 570h-17q-8 0-14 6t-6 14v90q0 8 6 14t14 6h90q8 0 14-6t6-14v-90q0-34-20-62l-52-73q-10-15-26-15h-14q-14 0-19 11t1 22l46 84q3 5-.5 9t-8.5 4z"/><glyph glyph-name="circumflex" unicode="ˆ" d="M267 650l-50-49q-16-16-31-16h-59q-9 0-12.5 8.5T116 606l108 112q12 12 30 12h42q17 0 29-12l108-112q5-4 1.5-12.5T422 585h-59q-15 0-31 16l-51 49q-7 7-14 0z"/><glyph glyph-name="caron" unicode="ˇ" d="M217 714l50-49q7-7 14 0l51 49q16 16 31 16h59q9 0 12.5-8t-1.5-13L325 597q-12-12-29-12h-42q-18 0-30 12L116 709q-5 5-1.5 13t12.5 8h59q15 0 31-16z"/><glyph glyph-name="breve" unicode="˘" d="M335 713q0 7 5 12t12 5h43q7 0 12-5t5-12q0-54-39-91t-98-37q-60 0-99 37t-39 91q0 7 5 12t12 5h43q7 0 12-5t5-12q0-23 18.5-39.5T275 657t42 16.5 18 39.5z"/><glyph glyph-name="dotaccent" unicode="˙" d="M325 691v-69q0-16-16-16h-68q-16 0-16 16v69q0 6 4.5 11t11.5 5h68q7 0 11.5-5t4.5-11z"/><glyph glyph-name="ring" unicode="˚" d="M165 670q0 46 32 78t78 32 78-32 32-78-32-78-78-32-78 32-32 78zm70 0q0-17 11.5-28.5T275 630t28.5 11.5T315 670t-11.5 28.5T275 710t-28.5-11.5T235 670z"/><glyph glyph-name="ogonek" unicode="˛" d="M224 0q-36 0-58.5-18.5T143-69q0-66 81-66 8 0 14-6t6-14v-35q0-8-6-14t-14-6q-74 0-119 35T60-74q0 67 51.5 108T224 75q8 0 14-6t6-14V20q0-8-6-14t-14-6z"/><glyph glyph-name="tilde" unicode="˜" d="M345 684q29 0 46 21 6 8 15.5 4t9.5-18v-40q0-20-21-35.5T345 600q-31 0-68 12.5T205 625q-28 0-46-21-6-8-15.5-3.5T134 618v40q0 20 21 35.5t50 15.5q31 0 68-12.5t72-12.5z"/><glyph glyph-name="hungarumlaut" unicode="˝" d="M214 730h79q9 0 12.5-8t-1.5-13L196 597q-12-12-30-12h-40q-9 0-13.5 7t-.5 13l76 109q11 16 26 16zm170 0h79q9 0 12.5-8t-1.5-13L366 597q-12-12-30-12h-40q-9 0-13.5 7t-.5 13l76 109q11 16 26 16z"/><glyph glyph-name="xsuperior" unicode="ˣ" d="M273 418l-36-67q-2-5-11-5h-56q-7 0-9.5 4.5T162 362l66 108q3 7 0 12l-58 98q-4 6-1 11t10 5h51q6 0 11-5l32-60q3-7 7 0l32 60q2 5 11 5h51q7 0 9.5-5t-1.5-11l-58-99q-4-7 0-12l64-106q4-7 2-12t-9-5h-56q-9 0-11 5l-35 68q-3 6-6-1z"/><glyph glyph-name="Delta" unicode="Δ" d="M503 0H47q-8 0-14 6t-6 14v51q0 11 7 29l190 585q4 15 19 15h64q15 0 19-15l190-585q7-18 7-29V20q0-8-6-14t-14-6zM135 85h280q11 0 6 12L282 580q-2 6-6 6h-2q-4 0-6-6L129 97q-5-12 6-12z"/><glyph glyph-name="Omega" unicode="Ω" d="M412 102q-9-5-6.5-13.5T419 80h67q8 0 14-6t6-14V20q0-8-6-14t-14-6H320q-8 0-14 6t-6 14v59q0 29 25 46 44 28 83.5 98T448 386q0 101-43 169t-130 68-129.5-68T103 386q0-93 39.5-163t83.5-98q25-17 25-46V20q0-8-6-14t-14-6H65q-8 0-14 6t-6 14v40q0 8 6 14t14 6h67q11 0 13.5 8t-5.5 13q-56 38-89.5 121T17 387q0 136 67 226t191 90 191.5-90T534 387q0-82-33-164t-89-121z"/><glyph glyph-name="mu" unicode="μ" d="M265-10q-35 0-78 29-7 5-15.5 1.5T163 6v-186q0-8-6-14t-14-6H95q-8 0-14 6t-6 14v660q0 8 6 14t14 6h50q8 0 14-6t6-14V180q0-43 31.5-71.5T275 80t78.5 26 31.5 69v305q0 8 6 14t14 6h50q8 0 14-6t6-14V20q0-8-6-14t-14-6h-44q-7 0-18.5 11.5T372 23 335.5 6.5 265-10z"/><glyph glyph-name="pi" unicode="π" d="M500 410h-85q-10 0-10-10V190q0-41 29.5-70.5T505 90q8 0 14-6t6-14V20q0-8-6-14t-14-6q-79 0-134.5 55.5T315 190v210q0 10-8 10h-97q-10 0-10-10V20q0-8-6-14t-14-6h-50q-8 0-14 6t-6 14v380q0 10-10 10H40q-8 0-14 6t-6 14v50q0 8 6 14t14 6h460q8 0 14-6t6-14v-50q0-8-6-14t-14-6z"/><glyph glyph-name="Wgrave" unicode="Ẁ" d="M324 485l54-305q1-4 6-4t6 4l45 505q1 15 19 15h49q22 0 20-20L451 15q-1-15-19-15h-91q-17 0-19 15l-42 302q-1 6-4 3l-2-3-56-302q-3-15-19-15h-91Q90 0 89 15L26 680q-2 20 20 20h49q18 0 19-15l41-505q1-4 6-4t6 4l61 305q3 15 19 15h58q16 0 19-15zM140 895h79q15 0 26-16l76-109q4-6-.5-13t-13.5-7h-40q-18 0-30 12L129 874q-5 4-1.5 12.5T140 895z"/><glyph glyph-name="wgrave" unicode="ẁ" d="M257 390h36q15 0 19-15l50-188q2-6 7-6t7 6l45 298q3 15 19 15h49q11 0 16-7t3-16L423 15q-3-15-19-15h-55q-15 0-19 15l-49 195q-1 5-6 5t-6-5L220 15q-4-15-19-15h-55q-16 0-19 15L42 477q-2 9 3 16t16 7h49q16 0 19-15l45-298q1-6 6.5-6t7.5 6l50 188q4 15 19 15zM150 730h79q15 0 26-16l76-109q4-6-.5-13t-13.5-7h-40q-18 0-30 12L139 709q-5 5-1.5 13t12.5 8z"/><glyph glyph-name="Wacute" unicode="Ẃ" d="M324 485l54-305q1-4 6-4t6 4l45 505q1 15 19 15h49q22 0 20-20L451 15q-1-15-19-15h-91q-17 0-19 15l-42 302q-1 6-4 3l-2-3-56-302q-3-15-19-15h-91Q90 0 89 15L26 680q-2 20 20 20h49q18 0 19-15l41-505q1-4 6-4t6 4l61 305q3 15 19 15h58q16 0 19-15zm6 410h79q9 0 12.5-8.5T420 874L312 762q-12-12-30-12h-40q-9 0-13.5 7t-.5 13l76 109q11 16 26 16z"/><glyph glyph-name="wacute" unicode="ẃ" d="M257 390h36q15 0 19-15l50-188q2-6 7-6t7 6l45 298q3 15 19 15h49q11 0 16-7t3-16L423 15q-3-15-19-15h-55q-15 0-19 15l-49 195q-1 5-6 5t-6-5L220 15q-4-15-19-15h-55q-16 0-19 15L42 477q-2 9 3 16t16 7h49q16 0 19-15l45-298q1-6 6.5-6t7.5 6l50 188q4 15 19 15zm73 340h79q9 0 12.5-8t-1.5-13L312 597q-12-12-30-12h-40q-9 0-13.5 7t-.5 13l76 109q11 16 26 16z"/><glyph glyph-name="Wdieresis" unicode="Ẅ" d="M324 485l54-305q1-4 6-4t6 4l45 505q1 15 19 15h49q22 0 20-20L451 15q-1-15-19-15h-91q-17 0-19 15l-42 302q-1 6-4 3l-2-3-56-302q-3-15-19-15h-91Q90 0 89 15L26 680q-2 20 20 20h49q18 0 19-15l41-505q1-4 6-4t6 4l61 305q3 15 19 15h58q16 0 19-15zm-85 350v-69q0-16-16-16h-68q-16 0-16 16v69q0 6 4.5 11t11.5 5h68q7 0 11.5-5t4.5-11zm171 0v-69q0-16-16-16h-68q-16 0-16 16v69q0 6 4.5 11t11.5 5h68q7 0 11.5-5t4.5-11z"/><glyph glyph-name="wdieresis" unicode="ẅ" d="M257 390h36q15 0 19-15l50-188q2-6 7-6t7 6l45 298q3 15 19 15h49q11 0 16-7t3-16L423 15q-3-15-19-15h-55q-15 0-19 15l-49 195q-1 5-6 5t-6-5L220 15q-4-15-19-15h-55q-16 0-19 15L42 477q-2 9 3 16t16 7h49q16 0 19-15l45-298q1-6 6.5-6t7.5 6l50 188q4 15 19 15zm-18 301v-69q0-16-16-16h-68q-16 0-16 16v69q0 6 4.5 11t11.5 5h68q7 0 11.5-5t4.5-11zm171 0v-69q0-16-16-16h-68q-16 0-16 16v69q0 6 4.5 11t11.5 5h68q7 0 11.5-5t4.5-11z"/><glyph glyph-name="Ygrave" unicode="Ỳ" d="M280 374l111 311q5 15 19 15h66q10 0 15-8.5t1-19.5L324 241V20q0-8-6-14t-14-6h-56q-8 0-14 6t-6 14v220L58 672q-4 11 1 19.5t15 8.5h66q14 0 19-15l113-311q4-10 8 0zM140 895h79q15 0 26-16l76-109q4-6-.5-13t-13.5-7h-40q-18 0-30 12L129 874q-5 4-1.5 12.5T140 895z"/><glyph glyph-name="ygrave" unicode="ỳ" d="M283 160l116 325q5 15 19 15h59q11 0 16.5-7.5T496 477L242-185q-5-15-19-15h-54q-11 0-16.5 7.5T150-177l74 204q3 8 1 13L53 477q-3 8 2.5 15.5T72 500h61q14 0 19-15l123-325q4-10 8 0zM160 730h79q15 0 26-16l76-109q4-6-.5-13t-13.5-7h-40q-18 0-30 12L149 709q-5 5-1.5 13t12.5 8z"/><glyph glyph-name="endash" unicode="–" d="M95 308h360q8 0 14-6t6-14v-55q0-8-6-14t-14-6H95q-8 0-14 6t-6 14v55q0 8 6 14t14 6z"/><glyph glyph-name="emdash" unicode="—" d="M50 308h450q8 0 14-6t6-14v-55q0-8-6-14t-14-6H50q-8 0-14 6t-6 14v55q0 8 6 14t14 6z"/><glyph glyph-name="quoteleft" unicode="‘" d="M303 570h17q8 0 14-6t6-14v-90q0-8-6-14t-14-6h-90q-8 0-14 6t-6 14v90q0 34 20 62l52 73q10 15 26 15h14q14 0 19-11t-1-22l-46-84q-3-5 .5-9t8.5-4z"/><glyph glyph-name="quoteright" unicode="’" d="M248 570h-17q-8 0-14 6t-6 14v90q0 8 6 14t14 6h90q8 0 14-6t6-14v-90q0-34-20-62l-52-73q-10-15-26-15h-14q-14 0-19 11t1 22l46 84q3 5-.5 9t-8.5 4z"/><glyph glyph-name="quotesinglbase" unicode="‚" d="M253 0h-17q-8 0-14 6t-6 14v90q0 8 6 14t14 6h90q8 0 14-6t6-14V20q0-34-20-62l-52-73q-10-15-26-15h-14q-14 0-19 11t1 22l46 84q3 5-.5 9T253 0z"/><glyph glyph-name="quotedblleft" unicode="“" d="M203 570h17q8 0 14-6t6-14v-90q0-8-6-14t-14-6h-90q-8 0-14 6t-6 14v90q0 34 20 62l52 73q10 15 26 15h14q14 0 19-11t-1-22l-46-84q-3-5 .5-9t8.5-4zm200 0h17q8 0 14-6t6-14v-90q0-8-6-14t-14-6h-90q-8 0-14 6t-6 14v90q0 34 20 62l52 73q10 15 26 15h14q14 0 19-11t-1-22l-46-84q-3-5 .5-9t8.5-4z"/><glyph glyph-name="quotedblright" unicode="”" d="M346 570h-17q-8 0-14 6t-6 14v90q0 8 6 14t14 6h90q8 0 14-6t6-14v-90q0-34-20-62l-52-73q-10-15-26-15h-14q-14 0-19 11t1 22l46 84q3 5-.5 9t-8.5 4zm-200 0h-17q-8 0-14 6t-6 14v90q0 8 6 14t14 6h90q8 0 14-6t6-14v-90q0-34-20-62l-52-73q-10-15-26-15h-14q-14 0-19 11t1 22l46 84q3 5-.5 9t-8.5 4z"/><glyph glyph-name="quotedblbase" unicode="„" d="M354 0h-17q-8 0-14 6t-6 14v90q0 8 6 14t14 6h90q8 0 14-6t6-14V20q0-34-20-62l-52-73q-10-15-26-15h-14q-14 0-19 11t1 22l46 84q3 5-.5 9T354 0zM154 0h-17q-8 0-14 6t-6 14v90q0 8 6 14t14 6h90q8 0 14-6t6-14V20q0-34-20-62l-52-73q-10-15-26-15h-14q-14 0-19 11t1 22l46 84q3 5-.5 9T154 0z"/><glyph glyph-name="dagger" unicode="†" d="M321 390v-490q0-8-6-14t-14-6h-50q-8 0-14 6t-6 14v490q0 10-10 10H91q-8 0-14 6t-6 14v50q0 8 6 14t14 6h130q10 0 10 10v180q0 8 6 14t14 6h50q8 0 14-6t6-14V500q0-10 10-10h130q8 0 14-6t6-14v-50q0-8-6-14t-14-6H331q-10 0-10-10z"/><glyph glyph-name="daggerdbl" unicode="‡" d="M223 168H85q-8 0-14 6t-6 14v48q0 8 6 14t14 6h138q10 0 10 10v168q0 10-10 10H85q-8 0-14 6t-6 14v48q0 8 6 14t14 6h138q10 0 10 10v138q0 8 6 14t14 6h44q8 0 14-6t6-14V542q0-10 10-10h138q8 0 14-6t6-14v-48q0-8-6-14t-14-6H327q-10 0-10-10V266q0-10 10-10h138q8 0 14-6t6-14v-48q0-8-6-14t-14-6H327q-10 0-10-10V20q0-8-6-14t-14-6h-44q-8 0-14 6t-6 14v138q0 10-10 10z"/><glyph glyph-name="bullet" unicode="•" d="M385 385V205q0-8-6-14t-14-6H185q-8 0-14 6t-6 14v180q0 8 6 14t14 6h180q8 0 14-6t6-14z"/><glyph glyph-name="ellipsis" unicode="…" d="M153 113V20q0-8-6-14t-14-6H50q-8 0-14 6t-6 14v93q0 8 6 14t14 6h83q8 0 14-6t6-14zm366 0V20q0-8-6-14t-14-6h-83q-8 0-14 6t-6 14v93q0 8 6 14t14 6h83q8 0 14-6t6-14zm-183 0V20q0-8-6-14t-14-6h-83q-8 0-14 6t-6 14v93q0 8 6 14t14 6h83q8 0 14-6t6-14z"/><glyph glyph-name="perthousand" unicode="‰" d="M381 672L115 15Q109 0 94 0H67Q57 0 52 8.5T51 28l264 657q7 15 22 15h28q10 0 15-9t1-19zm-92-522q0-74 36-74t36 74-36 74-36-74zm-71 0q0 140 107 140t107-140T325 10 218 150zM73 550q0-74 36-74t36 74-36 74-36-74zm-71 0q0 140 107 140t107-140-107-140T2 550zm403-110q0-74 36-74t36 74-36 74-36-74zm-71 0q0 140 107 140t107-140-107-140-107 140z"/><glyph glyph-name="guilsinglleft" unicode="‹" d="M205 274l96 161q9 15 25 15h45q15 0 19.5-8.5T387 417l-85-145q-8-11 0-24l85-145q8-16 3.5-24.5T371 70h-45q-16 0-25 15l-96 161q-9 14 0 28z"/><glyph glyph-name="guilsinglright" unicode="›" d="M249 435l96-161q9-14 0-28L249 85q-9-15-25-15h-45q-15 0-19.5 8.5T163 103l85 145q8 13 0 24l-85 145q-8 16-3.5 24.5T179 450h45q16 0 25-15z"/><glyph glyph-name="fraction" unicode="⁄" horiz-adv-x="0" d="M195 672L-131 15q-7-15-21-15h-27q-10 0-15.5 9t-.5 19l324 657q7 15 22 15h28q10 0 15.5-9t.5-19z"/><glyph glyph-name="zerosuperior" unicode="⁰" d="M162 590q5 47 36.5 79.5T274 702q45 0 76.5-33t36.5-79q8-69 0-138-5-47-36.5-79.5T274 340q-44 0-75.5 33T162 452q-8 68 0 138zm112 38q-15 0-24.5-10.5T238 592q-8-71 0-142 2-16 12-26t24-10q15 0 25 10.5t12 25.5q8 71 0 142-1 16-12 26t-25 10z"/><glyph glyph-name="foursuperior" unicode="⁴" d="M364 476h17q10 0 10-10v-48q0-10-10-10h-17q-5 0-5-5v-47q0-10-10-10h-51q-10 0-10 10v47q0 5-5 5H169q-10 0-10 10v59q0 6 8 20l112 192q3 7 10 7h60q10 0 10-10V481q0-5 5-5zm-82 100l-50-94q-4-6 4-6h47q5 0 5 5v93q0 3-2 3.5t-4-1.5z"/><glyph glyph-name="fivesuperior" unicode="⁵" d="M362 622H245q-5 0-5-5v-39q0-10 9-5 12 8 29 8 49 0 78.5-32.5T387 462q1-49-29.5-85.5T274 340q-49 0-81 25.5T161 442q0 10 10 10h52q10 0 10-10 0-28 41-28 40 0 40 48 0 51-40 51-20 0-30-12-6-6-13-6h-54q-10 0-10 10v181q0 10 10 10h185q10 0 10-10v-54q0-10-10-10z"/><glyph glyph-name="sixsuperior" unicode="⁶" d="M239 444q1-16 11.5-25.5T276 409q16 0 25.5 9.5T313 444q1 14 0 28-2 17-12 27.5T276 510t-25-11-12-27q-1-14 0-28zm41 192q-25 0-37.5-15.5T230 581q0-9 13-7 24 4 37 4 44 0 74.5-31.5T387 470q1-11 0-24-2-45-32.5-75.5T279 340q-47 0-78.5 31.5T164 450q-8 71 0 142 5 47 36.5 78.5T278 702q48 0 77.5-28t29.5-71q0-10-10-10h-39q-12 0-15 10-10 33-41 33z"/><glyph glyph-name="sevensuperior" unicode="⁷" d="M189 358l117 260q2 5-4 5H177q-10 0-10 10v53q0 10 10 10h195q10 0 10-10v-67q0-3-3-10L267 354q-3-8-9-8h-60q-14 0-9 12z"/><glyph glyph-name="eightsuperior" unicode="⁸" d="M275 412q20 0 32.5 11t12.5 28q0 18-12.5 30T275 493t-32-12-12-30q0-17 12-28t32-11zm0 145q17 0 28.5 11t11.5 27q0 15-11.5 25T275 630t-28-10-11-25q0-16 11.5-27t27.5-11zm0 145q46 0 78.5-31.5T386 595q0-40-20-64-5-6 0-11 24-25 24-69 0-47-33-79t-82-32q-48 0-81.5 32.5T160 451q0 39 24 69 3 4-1 11-19 26-19 64 0 44 32.5 75.5T275 702z"/><glyph glyph-name="ninesuperior" unicode="⁹" d="M311 598q-1 16-11.5 25.5T274 633q-16 0-25.5-9.5T237 598q-1-14 0-28 2-17 12-27.5t25-10.5 25 11 12 27q1 14 0 28zm-41-192q25 0 37.5 15.5T320 461q0 9-13 7-24-4-37-4-44 0-74.5 31.5T163 572q-1 11 0 24 2 45 32.5 75.5T271 702q47 0 78.5-31.5T386 592q8-71 0-142-5-47-36.5-78.5T272 340q-48 0-77.5 28T165 439q0 10 10 10h39q12 0 15-10 10-33 41-33z"/><glyph glyph-name="plussuperior" unicode="⁺" d="M175 506h60q5 0 5 5v60q0 10 10 10h49q10 0 10-10v-60q0-5 5-5h61q10 0 10-10v-49q0-10-10-10h-61q-5 0-5-5v-61q0-10-10-10h-49q-10 0-10 10v61q0 5-5 5h-60q-10 0-10 10v49q0 10 10 10z"/><glyph glyph-name="minussuperior" unicode="⁻" d="M170 511h209q10 0 10-10v-49q0-10-10-10H170q-10 0-10 10v49q0 10 10 10z"/><glyph glyph-name="equalsuperior" unicode="⁼" d="M375 488H175q-10 0-10 10v48q0 10 10 10h200q10 0 10-10v-48q0-10-10-10zm0-102H175q-10 0-10 10v48q0 10 10 10h200q10 0 10-10v-48q0-10-10-10z"/><glyph glyph-name="parenleftsuperior" unicode="⁽" d="M311 370h33q10 0 10-10v-49q0-10-10-10h-33q-45 0-75.5 28.5T199 406q-4 30-4 97.5t4 97.5q6 43 36 74t76 31h34q10 0 10-10v-49q0-10-10-10h-34q-35 0-42-36-6-31-6-97.5t6-97.5q6-36 42-36z"/><glyph glyph-name="parenrightsuperior" unicode="⁾" d="M206 370h33q36 0 42 36 6 31 6 97.5t-6 97.5q-7 36-42 36h-34q-10 0-10 10v49q0 10 10 10h34q46 0 76-31t36-74q4-30 4-97.5t-4-97.5q-6-48-36.5-76.5T239 301h-33q-10 0-10 10v49q0 10 10 10z"/><glyph glyph-name="nsuperior" unicode="ⁿ" d="M231 584q5 0 22 9t33 9q39 0 65.5-27t26.5-66V356q0-10-10-10h-50q-10 0-10 10v154q0 24-33 24-16 0-24.5-6.5T242 512V356q0-10-10-10h-50q-10 0-10 10v230q0 10 10 10h26q5 0 12-7 5-5 11-5z"/><glyph glyph-name="zeroinferior" unicode="₀" d="M162 62q5 47 36.5 79.5T274 174q45 0 76.5-33T387 62q8-69 0-138-5-47-36.5-79.5T274-188q-44 0-75.5 33T162-76q-8 68 0 138zm112 38q-15 0-24.5-10.5T238 64q-8-71 0-142 2-16 12-26t24-10q15 0 25 10.5T311-78q8 71 0 142-1 16-12 26t-25 10z"/><glyph glyph-name="oneinferior" unicode="₁" d="M246-104V62q0 5-4 6.5t-6-1.5l-58-52q-5-5-12-1.5T159 25v50q0 14 8 22l54 57q14 14 29 14h62q10 0 10-10v-262q0-5 5-5h54q10 0 10-10v-53q0-10-10-10H172q-10 0-10 10v53q0 10 10 10h69q5 0 5 5z"/><glyph glyph-name="twoinferior" unicode="₂" d="M312 68q0 14-9 23.5t-24 9.5q-39 0-39-33v-9q0-10-10-10h-53q-10 0-10 10v8q0 45 32.5 76t77.5 31 76.5-31T385 67q0-37-29-68l-94-97q-3-2-2-6.5t7-4.5h107q10 0 10-10v-53q0-10-10-10H174q-10 0-10 10v66q0 8 4 12L302 45q10 10 10 23z"/><glyph glyph-name="threeinferior" unicode="₃" d="M315-77q0 18-11.5 27.5T275-40h-6q-10 0-10 10v52q0 10 10 10h6q16 0 26 9t10 25-10 25.5-26 9.5-26-9.5T239 66v-7q0-10-10-10h-53q-10 0-10 10v7q0 45 32 76.5t77 31.5 77-31.5T384 66q0-34-26-64-5-5 0-8 30-24 30-71 0-46-33-78.5T275-188t-80 32.5T162-77v6q0 10 10 10h53q10 0 10-10v-6q0-38 40-38t40 38z"/><glyph glyph-name="fourinferior" unicode="₄" d="M364-52h17q10 0 10-10v-48q0-10-10-10h-17q-5 0-5-5v-47q0-10-10-10h-51q-10 0-10 10v47q0 5-5 5H169q-10 0-10 10v59q0 6 8 20l112 192q3 7 10 7h60q10 0 10-10V-47q0-5 5-5zM282 48l-50-94q-4-6 4-6h47q5 0 5 5v93q0 3-2 3.5t-4-1.5z"/><glyph glyph-name="fiveinferior" unicode="₅" d="M362 94H245q-5 0-5-5V50q0-10 9-5 12 8 29 8 49 0 78.5-32.5T387-66q1-49-29.5-85.5T274-188q-49 0-81 25.5T161-86q0 10 10 10h52q10 0 10-10 0-28 41-28 40 0 40 48 0 51-40 51-20 0-30-12-6-6-13-6h-54q-10 0-10 10v181q0 10 10 10h185q10 0 10-10v-54q0-10-10-10z"/><glyph glyph-name="sixinferior" unicode="₆" d="M239-84q1-16 11.5-25.5T276-119q16 0 25.5 9.5T313-84q1 14 0 28-2 17-12 27.5T276-18t-25-11-12-27q-1-14 0-28zm41 187q-38 0-46-26-4-12-4-24 0-9 13-7 24 4 37 4 44 0 74.5-31.5T387-58q1-11 0-24-2-45-32.5-75.5T279-188q-47 0-78.5 31.5T164-78q-8 71 0 142 5 47 36.5 78.5T278 174q48 0 80-28.5T390 75q0-10-10-10h-44q-12 0-15 10-9 28-41 28z"/><glyph glyph-name="seveninferior" unicode="₇" d="M189-170L306 90q2 5-4 5H177q-10 0-10 10v53q0 10 10 10h195q10 0 10-10V91q0-3-3-10L267-174q-3-8-9-8h-60q-14 0-9 12z"/><glyph glyph-name="eightinferior" unicode="₈" d="M275-116q20 0 32.5 10.5T320-77t-12.5 30T275-35t-32-12-12-30 12-28.5 32-10.5zm0 145q17 0 28.5 11T315 66q0 16-11.5 26T275 102t-28-10-11-26q0-15 11.5-26T275 29zm0 145q46 0 78.5-31.5T386 66q0-39-20-63-5-6 0-11 24-25 24-69 0-47-33-79t-82-32q-48 0-81.5 32.5T160-77q0 39 24 69 3 4-1 11-19 26-19 63 0 45 32.5 76.5T275 174z"/><glyph glyph-name="nineinferior" unicode="₉" d="M311 70q-1 16-11.5 25.5T274 105q-16 0-25.5-9.5T237 70q-1-14 0-28 2-17 12-27.5T274 4t25 11 12 27q1 14 0 28zm-41-187q38 0 46 26 4 12 4 24 0 9-13 7-24-4-37-4-44 0-74.5 31.5T163 44q-1 11 0 24 2 45 32.5 75.5T271 174q47 0 78.5-31.5T386 64q8-71 0-142-5-47-36.5-78.5T272-188q-48 0-80 28.5T160-89q0 10 10 10h44q12 0 15-10 9-28 41-28z"/><glyph glyph-name="parenleftinferior" unicode="₍" d="M311-158h33q10 0 10-10v-49q0-10-10-10h-33q-45 0-75.5 28.5T199-122q-4 30-4 97.5t4 97.5q6 44 35.5 74.5T311 178h34q10 0 10-10v-49q0-10-10-10h-34q-35 0-42-36-6-31-6-97.5t6-97.5q6-36 42-36z"/><glyph glyph-name="parenrightinferior" unicode="₎" d="M206-158h33q36 0 42 36 6 31 6 97.5T281 73q-7 36-42 36h-34q-10 0-10 10v49q0 10 10 10h34q46 0 76-31t36-74q4-30 4-97.5t-4-97.5q-6-48-36.5-76.5T239-227h-33q-10 0-10 10v49q0 10 10 10z"/><glyph glyph-name="Euro" unicode="€" d="M171 332q0-4 2.5-6.5t7-3 8-1 10 0 8.5.5h142q8 0 14-6t6-14v-42q0-7-2.5-11.5T357 242t-10.5-2.5-14 0-11.5.5H183q-7 0-7-9 0-65 33-104.5T309 87q53 0 91.5 30.5T439 200q0 34 20 34h55q8 0 14-6t6-14q0-92-61-157T309-8Q204-8 142.5 60.5T81 231q0 9-10 9H39q-8 0-14 6t-6 14v42q0 8 6 14t14 6h29q8 0 8 8v57q0 7-7 7H39q-8 0-14 6t-6 14v42q0 8 6 14t14 6h34q9 0 9 7 0 99 64 162t163 63 162-60 63-162q0-8-6-14t-14-6h-55q-8 0-14 6t-6 14q0 54-33 90t-97 37q-55 0-93.5-31.5T177 483q0-3 2-5t6.5-2.5 8-.5 8.5.5 7 .5h140q8 0 14-6t6-14v-42q0-6-2.5-10t-6-6-10-3-10-1H178q-7 0-7-8v-54z"/><glyph glyph-name="afii61289" unicode="ℓ" d="M128 272H80q-8 0-14 6t-6 14v50q0 8 6 14t14 6h48v148q0 80 53.5 135T313 700t129-55 51-135q0-92-73.5-155.5T223 278v-53q0-78 35.5-111.5T379 80h36q8 0 14-6t6-14V10q0-8-6-14t-14-6h-36q-133 0-192 57.5T128 223v49zm95 238V367q81 9 128 45t47 98q0 42-23 71t-62 29-64.5-29.5T223 510z"/><glyph glyph-name="afii61352" unicode="№" d="M127 683l67-383q0-2 2-2.5t4 1 2 3.5v378q0 8 6 14t14 6h31q8 0 14-6t6-14V20q0-8-6-14t-14-6h-63q-19 0-21 17l-67 405q0 2-2 2.5t-4-1-2-3.5V20q0-8-6-14T74 0H43q-8 0-14 6t-6 14v660q0 8 6 14t14 6h63q18 0 21-17zM498 0H344q-8 0-14 6t-6 14v43q0 8 6 14t14 6h154q8 0 14-6t6-14V20q0-8-6-14t-14-6zm-79 322q-36 0-44-32-5-21 0-50 7-30 44-30t44 30q5 29 0 50-8 32-44 32zm0 77q101 0 113-98 5-30 0-71-6-48-38.5-72.5T419 133t-74.5 24.5T306 230q-5 41 0 71 12 98 113 98z"/><glyph glyph-name="trademark" unicode="™" d="M90 632H24q-10 0-10 10v48q0 10 10 10h210q10 0 10-10v-48q0-10-10-10h-66q-5 0-5-26V360q0-10-10-10h-48q-10 0-10 10v267q0 5-5 5zm273 59l29-124q1-1 2.5-1t2.5 1l30 124q1 9 10 9h70q10 0 10-10V360q0-10-10-10h-44q-10 0-10 10v241q0 2-2 2.5t-3-1.5l-30-119q-3-8-10-8h-26q-9 0-11 8l-29 119q-2 4-5-1V360q0-10-10-10h-44q-10 0-10 10v330q0 10 10 10h69q10 0 11-9z"/><glyph glyph-name="uni2126" unicode="Ω" d="M412 102q-9-5-6.5-13.5T419 80h67q8 0 14-6t6-14V20q0-8-6-14t-14-6H320q-8 0-14 6t-6 14v59q0 29 25 46 44 28 83.5 98T448 386q0 101-43 169t-130 68-129.5-68T103 386q0-93 39.5-163t83.5-98q25-17 25-46V20q0-8-6-14t-14-6H65q-8 0-14 6t-6 14v40q0 8 6 14t14 6h67q11 0 13.5 8t-5.5 13q-56 38-89.5 121T17 387q0 136 67 226t191 90 191.5-90T534 387q0-82-33-164t-89-121z"/><glyph glyph-name="estimated" unicode="℮" d="M286 80q46 0 79.5 17.5T409 143q7 17 23 17h46q18 0 17-20-7-65-65.5-107.5T286-10Q157-10 94.5 86.5T58 373q15 105 75.5 156T286 580q45 0 82-12t69-39 49.5-76.5T504 334v-63q0-8-6-14t-14-6H155q-10 0-10-10Q159 80 286 80zM148 362l-2-21q0-10 10-10h248q4 0 6.5 2t3 6 1 7 0 8.5-.5 7.5q0 68-37 103t-93 35q-55 0-92.5-34T148 362z"/><glyph glyph-name="arrowleft" unicode="←" d="M178 296h322q8 0 14-6t6-14v-47q0-7-6-13.5t-14-6.5H176l94-94q12-13 12-25V25q0-9-8-13t-16 3L33 240q-12 12 1 27l217 217q9 9 20 3.5t11-17.5v-62q0-8-15-23z"/><glyph glyph-name="arrowup" unicode="↑" d="M229 20v382l-89-89q-15-15-23-15H55q-12 0-17.5 11t3.5 20l217 217q15 13 27 1l225-225q7-8 3-16t-13-8h-65q-11 0-25 12l-94 94V20q0-8-6-14t-14-6h-47q-7 0-13.5 6T229 20z"/><glyph glyph-name="arrowright" unicode="→" d="M29 276q0 8 6.5 14t13.5 6h322l-89 89q-15 15-15 23v62q0 12 11 17.5t20-3.5l217-217q13-15 1-27L291 15q-7-7-15.5-3T267 25v65q0 12 12 25l94 94H49q-7 0-13.5 6.5T29 229v47z"/><glyph glyph-name="arrowdown" unicode="↓" d="M229 129v382q0 7 6.5 13.5T249 531h47q8 0 14-6.5t6-13.5V127l94 94q14 12 25 12h65q9 0 13-8.5t-3-15.5L285-16q-12-12-27 1L41 202q-9 9-3.5 20T55 233h62q8 0 23-15z"/><glyph glyph-name="uni2196" unicode="↖" d="M221 376l271-271q12-14 0-28l-33-33q-15-13-28 0L161 314V188q0-21-6-27l-44-44q-8-9-19.5-4.5T80 129v307q0 20 18 20h318q10 0 13-9t-3-15l-46-46q-9-9-26-9z"/><glyph glyph-name="uni2197" unicode="↗" d="M66 105l271 271-133 1q-17 0-26 9l-46 46q-6 6-3 15t13 9h318q18 0 18-20V129q0-12-11.5-16.5T447 117l-44 44q-6 6-6 27v126L127 44q-13-13-28 0L66 77q-12 14 0 28z"/><glyph glyph-name="uni2198" unicode="↘" d="M337 127L66 398q-12 14 0 28l33 33q14 12 28 0l270-270v126q0 21 6 27l44 44q8 9 19.5 4.5T478 374V67q0-20-18-20H142q-10 0-13 9t3 15l46 46q9 9 26 9z"/><glyph glyph-name="uni2199" unicode="↙" d="M502 398L231 127l133-1q17 0 26-9l46-46q6-6 3-15t-13-9H108q-18 0-18 20v307q0 12 11.5 16.5T121 386l44-44q6-6 6-27V189l270 270q14 12 28 0l33-33q12-14 0-28z"/><glyph glyph-name="partialdiff" unicode="∂" d="M264 80q50 0 81 29t34 71q5 28 1.5 61.5t-11.5 62-35 47.5-70 19q-62 0-89.5-38T147 238q-2-39 4.5-71.5t35-59.5T264 80zm-41 530h-36q-8 0-14 6t-6 14v50q0 8 6 14t14 6h36q187 0 230-228 26-151 11-292-9-83-61.5-136.5T264-10q-87 0-143 54.5T59 180q-3 45 0 90 6 81 62 135.5T264 460q45 0 87-24 4-2 6.5-2t3.5 1.5 1 4.5q-7 78-42 124t-97 46z"/><glyph glyph-name="uni2206" unicode="∆" d="M503 0H47q-8 0-14 6t-6 14v51q0 11 7 29l190 585q4 15 19 15h64q15 0 19-15l190-585q7-18 7-29V20q0-8-6-14t-14-6zM135 85h280q11 0 6 12L282 580q-2 6-6 6h-2q-4 0-6-6L129 97q-5-12 6-12z"/><glyph glyph-name="product" unicode="∏" d="M393-180v778q0 10-10 10H167q-10 0-10-10v-778q0-8-6-14t-14-6H85q-8 0-14 6t-6 14v860q0 8 6 14t14 6h380q8 0 14-6t6-14v-860q0-8-6-14t-14-6h-52q-8 0-14 6t-6 14z"/><glyph glyph-name="summation" unicode="∑" d="M256 270L81 590q-9 22-9 30v60q0 8 6 14t14 6h373q8 0 14-6t6-14v-51q0-8-6-14t-14-6H195q-7 0-9.5-4t.5-8l172-317q11-20 0-40L176-96q-1-3-1-5.5t3-5 7-2.5h282q8 0 14-6t6-14v-51q0-8-6-14t-14-6H82q-8 0-14 6t-6 14v60q0 8 9 30l185 339q6 11 0 21z"/><glyph glyph-name="minus" unicode="−" d="M85 308h380q8 0 14-6t6-14v-55q0-8-6-14t-14-6H85q-8 0-14 6t-6 14v55q0 8 6 14t14 6z"/><glyph glyph-name="radical" unicode="√" d="M448 860h163q8 0 14-6t6-14v-30q0-8-6-14t-14-6H494L264 15q-4-15-19-15h-56q-14 0-19 15L52 386q-3 8 2.5 16t16.5 8h45q15 0 19-15l75-268q2-6 6-6h2q4 0 6 6l205 718q4 15 19 15z"/><glyph glyph-name="infinity" unicode="∞" d="M455 259q0 39-13.5 62T406 344q-19 0-39.5-21.5T336 280l-11-21q4-10 11.5-24t29-37.5T406 174q22 0 35.5 23t13.5 62zm-168 77q14 36 45.5 64t72.5 28q60 0 94.5-46.5T534 259t-34.5-123T405 89q-67 0-118 92-5 8-11 7.5t-9-7.5q-46-92-118-92-60 0-94.5 47T20 259t34.5 122.5T149 428q73 0 118-92 4-7 10.5-7t9.5 7zM99 259q0-39 13.5-62t35.5-23q19 0 39.5 21t30.5 43l11 21q-4 9-11.5 23t-29 38-40.5 24q-22 0-35.5-23T99 259z"/><glyph glyph-name="integral" unicode="∫" d="M230-23v553q0 78 52.5 127.5T415 707h50q8 0 14-6t6-14v-47q0-8-6-14t-14-6h-50q-40 0-67.5-26T320 530V-23q0-78-52.5-127.5T135-200H85q-8 0-14 6t-6 14v47q0 8 6 14t14 6h50q40 0 67.5 26T230-23z"/><glyph glyph-name="approxequal" unicode="≈" d="M161 315q-17 0-35.5-8T99 289q-5-6-12-8t-12 3-5 14v50q0 27 26.5 44t64.5 17q52 0 112.5-22.5T389 364q17 0 35.5 8t26.5 18q5 6 12 8t12-3 5-14v-50q0-27-26.5-44T389 270q-51 0-112 22.5T161 315zm0-185q-17 0-35.5-8T99 104q-5-6-12-8t-12 3-5 14v50q0 27 26.5 44t64.5 17q52 0 112.5-22.5T389 179q17 0 35.5 8t26.5 18q5 6 12 8t12-3 5-14v-50q0-27-26.5-44T389 85q-51 0-112 22.5T161 130z"/><glyph glyph-name="notequal" unicode="≠" d="M309 204h166q8 0 14-6t6-14v-52q0-8-6-14t-14-6H248q-9 0-14-7l-42-62q-10-15-24-15h-49q-10 0-16 9t0 19l33 49q5 7-5 7H75q-8 0-14 6t-6 14v52q0 8 6 14t14 6h117q9 0 14 7l54 78q5 7-5 7H75q-8 0-14 6t-6 14v52q0 8 6 14t14 6h242q9 0 14 7l47 68q10 15 19 15h52q10 0 16-9t0-19l-38-55q-5-7 5-7h43q8 0 14-6t6-14v-52q0-8-6-14t-14-6H371q-9 0-14-7l-53-78q-5-7 5-7z"/><glyph glyph-name="lessequal" unicode="≤" d="M178 416l267-146q15-9 15-21v-60q0-11-8-17t-15-2L75 374q-15 8-15 22v49q0 14 15 22l362 203q7 4 15-2t8-17v-60q0-12-15-21L211 442l-9-4.5-10.5-5.5-9.5-6-6-5.5 2-4.5zM78 92h394q8 0 14-6t6-14V20q0-8-6-14t-14-6H78q-8 0-14 6t-6 14v52q0 8 6 14t14 6z"/><glyph glyph-name="greaterequal" unicode="≥" d="M105 270l267 146q8 4 0 8L105 570q-15 9-15 21v60q0 11 8 17t15 2l362-203q15-8 15-22v-49q0-14-15-22L113 170q-7-4-15 2t-8 17v60q0 12 15 21zM78 92h394q8 0 14-6t6-14V20q0-8-6-14t-14-6H78q-8 0-14 6t-6 14v52q0 8 6 14t14 6z"/><glyph glyph-name="lozenge" unicode="◊" d="M525 348L321 16q-8-15-22-15h-49q-14 0-22 15L25 348q-3 6 0 13l203 332q8 15 22 15h49q14 0 22-15l204-332q3-8 0-13zm-101 6L279 590q-4 8-8 0L126 354l145-235q4-8 8 0z"/><glyph glyph-name="commaaccent" unicode="" d="M247-146h-7q-8 0-14 6t-6 14v61q0 8 6 14t14 6h70q8 0 14-6t6-14v-61q0-34-20-62l-32-46q-10-15-26-15h-9q-14 0-19 11t1 22l31 57q3 5-.5 9t-8.5 4z"/><glyph glyph-name="asuperior" unicode="" d="M307 446h-50q-22 0-22-23t30-23q47 0 47 30v11q0 5-5 5zm-33 95q-27 0-32-17-3-9-14-9h-39q-10 0-10 10 0 31 26.5 54t71.5 23q47 0 74.5-25t27.5-68V356q0-10-10-10h-27q-4 0-7 4-1 1-2 3l-1.5 3-2.5 2-4 1q-1 0-19.5-9.5T265 340q-44 0-69.5 22T170 424q0 28 23 53t64 25h48q5 0 5 5v6q0 28-36 28z"/><glyph glyph-name="bsuperior" unicode="" d="M274 408q30 0 32 25 2 38 0 76-2 25-32 25-32 0-33-25-4-38 0-76 2-25 33-25zm8-68q-21 0-36 9t-19 9q-5 0-13-8-4-4-7-4h-27q-10 0-10 10v335q0 10 10 10h50q10 0 10-10v-84q0-8 5.5-10.5t10.5.5q10 5 26 5 39 0 65.5-26.5T377 509q4-38 0-76-3-40-29.5-66.5T282 340z"/><glyph glyph-name="dsuperior" unicode="" d="M276 408q31 0 33 25 4 38 0 76-1 25-33 25-31 0-33-25-2-38 0-76 2-25 33-25zm-9-68q-39 0-65 26.5T173 433q-4 38 0 76 3 40 29 66.5t65 26.5q16 0 26-5 5-3 10.5-.5T309 607v84q0 10 10 10h50q10 0 10-10V356q0-10-10-10h-27q-3 0-7 4-8 8-12 8-5 0-20-9t-36-9z"/><glyph glyph-name="esuperior" unicode="" d="M236 442q0-17 12-29.5t28-12.5q28 0 36 18 4 9 11 9h46q12 0 9-12-21-75-102-75-44 0-70.5 26T173 433q-6 38 0 76 6 41 32.5 67t70.5 26q46 0 74.5-26t28.5-73v-43q0-10-10-10H242q-6 0-6-8zm0 66q0-4 5-4h69q5 0 5 4 0 17-9.5 29.5T276 550q-19 0-29.5-13.5T236 508z"/><glyph glyph-name="isuperior" unicode="" d="M312 693v-58q0-8-8-8h-59q-8 0-8 8v58q0 8 8 8h59q8 0 8-8zm-78-166h-47q-10 0-10 10v49q0 10 10 10h115q7 0 7-7V422q0-5 5-5h53q10 0 10-10v-51q0-10-10-10H182q-10 0-10 10v51q0 10 10 10h52q5 0 5 5v100q0 5-5 5z"/><glyph glyph-name="lsuperior" unicode="" d="M231 632h-49q-10 0-10 10v49q0 10 10 10h117q7 0 7-7V422q0-5 5-5h61q10 0 10-10v-51q0-10-10-10H178q-10 0-10 10v51q0 10 10 10h53q5 0 5 5v205q0 5-5 5z"/><glyph glyph-name="msuperior" unicode="" d="M288 589q16 12 46 12t49-23.5 19-58.5V356q0-10-10-10h-45q-10 0-10 10v169q0 16-16 16-6 0-11-4.5t-5-11.5V356q0-10-10-10h-41q-10 0-10 10v169q0 16-16 16t-16-16V356q0-10-10-10h-44q-10 0-10 10v230q0 10 10 10h15q8 0 11-5 4-6 9-6 3 0 16 8t28 8q24 0 37-11 3-3 7-3 3 0 7 2z"/><glyph glyph-name="osuperior" unicode="" d="M274 602q45 0 72-26t33-67q6-38 0-76-6-41-33-67t-71-26q-45 0-71.5 26T171 433q-6 38 0 76 6 41 32.5 67t70.5 26zm0-192q32 0 35 23 8 38 0 76-3 23-35 23-29 0-33-23-7-33 0-76 5-23 33-23z"/><glyph glyph-name="rsuperior" unicode="" d="M310 514q0 11-10 18.5t-25 7.5q-14 0-24.5-8T240 510V356q0-10-10-10h-50q-10 0-10 10v230q0 10 10 10h26q8 0 14-6 5-5 11-5 5 0 21 8.5t37 8.5q41 0 65.5-24t24.5-64q0-10-10-10h-49q-10 0-10 10z"/><glyph glyph-name="ssuperior" unicode="" d="M166 428q0 10 10 10h41q16 0 17-13 2-12 13-20t28-8q19 0 31.5 8.5T319 424q0 14-40 21-1 0-2.5.5t-2.5.5q-20 3-34 7t-31.5 12.5-27 23.5-9.5 36q0 32 32 54.5t71 22.5q41 0 71-21t30-58q0-13-10-13h-40q-10 0-12 13-2 11-14.5 19t-24.5 8q-15 0-27-7.5T236 525q0-16 44-25 3-1 16.5-4t18.5-4 16.5-4.5 16.5-7 13.5-9.5 12-12.5 6.5-16 3-20.5q0-35-32-58.5T275 340q-46 0-77.5 22T166 428z"/><glyph glyph-name="tsuperior" unicode="" d="M278 526v-92q0-24 28-24 29 0 29 24 0 10 10 10h50q10 0 10-10 0-40-29-67t-70-27-69.5 26-28.5 66v94q0 5-5 5h-49q-10 0-10 10v44q0 10 10 10h49q5 0 5 5v76q0 10 10 10h50q10 0 10-10v-76q0-5 5-5h86q10 0 10-10v-44q0-10-10-10h-86q-5 0-5-5z"/><glyph glyph-name="apple" unicode="" d="M184 120q-12 0-18.5-9T156 91.5 143.5 72 116 63q-21 0-36.5 13.5T64 108q0 22 21 44t21 53q0 17-8 27.5T78 243q-8 0-15.5-3.5T48 236q-14 0-22 15.5T18 288q0 14 9.5 26.5T51 327q7 0 14.5-5.5T78 316q13 0 20 13.5t7 26.5q0 8-5 24.5T95 405q0 37 40 37 9 0 9 8 0 3-4 11t-4 13 5.5 9.5T152 488q11 0 22-17.5t20-17.5q11 0 15 8.5t4.5 19 7.5 19 22 8.5q21 0 37-24t35-24q20 0 27.5 11t7.5 37q0 27 14.5 40t38.5 13q22 0 34.5-13t12.5-35q0-18-12-31t-24-21-12-17q0-12 12-22t27-16 27-21 12-37q0-20-16-38t-16-34q0-26 44-26 40 0 40-45 0-22-15-37t-37-15q-15 0-35 25t-37 25q-25 0-25-21 0-10 10-21t10-28q0-14-9-23.5t-26-9.5q-10 0-35 15t-45 15q-26 0-26-31 0-27-24-27-8 0-13 7.5T218 96t-10.5 16.5T184 120zm114 220q0-16 12-28t28-12q17 0 30 12t13 28q0 17-13.5 32T338 387t-28-15-12-32zm-17-114q-26 0-48 20-5 5-7 0-1-3 2-7 18-29 53-29 30 0 44 34 2 4-1 6t-5-2q-12-22-38-22zm-67 109q0 21 14 21t14-21-14-21-14 21zm96 5q0 21 14 21t14-21-14-21-14 21zm-132 0q0-21 10-35.5t26-14.5q17 0 28.5 14.5T254 340t-11.5 35.5T214 390q-16 0-26-14.5T178 340zM85 520q0 14 8.5 24t20.5 10q10 0 17-10t7-24-7-24-17-10q-12 0-20.5 10T85 520z"/><glyph glyph-name="commaturn" d="M303 677h7q8 0 14-6t6-14v-61q0-8-6-14t-14-6h-70q-8 0-14 6t-6 14v61q0 34 20 62l32 46q10 15 26 15h9q14 0 19-11t-1-22l-31-57q-3-5 .5-9t8.5-4z"/><glyph glyph-name="zero.slash" d="M60 500q11 89 66 148.5T275 708q90 0 146.5-55.5T490 500q7-62 7-150t-7-150q-10-89-65.5-148.5T275-8q-90 0-146.5 55.5T60 200q-8 61-8 150.5T60 500zm340-300q17 131 4 271-2 14-10 2L191 134q-9-15 2-23 34-29 82-29 51 0 84 31.5t41 86.5zM275 618q-50 0-84-31.5T150 500q-16-127-4-266 3-17 11-3l203 336q7 12-3 22-32 29-82 29z"/><glyph glyph-name="csuperior" d="M277 410q16 0 24 7t12 27q2 8 10 8h49q8 0 8-10 0-46-30.5-74T277 340q-45 0-72 26t-33 67q-6 38 0 76 6 41 33 67t72 26q43 0 73-27.5t30-74.5q0-10-8-10h-49q-10 0-10 8-3 34-37 34-30 0-34-33-4-28 0-56 4-33 35-33z"/><glyph glyph-name="psuperior" d="M274 534q-31 0-33-25-4-38 0-76 1-25 33-25 30 0 32 25 2 38 0 76-2 25-32 25zm8 68q39 0 65.5-26.5T377 509q4-38 0-76-3-40-29.5-66.5T282 340q-16 0-26 5-5 3-10.5.5T240 335v-79q0-10-10-10h-50q-10 0-10 10v330q0 10 10 10h27q3 0 7-4 7-7 13-7 4 0 19 8.5t36 8.5z"/><glyph glyph-name="gsuperior" d="M342 596h27q10 0 10-10V331q0-39-29-66t-71-27-71.5 25-28.5 61q0 10 10 10h41q8 0 10-2.5t3-9.5q4-21 32-21 14 0 24 7.5t10 22.5v4q0 16-16 10-10-5-26-5-39 0-65 26.5T173 433q-4 38 0 76 3 40 29 66.5t65 26.5q21 0 36-8.5t20-8.5 12 7q4 4 7 4zm-66-62q-31 0-33-25-2-38 0-76 2-25 33-25t33 25q4 38 0 76-1 25-33 25z"/><glyph glyph-name="fsuperior" d="M224 531h-53q-10 0-10 10v44q0 10 10 10h53q5 0 5 5v10q0 39 28.5 65t67.5 26h48q10 0 10-10v-50q0-10-10-10h-48q-26 0-26-22v-9q0-5 5-5h74q10 0 10-10v-44q0-10-10-10h-74q-5 0-5-5V356q0-10-10-10h-50q-10 0-10 10v170q0 5-5 5z"/><glyph glyph-name="ksuperior" d="M310 354l-76 87q-1 2-3 1.5t-2-2.5v-84q0-10-10-10h-50q-10 0-10 10v335q0 10 10 10h50q10 0 10-10V517q1-4 5-2l71 74q5 7 12 7h55q8 0 10.5-6t-1.5-10l-87-92q-7-7 1-16l92-109q5-5 2-11t-10-6h-57q-7 0-12 8z"/><glyph glyph-name="qsuperior" d="M276 534q-31 0-33-25-2-38 0-76 2-25 33-25 32 0 33 25 4 38 0 76-2 25-33 25zm-9 68q21 0 36-8.5t20-8.5 12 7q4 4 7 4h27q10 0 10-10V256q0-10-10-10h-50q-10 0-10 10v79q0 8-5.5 10.5T293 345q-10-5-26-5-39 0-65 26.5T173 433q-4 38 0 76 3 40 29 66.5t65 26.5z"/><glyph glyph-name="usuperior" d="M319 356q-5 0-20.5-8t-31.5-8q-39 0-67 27t-28 66v153q0 10 10 10h50q10 0 10-10V432q0-10 9-17t24-7q16 0 24.5 6.5T308 430v156q0 10 10 10h50q10 0 10-10V356q0-10-10-10h-26q-4 0-12 5t-11 5z"/><glyph glyph-name="vsuperior" d="M277 452l48 136q3 8 10 8h54q6 0 9-4t1-8l-84-230q-3-8-10-8h-59q-7 0-10 8l-85 231q-2 4 1 7.5t9 3.5h54q7 0 10-8l46-136q1-3 3-2.5t3 2.5z"/><glyph glyph-name="zsuperior" d="M179 420l108 106q6 6-2 6h-98q-10 0-10 10v44q0 10 10 10h175q10 0 10-10v-47q0-11-10-21L260 415q-2-1-1-3t3-2h105q10 0 10-10v-44q0-10-10-10H182q-10 0-10 10v49q0 9 7 15z"/><glyph glyph-name="less.case" d="M145 324l361-201q19-10 19-26V42q0-14-9-21t-19-2L43 273q-18 10-18 23v70q0 13 19 23l453 254q9 5 18.5-2.5T525 619v-55q0-16-19-26L144 336q-4-2-3.5-6t4.5-6z"/><glyph glyph-name="greater.case" d="M43 123l363 202q9 5 0 11L43 538q-18 10-18 26v55q0 14 10 21.5t19 2.5l453-254q18-10 18-23v-70q0-13-19-23L53 18q-9-5-18.5 2.5T25 42v55q0 15 18 26z"/><glyph glyph-name="plus.case" d="M25 385h188q13 0 13 12v189q0 10 7.5 17.5T251 611h49q10 0 17.5-7.5T325 586V397q0-12 12-12h188q10 0 17.5-7.5T550 360v-49q0-11-7-18t-18-7H337q-12 0-12-13V86q0-10-7.5-17.5T300 61h-49q-11 0-18 7.5T226 86v187q0 13-13 13H25q-11 0-18 7t-7 18v49q0 10 7.5 17.5T25 385z"/><glyph glyph-name="equal.case" d="M525 392H25q-10 0-17.5 7.5T0 417v50q0 11 7 18t18 7h500q11 0 18-7t7-18v-50q0-10-7.5-17.5T525 392zm0-223H25q-11 0-18 7.5T0 194v50q0 10 7.5 17.5T25 269h500q10 0 17.5-7.5T550 244v-50q0-10-7-17.5t-18-7.5z"/><glyph glyph-name="multiply.case" d="M46 177l150 150q8 9 1 18L44 497q-8 7-8 17t8 18l35 35q17 17 35 0l152-152q9-9 18 0l150 150q17 17 34 0l35-35q17-18 0-35L353 345q-9-9 0-18l152-151q17-18 0-35l-35-35q-8-8-18-8t-17 8L284 258q-9 9-18 0L115 108q-17-18-35 0l-34 35q-17 17 0 34z"/><glyph glyph-name="minus.case" d="M44 389h462q10 0 17.5-7.5T531 364v-54q0-10-7.5-17.5T506 285H44q-10 0-17.5 7.5T19 310v54q0 10 7.5 17.5T44 389z"/><glyph glyph-name="notequal.case" d="M314 269h211q10 0 17.5-7.5T550 244v-50q0-10-7-17.5t-18-7.5H248q-11 0-18-9l-53-80q-12-19-31-19H94q-13 0-20.5 11t.5 24l43 64q5 9-7 9H25q-11 0-18 7.5T0 194v50q0 10 7.5 17.5T25 269h151q12 0 18 9l73 106q6 8-6 8H25q-10 0-17.5 7.5T0 417v50q0 11 7 18t18 7h303q11 0 18 9l62 90q13 19 23 19h57q13 0 20.5-11t-.5-23l-51-75q-7-9 6-9h62q11 0 18-7t7-18v-50q0-10-7.5-17.5T525 392H397q-12 0-18-9l-72-106q-4-8 7-8z"/><glyph glyph-name="divide.case" d="M349 173V78q0-10-7.5-17.5T324 53h-95q-11 0-18 7.5T204 78v95q0 11 7 18t18 7h95q10 0 17.5-7.5T349 173zm0 423v-95q0-10-7.5-17.5T324 476h-95q-11 0-18 7t-7 18v95q0 10 7 17.5t18 7.5h95q10 0 17.5-7.5T349 596zM44 389h462q10 0 17.5-7.5T531 364v-54q0-10-7.5-17.5T506 285H44q-10 0-17.5 7.5T19 310v54q0 10 7.5 17.5T44 389z"/><glyph glyph-name="approxequal.case" d="M161 412q-17 0-35.5-8T99 386q-5-6-12-8t-12 3-5 14v50q0 27 26.5 44t64.5 17q52 0 112.5-22.5T389 461q17 0 35.5 8t26.5 18q5 6 12 8t12-3 5-14v-50q0-27-26.5-44T389 367q-51 0-112 22.5T161 412zm0-228q-17 0-35.5-8T99 158q-5-6-12-8t-12 3-5 14v50q0 27 26.5 44t64.5 17q52 0 112.5-22.5T389 233q17 0 35.5 8t26.5 18q5 6 12 8t12-3 5-14v-50q0-27-26.5-44T389 139q-51 0-112 22.5T161 184z"/><glyph glyph-name="logicalnot.case" d="M449 164v122q0 12-13 12H31q-11 0-18 7t-7 18v45q0 10 7 17.5t18 7.5h488q10 0 17.5-7.5T544 368V164q0-10-7.5-17.5T519 139h-45q-10 0-17.5 7.5T449 164z"/><glyph glyph-name="parenleft.case" d="M461-99h54q10 0 17.5-7.5T540-124v-43q0-10-7.5-17.5T515-192h-54q-113 0-189.5 71.5T180 71q-10 75-10 244.5t9 243.5q14 109 89 185.5T461 821h44q10 0 17.5-7.5T530 796v-42q0-10-7.5-17.5T505 729h-44q-68 0-122-49.5T275 558q-11-77-11.5-243T274 71q9-64 61-117t126-53z"/><glyph glyph-name="parenright.case" d="M35-99h54q74 0 125.5 53T275 71q11 77 11 244t-11 243q-10 72-64 121.5T89 729H45q-11 0-18 7.5T20 754v42q0 10 7 17.5t18 7.5h44q118 0 192.5-76.5T370 559q9-76 9.5-243.5T370 71q-15-120-91.5-191.5T89-192H35q-10 0-17.5 7.5T10-167v43q0 10 7 17.5T35-99z"/><glyph glyph-name="bracketleft.case" d="M305 715V-86q0-12 13-12h154q10 0 17.5-7t7.5-18v-44q0-10-7.5-17.5T472-192H237q-10 0-17.5 7.5T212-167v963q0 10 7 17.5t18 7.5h232q10 0 17.5-7.5T494 796v-43q0-10-7.5-17.5T469 728H318q-13 0-13-13z"/><glyph glyph-name="bracketright.case" d="M244-86v801q0 13-13 13H80q-10 0-17.5 7.5T55 753v43q0 10 7.5 17.5T80 821h232q10 0 17.5-7.5T337 796v-963q0-10-7.5-17.5T312-192H77q-10 0-17.5 7.5T52-167v44q0 11 7 18t18 7h154q13 0 13 12z"/><glyph glyph-name="braceleft.case" d="M221 71v169q0 15-23 25l-13 6q-25 10-25 25v50q0 15 25 25l14 6q22 10 22 25v157q0 110 65 186t183 76h39q10 0 17.5-7.5T533 796v-42q0-10-7.5-17.5T508 729h-39q-67 0-110-48.5T316 559V402q0-49-51-81 51-32 51-81V71q0-76 44-123t109-47h40q11 0 18-7.5t7-17.5v-43q0-10-7.5-17.5T509-192h-40q-119 0-183.5 78T221 71z"/><glyph glyph-name="braceright.case" d="M329 240V71q0-107-64.5-185T81-192H41q-10 0-17.5 7.5T16-167v43q0 10 7 17.5T41-99h40q65 0 109 47t44 123v169q0 49 51 81-51 32-51 81v157q0 73-43 121.5T81 729H42q-10 0-17.5 7.5T17 754v42q0 10 7.5 17.5T42 821h39q118 0 183-76t65-186V402q0-15 22-25l14-6q25-10 25-25v-50q0-15-25-25l-13-6q-23-10-23-25z"/><glyph glyph-name="endash.case" d="M61 391h428q10 0 17.5-7.5T514 366v-54q0-10-7-17.5t-18-7.5H61q-11 0-18 7.5T36 312v54q0 10 7.5 17.5T61 391z"/><glyph glyph-name="emdash.case" d="M17 391h516q10 0 17.5-7.5T558 366v-54q0-10-7.5-17.5T533 287H17q-11 0-18 7.5T-8 312v54q0 10 7.5 17.5T17 391z"/><glyph glyph-name="guillemotleft.case" d="M61 354l120 201q13 19 31 19h41q19 0 25.5-11.5T274 532L166 351q-9-15 1-30l107-182q10-19 4-29.5T253 99h-41q-19 0-31 18L61 318q-12 18 0 36zm214 0l120 201q13 19 31 19h41q18 0 24.5-11.5T487 532L380 351q-9-14 0-30l107-181q11-20 4.5-30.5T467 99h-41q-19 0-31 18L275 318q-12 18 0 36z"/><glyph glyph-name="guillemotright.case" d="M369 555l120-200q10-18 0-36L369 119q-11-19-32-19h-41q-18 0-24 11t4 30l107 181q9 15 0 30L275 534q-10 19-3.5 30t24.5 11h41q21 0 32-20zm-214 1l120-201q10-18 0-36L155 118q-12-18-31-18H83q-19 0-25.5 11t4.5 30l107 181q8 16 0 30L61 534q-10 19-3.5 30T83 575h41q18 0 31-19z"/><glyph glyph-name="bar.case" d="M317 700V-50q0-8-6-14t-14-6h-45q-8 0-14 6t-6 14v750q0 8 6 14t14 6h45q8 0 14-6t6-14z"/><glyph glyph-name="guilsinglleft.case" d="M169 355l120 201q13 19 31 19h41q19 0 25-11.5t-5-30.5L275 352q-8-14 0-30l106-181q11-19 5-30t-25-11h-41q-19 0-31 18L169 319q-12 18 0 36z"/><glyph glyph-name="guilsinglright.case" d="M261 555l120-201q10-18 0-36L261 117q-12-18-31-18h-41q-19 0-25 10.5t5 30.5l106 181q9 15 1 30L169 532q-11 20-5 31t25 11h41q18 0 31-19z"/><glyph glyph-name="hyphen.case" d="M104 412h341q11 0 18-7t7-18v-71q0-10-7-17.5t-18-7.5H104q-10 0-17.5 7.5T79 316v71q0 11 7.5 18t17.5 7z"/><glyph glyph-name="at.case" d="M279 88q57 0 108 23 10 4 17-.5t7-14.5V68q0-3-.5-6t-2.5-5.5-2.5-4-4-3.5-4.5-3-5-4l-5-2q-39-22-106-22-110 0-180 70T31 266v107q0 114 75 187t175 73q115 0 176.5-63T519 393V255q0-38-27.5-65T426 163q-26 0-41 10-19 12-39 0-27-15-65-15-72 0-103.5 43.5T146 329q0 71 36.5 118t98.5 47q53 0 86-34.5t33-88.5V251q0-22 26-22 10 0 16.5 6t6.5 16v142q0 170-170 170-73 0-123-52.5T106 373V270q0-78 49-130t124-52zm52 192v91q0 23-14 38t-36 15q-40 0-52.5-26.5T216 329q0-50 14.5-75.5T281 228q22 0 36 15t14 37z"/><glyph glyph-name="brokenbar.case" d="M318 687V420q0-8-6-14t-14-6h-46q-8 0-14 6t-6 14v267q0 8 6 14t14 6h46q8 0 14-6t6-14zm0-400V20q0-8-6-14t-14-6h-46q-8 0-14 6t-6 14v267q0 8 6 14t14 6h46q8 0 14-6t6-14z"/><glyph glyph-name="plusinferior" d="M175-22h60q5 0 5 5v60q0 10 10 10h49q10 0 10-10v-60q0-5 5-5h61q10 0 10-10v-49q0-10-10-10h-61q-5 0-5-5v-61q0-10-10-10h-49q-10 0-10 10v61q0 5-5 5h-60q-10 0-10 10v49q0 10 10 10z"/><glyph glyph-name="equalinferior" d="M375-40H175q-10 0-10 10v48q0 10 10 10h200q10 0 10-10v-48q0-10-10-10zm0-102H175q-10 0-10 10v48q0 10 10 10h200q10 0 10-10v-48q0-10-10-10z"/><glyph glyph-name="minusinferior" d="M170-17h209q10 0 10-10v-49q0-10-10-10H170q-10 0-10 10v49q0 10 10 10z"/><glyph glyph-name="eight.numerator" d="M275 412q20 0 32.5 11t12.5 28q0 18-12.5 30T275 493t-32-12-12-30q0-17 12-28t32-11zm0 145q17 0 28.5 11t11.5 27q0 15-11.5 25T275 630t-28-10-11-25q0-16 11.5-27t27.5-11zm0 145q46 0 78.5-31.5T386 595q0-40-20-64-5-6 0-11 24-25 24-69 0-47-33-79t-82-32q-48 0-81.5 32.5T160 451q0 39 24 69 3 4-1 11-19 26-19 64 0 44 32.5 75.5T275 702z"/><glyph glyph-name="two.numerator" d="M312 596q0 14-9 23.5t-24 9.5q-39 0-39-33v-9q0-10-10-10h-53q-10 0-10 10v8q0 45 32.5 76t77.5 31 76.5-31 31.5-76q0-37-29-68l-94-97q-3-2-2-6.5t7-4.5h107q10 0 10-10v-53q0-10-10-10H174q-10 0-10 10v66q0 8 4 12l134 139q10 10 10 23z"/><glyph glyph-name="three.numerator" d="M315 451q0 18-11.5 27.5T275 488h-6q-10 0-10 10v52q0 10 10 10h6q16 0 26 9t10 26q0 16-10 25t-26 9-26-9-10-25v-8q0-10-10-10h-53q-10 0-10 10v8q0 44 32.5 75.5T275 702q45 0 77-31.5t32-75.5q0-35-26-65-5-5 0-8 30-24 30-71 0-46-33-78.5T275 340t-80 32.5-33 78.5v6q0 10 10 10h53q10 0 10-10v-6q0-38 40-38t40 38z"/><glyph glyph-name="four.numerator" d="M364 476h17q10 0 10-10v-48q0-10-10-10h-17q-5 0-5-5v-47q0-10-10-10h-51q-10 0-10 10v47q0 5-5 5H169q-10 0-10 10v59q0 6 8 20l112 192q3 7 10 7h60q10 0 10-10V481q0-5 5-5zm-82 100l-50-94q-4-6 4-6h47q5 0 5 5v93q0 3-2 3.5t-4-1.5z"/><glyph glyph-name="five.numerator" d="M362 622H245q-5 0-5-5v-39q0-10 9-5 12 8 29 8 49 0 78.5-32.5T387 462q1-49-29.5-85.5T274 340q-49 0-81 25.5T161 442q0 10 10 10h52q10 0 10-10 0-28 41-28 40 0 40 48 0 51-40 51-20 0-30-12-6-6-13-6h-54q-10 0-10 10v181q0 10 10 10h185q10 0 10-10v-54q0-10-10-10z"/><glyph glyph-name="seven.numerator" d="M189 358l117 260q2 5-4 5H177q-10 0-10 10v53q0 10 10 10h195q10 0 10-10v-67q0-3-3-10L267 354q-3-8-9-8h-60q-14 0-9 12z"/><glyph glyph-name="nine.numerator" d="M311 598q-1 16-11.5 25.5T274 633q-16 0-25.5-9.5T237 598q-1-14 0-28 2-17 12-27.5t25-10.5 25 11 12 27q1 14 0 28zm-41-187q38 0 46 26 4 12 4 24 0 9-13 7-24-4-37-4-44 0-74.5 31.5T163 572q-1 11 0 24 2 45 32.5 75.5T271 702q47 0 78.5-31.5T386 592q8-71 0-142-5-47-36.5-78.5T272 340q-48 0-80 28.5T160 439q0 10 10 10h44q12 0 15-10 9-28 41-28z"/><glyph glyph-name="one.numerator" d="M246 424v166q0 5-4 6.5t-6-1.5l-58-52q-5-5-12-1.5t-7 11.5v50q0 14 8 22l54 57q14 14 29 14h62q10 0 10-10V424q0-5 5-5h54q10 0 10-10v-53q0-10-10-10H172q-10 0-10 10v53q0 10 10 10h69q5 0 5 5z"/><glyph glyph-name="plus.numerator" d="M175 506h60q5 0 5 5v60q0 10 10 10h49q10 0 10-10v-60q0-5 5-5h61q10 0 10-10v-49q0-10-10-10h-61q-5 0-5-5v-61q0-10-10-10h-49q-10 0-10 10v61q0 5-5 5h-60q-10 0-10 10v49q0 10 10 10z"/><glyph glyph-name="equal.numerator" d="M375 488H175q-10 0-10 10v48q0 10 10 10h200q10 0 10-10v-48q0-10-10-10zm0-102H175q-10 0-10 10v48q0 10 10 10h200q10 0 10-10v-48q0-10-10-10z"/><glyph glyph-name="parenleft.numerator" d="M311 370h33q10 0 10-10v-49q0-10-10-10h-33q-45 0-75.5 28.5T199 406q-4 30-4 97.5t4 97.5q6 44 35.5 74.5T311 706h34q10 0 10-10v-49q0-10-10-10h-34q-35 0-42-36-6-31-6-97.5t6-97.5q6-36 42-36z"/><glyph glyph-name="parenright.numerator" d="M206 370h33q36 0 42 36 6 31 6 97.5t-6 97.5q-7 36-42 36h-34q-10 0-10 10v49q0 10 10 10h34q46 0 76-31t36-74q4-30 4-97.5t-4-97.5q-6-48-36.5-76.5T239 301h-33q-10 0-10 10v49q0 10 10 10z"/><glyph glyph-name="minus.numerator" d="M170 511h209q10 0 10-10v-49q0-10-10-10H170q-10 0-10 10v49q0 10 10 10z"/><glyph glyph-name="zero.numerator" d="M162 590q5 47 36.5 79.5T274 702q45 0 76.5-33t36.5-79q8-69 0-138-5-47-36.5-79.5T274 340q-44 0-75.5 33T162 452q-8 68 0 138zm112 38q-15 0-24.5-10.5T238 592q-8-71 0-142 2-16 12-26t24-10q15 0 25 10.5t12 25.5q8 71 0 142-1 16-12 26t-25 10z"/><glyph glyph-name="six.numerator" d="M239 444q1-16 11.5-25.5T276 409q16 0 25.5 9.5T313 444q1 14 0 28-2 17-12 27.5T276 510t-25-11-12-27q-1-14 0-28zm41 187q-38 0-46-26-4-12-4-24 0-9 13-7 24 4 37 4 44 0 74.5-31.5T387 470q1-11 0-24-2-45-32.5-75.5T279 340q-47 0-78.5 31.5T164 450q-8 71 0 142 5 47 36.5 78.5T278 702q48 0 80-28.5t32-70.5q0-10-10-10h-44q-12 0-15 10-9 28-41 28z"/><glyph glyph-name="eight.denominator" d="M275 66q20 0 32.5 10.5T320 105t-12.5 30-32.5 12-32-12-12-30 12-28.5T275 66zm0 145q17 0 28.5 11t11.5 26q0 16-11.5 26T275 284t-28-10-11-26q0-15 11.5-26t27.5-11zm0 145q46 0 78.5-31.5T386 248q0-39-20-63-5-6 0-11 24-25 24-69 0-47-33-79T275-6q-48 0-81.5 32.5T160 105q0 39 24 69 3 4-1 11-19 26-19 63 0 45 32.5 76.5T275 356z"/><glyph glyph-name="two.denominator" d="M312 250q0 14-9 23.5t-24 9.5q-39 0-39-33v-9q0-10-10-10h-53q-10 0-10 10v8q0 45 32.5 76t77.5 31 76.5-31 31.5-76q0-37-29-68l-94-97q-3-2-2-6.5t7-4.5h107q10 0 10-10V10q0-10-10-10H174q-10 0-10 10v66q0 8 4 12l134 139q10 10 10 23z"/><glyph glyph-name="three.denominator" d="M315 105q0 18-11.5 27.5T275 142h-6q-10 0-10 10v52q0 10 10 10h6q16 0 26 9t10 25-10 25.5-26 9.5-26-9.5-10-25.5v-7q0-10-10-10h-53q-10 0-10 10v7q0 45 32 76.5t77 31.5 77-31.5 32-76.5q0-34-26-64-5-5 0-8 30-24 30-71 0-46-33-78.5T275-6t-80 32.5-33 78.5v6q0 10 10 10h53q10 0 10-10v-6q0-38 40-38t40 38z"/><glyph glyph-name="four.denominator" d="M364 130h17q10 0 10-10V72q0-10-10-10h-17q-5 0-5-5V10q0-10-10-10h-51q-10 0-10 10v47q0 5-5 5H169q-10 0-10 10v59q0 6 8 20l112 192q3 7 10 7h60q10 0 10-10V135q0-5 5-5zm-82 100l-50-94q-4-6 4-6h47q5 0 5 5v93q0 3-2 3.5t-4-1.5z"/><glyph glyph-name="five.denominator" d="M362 276H245q-5 0-5-5v-39q0-10 9-5 12 8 29 8 49 0 78.5-32.5T387 116q1-49-29.5-85.5T274-6q-49 0-81 25.5T161 96q0 10 10 10h52q10 0 10-10 0-28 41-28 40 0 40 48 0 51-40 51-20 0-30-12-6-6-13-6h-54q-10 0-10 10v181q0 10 10 10h185q10 0 10-10v-54q0-10-10-10z"/><glyph glyph-name="seven.denominator" d="M189 12l117 260q2 5-4 5H177q-10 0-10 10v53q0 10 10 10h195q10 0 10-10v-67q0-3-3-10L267 8q-3-8-9-8h-60q-14 0-9 12z"/><glyph glyph-name="nine.denominator" d="M311 252q-1 16-11.5 25.5T274 287q-16 0-25.5-9.5T237 252q-1-14 0-28 2-17 12-27.5t25-10.5 25 11 12 27q1 14 0 28zM270 65q38 0 46 26 4 12 4 24 0 9-13 7-24-4-37-4-44 0-74.5 31.5T163 226q-1 11 0 24 2 45 32.5 75.5T271 356q47 0 78.5-31.5T386 246q8-71 0-142-5-47-36.5-78.5T272-6q-48 0-80 28.5T160 93q0 10 10 10h44q12 0 15-10 9-28 41-28z"/><glyph glyph-name="zero.denominator" d="M162 244q5 47 36.5 79.5T274 356q45 0 76.5-33t36.5-79q8-69 0-138-5-47-36.5-79.5T274-6q-44 0-75.5 33T162 106q-8 68 0 138zm112 38q-15 0-24.5-10.5T238 246q-8-71 0-142 2-16 12-26t24-10q15 0 25 10.5t12 25.5q8 71 0 142-1 16-12 26t-25 10z"/><glyph glyph-name="one.denominator" d="M246 78v166q0 5-4 6.5t-6-1.5l-58-52q-5-5-12-1.5t-7 11.5v50q0 14 8 22l54 57q14 14 29 14h62q10 0 10-10V78q0-5 5-5h54q10 0 10-10V10q0-10-10-10H172q-10 0-10 10v53q0 10 10 10h69q5 0 5 5z"/><glyph glyph-name="plus.denominator" d="M175 160h60q5 0 5 5v60q0 10 10 10h49q10 0 10-10v-60q0-5 5-5h61q10 0 10-10v-49q0-10-10-10h-61q-5 0-5-5V25q0-10-10-10h-49q-10 0-10 10v61q0 5-5 5h-60q-10 0-10 10v49q0 10 10 10z"/><glyph glyph-name="equal.denominator" d="M375 142H175q-10 0-10 10v48q0 10 10 10h200q10 0 10-10v-48q0-10-10-10zm0-102H175q-10 0-10 10v48q0 10 10 10h200q10 0 10-10V50q0-10-10-10z"/><glyph glyph-name="parenleft.denominator" d="M311 24h33q10 0 10-10v-49q0-10-10-10h-33q-45 0-75.5 28.5T199 60q-4 30-4 97.5t4 97.5q6 44 35.5 74.5T311 360h34q10 0 10-10v-49q0-10-10-10h-34q-35 0-42-36-6-31-6-97.5t6-97.5q6-36 42-36z"/><glyph glyph-name="parenright.denominator" d="M206 24h33q36 0 42 36 6 31 6 97.5t-6 97.5q-7 36-42 36h-34q-10 0-10 10v49q0 10 10 10h34q46 0 76-31t36-74q4-30 4-97.5T351 60q-6-48-36.5-76.5T239-45h-33q-10 0-10 10v49q0 10 10 10z"/><glyph glyph-name="minus.denominator" d="M170 165h209q10 0 10-10v-49q0-10-10-10H170q-10 0-10 10v49q0 10 10 10z"/><glyph glyph-name="six.denominator" d="M239 98q1-16 11.5-25.5T276 63q16 0 25.5 9.5T313 98q1 14 0 28-2 17-12 27.5T276 164t-25-11-12-27q-1-14 0-28zm41 187q-38 0-46-26-4-12-4-24 0-9 13-7 24 4 37 4 44 0 74.5-31.5T387 124q1-11 0-24-2-45-32.5-75.5T279-6q-47 0-78.5 31.5T164 104q-8 71 0 142 5 47 36.5 78.5T278 356q48 0 80-28.5t32-70.5q0-10-10-10h-44q-12 0-15 10-9 28-41 28z"/><glyph glyph-name="arrowright.case" d="M29 383q0 7 6.5 13.5T49 403h319l-87 86q-15 15-15 24v64q0 12 10.5 17.5T296 591l219-219q14-14 1-27L291 120q-7-7-16-3t-9 13v68q0 11 13 24l90 90H49q-7 0-13.5 6T29 332v51z"/><glyph glyph-name="arrowup.case" d="M230 125v379l-86-87q-15-15-22-15H57q-12 0-17.5 11t3.5 20l218 218q15 13 27 1l226-226q7-8 3-16t-13-8h-67q-11 0-25 12l-91 91V125q0-7-6.5-13.5T301 105h-51q-8 0-14 6.5t-6 13.5z"/><glyph glyph-name="arrowleft.case" d="M183 403h318q7 0 13.5-6.5T521 383v-51q0-8-6.5-14t-13.5-6H182l90-90q12-12 12-24v-68q0-9-9-13t-16 3L34 345q-12 12 1 27l219 219q9 9 19.5 3.5T284 577v-64q0-10-14-24z"/><glyph glyph-name="arrowdown.case" d="M227 237v379q0 8 6.5 14t13.5 6h51q8 0 14-6t6-14V236l91 91q13 12 25 12h67q9 0 13-8.5t-3-15.5L285 89q-12-12-27 1L40 308q-9 9-3.5 20T54 339h65q7 0 22-15z"/><glyph glyph-name="uni2196.case" d="M225 480l268-269q14-14 0-28l-35-35q-15-13-28 0L163 415V293q0-20-6-26l-46-46q-8-9-19.5-4.5T80 233v308q0 20 18 20h320q10 0 13-9t-3-15l-48-48q-9-9-26-9H225z"/><glyph glyph-name="uni2197.case" d="M65 211l268 269H205q-17 0-26 9l-48 48q-6 6-3 15t13 9h319q18 0 18-20V233q0-12-11.5-16.5T447 221l-45 46q-6 6-6 26v122L129 148q-15-14-29 0l-35 36q-13 14 0 27z"/><glyph glyph-name="uni2198.case" d="M333 233L65 502q-13 15 0 28l36 35q13 13 28 0l267-267v122q0 21 6 27l45 45q8 9 19.5 4.5T478 480V172q0-20-18-20H141q-10 0-13 9t3 15l48 48q9 9 26 9h128z"/><glyph glyph-name="uni2199.case" d="M503 502L235 233h129q17 0 26-9l48-48q6-6 3-15t-13-9H108q-18 0-18 20v308q0 12 11.5 16.5T121 492l46-45q6-6 6-27l-1-122 268 267q15 13 27 1l36-37q13-14 0-27z"/></font>
</defs>
</svg>
