<svg width="16" height="25" xmlns="http://www.w3.org/2000/svg"><g fill="none" fill-rule="evenodd"><path d="M9 21.119c0 .864-.67 1.562-1.5 1.562S6 21.983 6 21.12c0-.864.67-1.563 1.5-1.563S9 20.255 9 21.12zm6-18.775v20.312C15 23.95 13.992 25 12.75 25H2.25C1.008 25 0 23.95 0 22.656V2.344C0 1.05 1.008 0 2.25 0h10.5C13.992 0 15 1.05 15 2.344zm-1.5 0c0-.43-.338-.781-.75-.781H2.25c-.413 0-.75.351-.75.78v20.313c0 .43.337.782.75.782h10.5c.412 0 .75-.352.75-.782V2.344z" fill="#CFCCC9" fill-rule="nonzero"/><path d="M1.33 4.839h12.88M1.33 18.145h12.88" stroke="#CFCCC9" stroke-width="1.62" stroke-linecap="square"/></g></svg>