<svg width="15" height="15" xmlns="http://www.w3.org/2000/svg"><path d="M7.5 0A7.499 7.499 0 000 7.5C0 11.643 3.357 15 7.5 15S15 11.643 15 7.5 11.643 0 7.5 0zm0 13.548A6.047 6.047 0 011.452 7.5 6.047 6.047 0 017.5 1.452 6.047 6.047 0 0113.548 7.5 6.047 6.047 0 017.5 13.548zm3.079-7.929L8.698 7.5l1.88 1.881a.363.363 0 010 .514l-.683.684a.363.363 0 01-.514 0L7.5 8.698l-1.881 1.88a.363.363 0 01-.514 0l-.684-.683a.363.363 0 010-.514L6.302 7.5l-1.88-1.881a.363.363 0 010-.514l.683-.684a.363.363 0 01.514 0L7.5 6.302l1.881-1.88a.363.363 0 01.514 0l.684.683a.363.363 0 010 .514z" fill="#D2322D"/></svg>